<?xml version="1.0" standalone="no"?>
<!DOCTYPE svg PUBLIC "-//W3C//DTD SVG 1.1//EN" "http://www.w3.org/Graphics/SVG/1.1/DTD/svg11.dtd" >
<svg xmlns="http://www.w3.org/2000/svg">
<metadata>
This is a custom SVG webfont generated by Font Squirrel.
Copyright   : Copyright c 2007 by Jos Buivenga All rights reserved
Designer    : Jos Buivenga
Foundry     : Jos Buivenga
Foundry URL : httpwwwjosbuivengademonnl
</metadata>
<defs>
<font id="DiavloLight" horiz-adv-x="677" >
<font-face units-per-em="1000" ascent="750" descent="-250" />
<missing-glyph horiz-adv-x="280" />
<glyph unicode="&#xfb00;" horiz-adv-x="638" d="M130 563v-81h264v111q-9 38 -47 59.5t-86 21.5q-54 0 -92.5 -28.5t-38.5 -82.5zM593 720q-61 0 -102.5 -29.5t-41.5 -82.5v-126h194q0 -6 -1 -15t-10.5 -24t-25.5 -15h-157v-435q-6 0 -15 1t-24.5 12t-15.5 31v391h-264v-435q-6 0 -15 1t-24.5 12t-15.5 31v537 q0 70 54 112.5t133 42.5q38 0 82 -14t62 -40q22 46 75 72.5t115 26.5q58 0 105 -25.5t47 -67.5q0 -22 -25 -52q0 38 -36.5 64.5t-93.5 26.5z" />
<glyph unicode="&#xfb01;" horiz-adv-x="524" d="M242 362h-112v-369q-6 0 -15 1t-24.5 12t-15.5 31v582q0 69 60 112t137 43q60 0 110 -21t50 -61q0 -29 -17 -52q1 36 -40.5 58t-102.5 22q-62 0 -102 -31t-40 -85v-188h112q60 0 106 20t46 59v6q5 0 12 -1.5t18 -5t18 -13.5t7 -24v-464q-6 0 -15 1t-24.5 12t-15.5 31v364 q-44 -39 -152 -39z" />
<glyph unicode="&#xfb02;" horiz-adv-x="524" d="M389 135v555q-51 30 -115 30q-61 0 -102.5 -29.5t-41.5 -82.5v-126h199q0 -6 -1 -15t-10.5 -24t-25.5 -15h-162v-435q-6 0 -15 1t-24.5 12t-15.5 31v582q0 69 61 112t141 43q18 0 42.5 -4t54 -13t50 -28.5t20.5 -44.5v-523q0 -64 15.5 -106.5t49.5 -42.5q-13 -19 -39 -19 q-40 0 -60.5 39t-20.5 103z" />
<glyph unicode="&#xfb03;" horiz-adv-x="843" d="M75 37v537q0 70 54 112.5t133 42.5q38 0 82 -14t62 -40q22 46 74 72.5t111 26.5q60 0 110 -21t50 -61q0 -29 -17 -52q0 37 -40.5 58.5t-102.5 21.5t-102 -31t-40 -85v-188h112q60 0 106 20t46 59v6q5 0 12 -1.5t18 -5t18 -13.5t7 -24v-464q-6 0 -15 1t-24.5 12t-15.5 31 v364q-44 -39 -152 -39h-112v-369q-6 0 -15 1t-24.5 12t-15.5 31v325h-264v-369q-6 0 -15 1t-24.5 12t-15.5 31zM130 563v-147h264v177q-9 38 -47 59.5t-86 21.5q-54 0 -92.5 -28.5t-38.5 -82.5z" />
<glyph unicode="&#xfb04;" horiz-adv-x="843" d="M708 135v555q-51 30 -115 30q-61 0 -102.5 -29.5t-41.5 -82.5v-126h199q0 -6 -1 -15t-10.5 -24t-25.5 -15h-162v-435q-6 0 -15 1t-24.5 12t-15.5 31v391h-264v-435q-6 0 -15 1t-24.5 12t-15.5 31v537q0 70 54 112.5t133 42.5q38 0 82 -14t62 -40q22 46 75 72.5t115 26.5 q18 0 42.5 -4t54 -13t50 -28.5t20.5 -44.5v-523q0 -64 15.5 -106.5t49.5 -42.5q-13 -19 -39 -19q-40 0 -60.5 39t-20.5 103zM130 563v-81h264v111q-9 38 -47 59.5t-86 21.5q-54 0 -92.5 -28.5t-38.5 -82.5z" />
<glyph unicode="fj" horiz-adv-x="524" d="M449 457v-561q0 -56 -22 -95.5t-58 -39.5q-20 0 -36 16q31 0 46 47t15 104v470q-21 -17 -53 -25.5t-52.5 -9.5t-54.5 -1h-9h-95v-369q-2 0 -6 0.5t-13.5 2.5t-16.5 6t-13 13t-6 21v583q0 69 60 111.5t137 42.5q63 0 111 -21t48 -64q0 -27 -16 -49q0 37 -40.5 58.5 t-102.5 21.5t-102 -30.5t-40 -84.5v-188h95q41 0 77 6t64 23t28 44v11q31 0 47 -19q8 -10 8 -24z" />
<glyph unicode=" "  horiz-adv-x="280" />
<glyph unicode="&#x09;" horiz-adv-x="280" />
<glyph unicode="&#xa0;" horiz-adv-x="280" />
<glyph unicode="!" horiz-adv-x="249" d="M172 660v-496q-4 0 -10.5 1t-18 4.5t-19 13.5t-7.5 24v496q2 0 6 -0.5t13.5 -2.5t16.5 -6t13 -13t6 -21zM114 66h49q11 0 11 -14v-52h-49q-11 0 -11 14v52z" />
<glyph unicode="&#x22;" horiz-adv-x="350" d="M85 591v104h27q28 0 28 -49v-35q0 -123 -62 -123q-14 0 -22 8q29 9 29 95zM222 591v104h27q28 0 28 -49v-35q0 -123 -62 -123q-14 0 -22 8q29 9 29 95z" />
<glyph unicode="#" horiz-adv-x="660" d="M120 490h82l50 209q54 -17 45 -55l-37 -154h201l50 209q54 -17 45 -55l-37 -154h106q4 -16 -1.5 -35t-26.5 -19h-91l-44 -180h105q4 -16 -1.5 -35t-26.5 -19h-90l-50 -209q-24 6 -36.5 20.5t-8.5 33.5l37 155h-201l-50 -209q-24 6 -36.5 20.5t-8.5 33.5l37 155h-97 q-1 9 -1.5 21t7 22.5t21.5 10.5h83l44 180h-96q-1 9 -1.5 21t7 22.5t21.5 10.5zM247 436l-44 -180h201l44 180h-201z" />
<glyph unicode="$" horiz-adv-x="600" d="M270 -26v15q-54 2 -97 13.5t-73 38t-30 64.5q0 32 16 73q0 -124 184 -133v293q-42 7 -67 13t-57 19t-49 30t-29.5 45.5t-12.5 66.5q0 184 215 194v54q6 0 15 -1t24.5 -12t15.5 -31v-10q187 -6 187 -114q0 -30 -18 -72q0 120 -169 130v-263q39 -7 65.5 -14t56 -21 t47 -33.5t29 -51t11.5 -73.5q0 -191 -209 -205v-59q-6 0 -15 1t-24.5 12t-15.5 31zM474 191q0 64 -37 93t-112 44v-283q149 9 149 146zM115 517q0 -59 37.5 -83t117.5 -38v254q-77 -3 -116 -33.5t-39 -99.5z" />
<glyph unicode="%" horiz-adv-x="744" d="M324 611v-125q0 -44 -37.5 -67.5t-101.5 -23.5q-65 0 -102.5 23.5t-37.5 67.5v125q0 43 38 67.5t102 24.5q63 0 101 -25t38 -67zM699 206v-125q0 -44 -37.5 -67.5t-102.5 -23.5q-64 0 -101.5 23.5t-37.5 67.5v125q0 42 38 67t101 25q64 0 102 -24.5t38 -67.5zM123 145 l473 480q21 -17 21 -43q0 -22 -21 -43l-466 -466q-20 20 -20 43q0 16 13 29zM652 109v71q0 36 -19.5 55t-73.5 19q-56 0 -74.5 -18.5t-18.5 -55.5v-71q0 -39 18 -56.5t75 -17.5q54 0 73.5 18t19.5 56zM278 514v71q0 36 -19.5 55t-73.5 19q-56 0 -74.5 -18.5t-18.5 -55.5v-71 q0 -39 18 -56.5t75 -17.5q54 0 73.5 18t19.5 56z" />
<glyph unicode="&#x26;" horiz-adv-x="583" d="M304 330h-32q-71 0 -107.5 -40t-36.5 -104q0 -61 44 -101.5t132 -40.5q94 0 154 31.5t60 91.5q15 -31 15 -62q0 -41 -39 -69t-88 -38t-102 -10q-105 0 -169.5 50t-64.5 130v30q0 57 27.5 99t85.5 58q-103 28 -103 149v25q0 79 63 127.5t161 48.5q50 0 96 -9.5t83.5 -37.5 t37.5 -69q0 -31 -13 -62q0 59 -58.5 90.5t-145.5 31.5q-80 0 -123 -38.5t-43 -96.5q0 -66 38.5 -97t127.5 -32v139q2 0 6 -0.5t13.5 -3t16.5 -6.5t13 -13.5t6 -21.5v-93h140q0 -6 -1 -15.5t-11 -25t-26 -15.5h-102v-85q0 -20 4 -38.5t8 -26.5l4 -8q-3 0 -7.5 1.5t-17 8 t-22 16t-17 28.5t-7.5 43v61z" />
<glyph unicode="'" horiz-adv-x="213" d="M85 591v104h27q28 0 28 -49v-35q0 -123 -62 -123q-14 0 -22 8q29 9 29 95z" />
<glyph unicode="(" horiz-adv-x="299" d="M55 251q0 199 52.5 330t125.5 131q22 0 41 -18q-58 -1 -109 -134t-51 -309t51 -309t109 -134q-19 -18 -41 -18q-73 0 -125.5 131.5t-52.5 329.5z" />
<glyph unicode=")" horiz-adv-x="299" d="M244 251q0 -198 -52.5 -329.5t-125.5 -131.5q-22 0 -41 18q58 1 109 134t51 309t-51 309t-109 134q19 18 41 18q73 0 125.5 -131t52.5 -330z" />
<glyph unicode="*" horiz-adv-x="393" d="M132 469l-19 8q-25 15 -25 41q0 34 63 84q-34 12 -65 12q-23 0 -41 -21q-2 14 -2 21q0 20 13.5 35t43.5 15q18 0 71 -22q-15 81 -61 89q20 20 42 20q23 0 40 -27.5t23 -76.5q50 42 50 75q0 11 -4 22l19 -8q25 -15 25 -41q0 -38 -64 -84q31 -12 66 -12q23 0 41 21 q2 -14 2 -21q0 -20 -13.5 -35t-43.5 -15q-15 0 -70 23q12 -82 60 -90q-20 -20 -42 -20q-23 0 -40 26.5t-23 76.5q-51 -41 -51 -75q0 -8 5 -21z" />
<glyph unicode="+" horiz-adv-x="485" d="M216 108v121h-138q-7 13 -1 34t25 21h114v135q22 3 37 -5t15 -25v-105h140q9 -55 -25 -55h-115v-151q-18 -3 -35 5t-17 25z" />
<glyph unicode="," horiz-adv-x="217" d="M69 73h18h45q8 0 8 -10v-58q0 -115 -54 -115q-17 0 -34 10q39 7 29 92q-1 4 -1 6z" />
<glyph unicode="-" horiz-adv-x="485" d="M104 284h304q4 -16 -1.5 -35t-26.5 -19h-303q-1 9 -1.5 21t7 22.5t21.5 10.5z" />
<glyph unicode="." horiz-adv-x="221" d="M77 73h54q13 0 13 -15v-58h-54q-13 0 -13 16v57z" />
<glyph unicode="/" horiz-adv-x="306" d="M24 -184l214 930q54 -17 45 -55l-214 -929q-24 6 -36.5 20.5t-8.5 33.5z" />
<glyph unicode="0" horiz-adv-x="607" d="M537 531v-368q0 -86 -63 -130.5t-170 -44.5q-108 0 -171 44.5t-63 130.5v368q0 85 63 130t171 45q107 0 170 -45t63 -130zM479 178v338q0 69 -42.5 102.5t-132.5 33.5q-91 0 -133.5 -33.5t-42.5 -102.5v-338q0 -70 42.5 -103t133.5 -33q90 0 132.5 33t42.5 103z" />
<glyph unicode="1" horiz-adv-x="502" d="M149 693l162 8q-7 -40 -7 -85v-561l176 2q11 -57 -25 -57h-386q-9 55 24 55h153v585q-47 -6 -104 -6q-42 0 -62 -20t-20 -48v-4q-15 30 -15 56q0 35 27.5 55t76.5 20z" />
<glyph unicode="2" horiz-adv-x="561" d="M55 0v71q0 58 29 103t72.5 71t94.5 53l94.5 50t72.5 61t29 87v17q0 59 -43 98t-123 39q-87 0 -145.5 -31.5t-58.5 -90.5q-15 34 -15 61q0 32 21 55.5t55.5 36.5t70.5 19t72 6q99 0 161.5 -48t62.5 -127v-40q0 -51 -21.5 -90.5t-56 -65.5t-76.5 -47.5l-84 -42.5t-76.5 -44 t-56 -58t-21.5 -79v-9h340l58 6q0 -2 -0.5 -6.5t-3 -15t-6.5 -18.5t-14 -14.5t-23 -6.5h-409z" />
<glyph unicode="3" horiz-adv-x="580" d="M286 650q-87 0 -145.5 -32t-58.5 -91q-15 36 -15 62q0 32 21 55.5t55.5 36.5t70.5 19t72 6q98 0 161 -49t63 -128v-25q0 -121 -103 -149q57 -16 85 -59.5t28 -100.5v-30q0 -80 -64.5 -128.5t-169.5 -48.5q-53 0 -102 10.5t-86.5 38.5t-37.5 69q0 29 12 57q0 -58 60 -88.5 t154 -30.5q87 0 131.5 38.5t44.5 97.5q0 63 -32 102t-97 46h-7q-7 1 -10 3t-9 6.5t-9 15.5t-4 27q86 3 122 34.5t36 99.5q0 59 -42.5 97.5t-123.5 38.5z" />
<glyph unicode="4" horiz-adv-x="510" d="M15 210q3 59 49.5 143.5t108.5 160t107 124.5t65 67q3 0 7.5 -0.5t16 -3t20.5 -6.5t16.5 -13t7.5 -20v-398h72q0 -7 -1 -16t-10 -23.5t-26 -14.5h-35v-220q-4 0 -10.5 1t-19 4.5t-20.5 13.5t-8 24v177h-340zM355 264v303q0 17 1.5 36.5t3.5 30.5l2 11q-18 -23 -31 -36 q-69 -69 -145 -169.5t-102 -175.5h271z" />
<glyph unicode="5" horiz-adv-x="551" d="M268 -12q-29 0 -60.5 4t-73 14t-68 34.5t-26.5 60.5q0 23 13 62q0 -58 60 -88.5t155 -30.5q91 0 133 31.5t42 102.5v70q0 136 -175 136h-127l-52 -2q4 15 4 64v163q0 25 2 40t15 29.5t37 14.5h259q16 0 30.5 2t21.5 4l6 2q0 -3 -0.5 -7t-3 -15t-6.5 -19t-14 -15t-23 -7 h-266v-137l-7 -65h122q235 0 235 -175v-96q0 -85 -63 -131t-170 -46z" />
<glyph unicode="6" horiz-adv-x="602" d="M537 246v-83q0 -86 -63 -130.5t-170 -44.5q-108 0 -171 44.5t-63 130.5v363q0 86 63.5 133t170.5 47q41 0 76 -4.5t71.5 -15.5t58 -34.5t21.5 -56.5q0 -31 -13 -61q0 57 -61.5 86.5t-152.5 29.5q-175 0 -175 -139v-95l-3 -77q1 3 4 8.5t17 20t33 25t54.5 19.5t79.5 9 q101 0 162 -45t61 -130zM304 42q91 0 132.5 32t41.5 104v53q0 71 -40 103.5t-124 32.5q-185 0 -185 -128v-61q0 -72 41.5 -104t133.5 -32z" />
<glyph unicode="7" horiz-adv-x="516" d="M437 639h-368q-16 0 -31 -2t-22 -4l-6 -2q0 3 0.5 7t3 15t7 19t14.5 15t23 7h443q0 -65 -19.5 -125.5t-50 -107.5t-67.5 -92.5l-74 -88t-67.5 -85.5t-49 -95t-17.5 -106q-6 -4 -18 -4q-39 0 -39 31q0 66 31 131t77.5 120.5l94 110t86.5 121.5t49 135z" />
<glyph unicode="8" horiz-adv-x="607" d="M70 163v37q0 101 100 151q-49 24 -69.5 58.5t-20.5 87.5v34q0 84 61.5 129.5t162.5 45.5q100 0 161.5 -45.5t61.5 -129.5v-34q0 -54 -20 -88t-69 -58q99 -50 99 -151v-34q0 -86 -63 -132t-170 -46q-108 0 -171 44.5t-63 130.5zM479 182q0 143 -175 143q-91 0 -133.5 -36 t-42.5 -110q0 -71 42 -104t134 -33q90 0 132.5 34t42.5 106zM304 652q-85 0 -125.5 -33.5t-40.5 -104.5q0 -70 36 -102.5t122 -32.5h16q85 0 121 32.5t36 102.5q0 71 -40.5 104.5t-124.5 33.5z" />
<glyph unicode="9" horiz-adv-x="602" d="M65 448v83q0 86 63 130.5t170 44.5q108 0 171 -44.5t63 -130.5v-363q0 -86 -63.5 -133t-170.5 -47q-41 0 -76 4.5t-71.5 15.5t-58 34.5t-21.5 56.5q0 31 13 61q0 -57 61.5 -86.5t152.5 -29.5q175 0 175 139v95l3 77q-1 -3 -4 -8.5t-17 -20t-33 -25t-54.5 -19.5t-79.5 -9 q-101 0 -162 45t-61 130zM298 652q-91 0 -132.5 -32t-41.5 -104v-53q0 -71 40 -103.5t124 -32.5q185 0 185 128v61q0 72 -41.5 104t-133.5 32z" />
<glyph unicode=":" horiz-adv-x="221" d="M92 73h54q13 0 13 -15v-58h-54q-13 0 -13 16v57zM92 446h54q13 0 13 -15v-58h-54q-13 0 -13 16v57z" />
<glyph unicode=";" horiz-adv-x="221" d="M92 446h54q13 0 13 -15v-58h-54q-13 0 -13 16v57zM88 73h18h45q8 0 8 -10v-58q0 -115 -54 -115q-17 0 -34 10q39 7 29 92q-1 4 -1 6z" />
<glyph unicode="&#x3c;" horiz-adv-x="410" d="M122 248l203 -203q-17 -26 -36 -26q-16 0 -52 36l-148 148q-24 24 -24 44q0 21 25 46l199 199q29 -18 29 -38q0 -4 -2.5 -9t-8.5 -12t-9.5 -10.5l-13 -13l-11.5 -11.5z" />
<glyph unicode="=" horiz-adv-x="485" d="M104 218h304q4 -16 -1.5 -35t-26.5 -19h-303q-1 9 -1.5 21t7 22.5t21.5 10.5zM104 354h304q4 -16 -1.5 -35t-26.5 -19h-303q-1 9 -1.5 21t7 22.5t21.5 10.5z" />
<glyph unicode="&#x3e;" horiz-adv-x="410" d="M65 45l203 203l-151 150l-11.5 11.5l-13 13t-9.5 10.5t-8.5 12t-2.5 9q0 20 29 38l199 -199q25 -25 25 -46q0 -20 -24 -44l-148 -148q-36 -36 -52 -36q-19 0 -36 26z" />
<glyph unicode="?" horiz-adv-x="515" d="M247 649q-76 0 -117.5 -27t-41.5 -77q-14 31 -14 62q0 48 52.5 72.5t120.5 24.5q100 0 161.5 -43t61.5 -121v-25q0 -40 -17 -72t-42.5 -51l-55.5 -40l-55.5 -38.5t-42.5 -45.5t-17 -62v-48q-2 0 -5.5 0.5t-12 3t-15 6.5t-12 13.5t-5.5 22.5v22q0 42 23 75t55.5 55l65 44 t55.5 52.5t23 69.5q0 60 -41.5 93.5t-123.5 33.5zM186 66h49q11 0 11 -14v-52h-49q-11 0 -11 14v52z" />
<glyph unicode="@" horiz-adv-x="878" d="M242 128q0 47 23 79t57 45.5t75 24.5t77 17.5t62 21.5t30 38q0 97 -133 97q-80 0 -121.5 -30t-41.5 -80q-18 35 -18 64q0 48 52 74t129 26q89 0 138.5 -40.5t49.5 -113.5l1 -169q0 -10 -2 -21t-7.5 -29t-21 -32.5t-38.5 -21.5q16 39 16 78v129q-4 -19 -33 -31 t-67.5 -18.5t-77 -16t-65 -31.5t-26.5 -58q0 -44 52.5 -67t134.5 -23q60 0 104 8t81.5 27.5t56.5 57.5t19 94v175q0 88 -57.5 145.5t-177.5 57.5h-149q-119 0 -176.5 -57.5t-57.5 -145.5v-314q0 -80 39 -128t103 -48q12 0 24 2t18 4l5 2q-2 -22 -27 -34t-52 -12 q-72 0 -118.5 56t-46.5 145v340q0 104 78.5 172.5t211.5 68.5h149q132 0 210.5 -68.5t78.5 -172.5v-201q0 -226 -319 -226q-64 0 -116 12.5t-89 45t-37 82.5z" />
<glyph unicode="A" horiz-adv-x="602" d="M479 162l-20 70h-316l-20 -70l-7 -25.5t-7.5 -27t-8 -25t-10 -25t-10.5 -21t-13 -19.5t-15.5 -14t-19 -10t-22.5 -3q-7 0 -10 1q5 9 13 28t18.5 50.5l20 60.5l23.5 75l23 75.5l25 81.5l23 75q59 191 155 266q96 -75 155 -266l23 -75l25 -81.5l23 -75.5l23.5 -75l20 -60.5 t18.5 -50.5t13 -28q-3 -1 -10 -1q-12 0 -22.5 3t-19 10t-15.5 14t-13 19.5t-10.5 21t-10 25t-8 25t-7.5 27zM159 287h284l-38 126q-20 65 -46 118.5t-42 74.5l-16 21q-7 -8 -18 -23t-38.5 -70.5t-47.5 -120.5z" />
<glyph unicode="B" horiz-adv-x="577" d="M85 44v650h194q223 0 223 -164v-32q0 -52 -24.5 -90.5t-65.5 -55.5q45 -19 72.5 -59t27.5 -92v-32q0 -85 -62.5 -127t-170.5 -42h-123q-3 0 -7.5 0.5t-17 3t-22 6.5t-17 13t-7.5 21zM287 325h-144v-271h136q91 0 133 31.5t42 98.5t-41.5 104t-125.5 37zM279 639h-136 v-261h144q84 0 120.5 33.5t36.5 101.5q0 67 -40 96.5t-125 29.5z" />
<glyph unicode="C" horiz-adv-x="660" d="M344 650q-211 0 -211 -183v-239q0 -184 206 -184q33 0 65 3.5t76.5 14.5t71.5 38.5t26 67.5q15 -32 16 -59t-9.5 -45t-31.5 -32t-46 -22t-55.5 -13.5t-57 -7t-55.5 -1.5q-117 0 -190.5 54t-73.5 171v268q0 116 76 170.5t193 54.5q26 0 50.5 -1.5t55.5 -5.5t56 -11.5 t47 -20.5t33 -30.5t10 -44t-18 -58.5q0 34 -24.5 58.5t-63.5 36t-75 16.5t-71 5z" />
<glyph unicode="D" horiz-adv-x="686" d="M338 640h-195v-586h195q215 0 215 181v225q0 180 -215 180zM338 0h-183q-10 0 -22.5 1.5t-30 12.5t-17.5 30v650h253q56 0 102.5 -11t86 -35t62 -70t22.5 -109v-244q0 -63 -22.5 -109t-62 -70t-86 -35t-102.5 -11z" />
<glyph unicode="E" horiz-adv-x="551" d="M394 355h-251v-301h358q0 -7 -1 -16t-10 -23.5t-26 -14.5h-307q-8 0 -20 1t-32 12t-20 31v650h416v-5.5t-2 -13t-5.5 -16.5t-11.5 -13t-18 -6h-321v-231h245q59 0 73 14q0 -13 -4.5 -27t-20.5 -27.5t-42 -13.5z" />
<glyph unicode="F" horiz-adv-x="478" d="M143 409h205q59 0 73 14q0 -13 -4.5 -27t-20.5 -27.5t-42 -13.5h-211v-365q-6 0 -16 1t-26 12t-16 31v660h386v-5.5t-2 -13t-5.5 -16.5t-11.5 -13t-18 -6h-291v-231z" />
<glyph unicode="G" d="M75 213v268q0 116 76 170.5t193 54.5q25 0 49 -1.5t55 -6t55.5 -12t47 -20.5t34 -30.5t11 -44t-17.5 -58.5q0 34 -24.5 58.5t-63.5 36.5t-75 17t-71 5q-211 0 -211 -183v-239q0 -184 206 -184t206 179v71h-152q-40 0 -48 56l-1 8q24 -10 64 -10h194v-140q0 -60 -21 -104 t-58.5 -68.5t-83 -36t-100.5 -11.5q-117 0 -190.5 54t-73.5 171z" />
<glyph unicode="H" horiz-adv-x="690" d="M547 34v301h-404v-345q-6 0 -16 1t-26 12t-16 31v670q6 0 16 -1t26 -12t16 -31v-270h404v314q6 0 16 -1t26 -12t16 -31v-670q-6 0 -16 1t-26 12t-16 31z" />
<glyph unicode="I" horiz-adv-x="228" d="M85 34v670q6 0 16 -1t26 -12t16 -31v-670q-6 0 -16 1t-26 12t-16 31z" />
<glyph unicode="J" horiz-adv-x="218" d="M133 658v-704q0 -71 -22.5 -112t-62.5 -41q-22 0 -40 18q34 0 50.5 48.5t16.5 111.5v725q8 0 19 -2t25 -13.5t14 -30.5z" />
<glyph unicode="K" horiz-adv-x="574" d="M143 360v-370q-6 0 -16 1t-26 12t-16 31v670q6 0 16 -1t26 -12t16 -31v-260q58 2 101.5 18t80.5 50t65.5 75.5t64.5 108.5q29 54 82 54l13 -1q-10 -15 -32 -57.5t-44.5 -80t-53 -79t-71.5 -70.5t-86 -37q45 -5 88 -37.5t78 -84t61.5 -98.5t53 -100t36.5 -70 q-12 -3 -24 -3q-23 0 -40 13t-33 44l-12 23l-31.5 58.5l-29.5 53t-32.5 50.5l-34.5 41.5t-40.5 37t-44.5 26t-53.5 19t-61.5 6.5z" />
<glyph unicode="L" horiz-adv-x="484" d="M431 0h-274q-8 0 -20 1t-32 12t-20 31v660q6 0 16 -1t26 -12t16 -31v-606h262q26 0 44.5 2.5t23.5 5.5l5 2q0 -19 -13 -41.5t-34 -22.5z" />
<glyph unicode="M" horiz-adv-x="788" d="M645 34v520l5 84l-242 -491q-30 0 -57 44l-213 450q5 -46 5 -87v-564q-6 0 -16 1t-26 12t-16 31v660h49q4 0 11.5 -1.5t23.5 -13t26 -32.5l197 -420l225 467q3 0 9 -0.5t21 -3t26 -6.5t20.5 -13t9.5 -21v-660q-6 0 -16 1t-26 12t-16 31z" />
<glyph unicode="N" horiz-adv-x="691" d="M195 646l322 -521l39 -69q-8 49 -8 71v567q6 0 16 -1t26 -12t16 -31v-660q-37 0 -64.5 15.5t-37.5 30.5l-9 16l-360 579q8 -43 8 -83v-558q-6 0 -16 1t-26 12t-16 31v660q29 0 43.5 -1.5t33.5 -12.5t33 -34z" />
<glyph unicode="O" d="M602 490v-286q0 -104 -65.5 -160t-197.5 -56q-133 0 -198.5 56t-65.5 160v286q0 104 65.5 160t198.5 56q132 0 197.5 -56t65.5 -160zM544 217v260q0 87 -43 131t-163 44q-62 0 -103.5 -12.5t-63 -37t-30 -54t-8.5 -71.5v-260q0 -87 42.5 -131t162.5 -44t163 44t43 131z " />
<glyph unicode="P" horiz-adv-x="566" d="M249 640h-106v-343h106q101 0 153 36t52 136q0 93 -53.5 132t-151.5 39zM85 34v660h164q45 0 81.5 -5.5t71 -20.5t58.5 -38.5t38 -62t14 -89.5v-18q0 -217 -263 -217h-106v-253q-6 0 -16 1t-26 12t-16 31z" />
<glyph unicode="Q" d="M602 490v-286q0 -207 -240 -216v-33q0 -60 51.5 -94t121.5 -34q25 0 51.5 6t52.5 19t40.5 37.5t11.5 57.5q39 -78 -11.5 -127t-145.5 -49q-89 0 -157 45t-68 124v49q-234 10 -234 215v286q0 104 65.5 160t198.5 56q132 0 197.5 -56t65.5 -160zM544 217v260 q0 89 -42.5 132t-163.5 43q-120 0 -162.5 -43t-42.5 -132v-260q0 -90 42.5 -132.5t162.5 -42.5q121 0 163.5 42.5t42.5 132.5z" />
<glyph unicode="R" horiz-adv-x="547" d="M502 530v-30q0 -87 -58.5 -130t-155.5 -39q50 -16 95 -64.5t69.5 -96t51 -105t36.5 -73.5q-36 -5 -54.5 4.5t-38.5 48.5q-68 132 -94 169q-61 86 -155 108q-25 6 -55 8v-340q-2 0 -6 0.5t-14 3t-17.5 6.5t-14 13t-6.5 21v660h194q223 0 223 -164zM279 640h-136v-261h144 q84 0 120.5 34t36.5 102q0 65 -40.5 95t-124.5 30z" />
<glyph unicode="S" horiz-adv-x="619" d="M55 512q0 104 72 149.5t187 45.5q43 0 80.5 -5.5t72.5 -17.5t55 -35.5t20 -56.5q0 -30 -18 -72q0 131 -217 131q-192 0 -192 -134q0 -41 25 -66.5t64.5 -36.5t87 -18.5t95.5 -18t87.5 -28.5t64.5 -57.5t25 -97.5q0 -102 -69 -154t-185 -52q-58 0 -109.5 10.5t-91 38.5 t-39.5 68q0 32 16 73q0 -70 66 -102t164 -32q93 0 140.5 39t47.5 108q0 52 -33.5 84t-83 42l-108 22t-108 25t-83 50.5t-33.5 97.5z" />
<glyph unicode="T" horiz-adv-x="531" d="M472 640h-179v-650q-6 0 -16 1t-26 12t-16 31v606h-175q-33 0 -45.5 22.5t-12.5 45.5q10 -14 74 -14h380q64 0 73 14q0 -14 -3.5 -27t-17 -27t-36.5 -14z" />
<glyph unicode="U" d="M602 661v-464q0 -98 -76 -153.5t-187 -55.5q-112 0 -188 55.5t-76 153.5v508q6 0 16 -1t26 -12t16 -31v-452q0 -77 56.5 -121t149.5 -44q92 0 148.5 44t56.5 121v496q6 0 16 -1t26 -12t16 -31z" />
<glyph unicode="V" horiz-adv-x="622" d="M476 267q-51 -169 -150 -267l-15 -14q-4 4 -12 11t-29.5 32.5t-41 55.5t-43 79t-39.5 103q-117 393 -141 432h11q15 0 27.5 -5t22.5 -16t17 -21t14.5 -29.5t11 -31l10 -34.5t9.5 -32l78 -251q46 -148 102 -205l3 -3q7 7 17.5 21t38.5 68t48 119l78 251l9.5 32t11 35 l11 30.5t14.5 29.5l17 21t22.5 16.5t27.5 4.5h10q-8 -13 -20 -45t-27.5 -81.5l-29.5 -95.5l-33 -109.5zM5 700v-1v1zM617 700l-1 -1z" />
<glyph unicode="W" horiz-adv-x="940" d="M311 -14q-4 2 -10.5 6.5t-25.5 24t-37.5 46t-42.5 77t-43 112.5l-81 258q-52 166 -66 189l8 -1h3q15 0 27.5 -5t23 -16.5t17.5 -21t14 -29l11 -30.5t10.5 -35t9.5 -32l79 -251q23 -72 48.5 -125t39.5 -70l15 -17q6 5 17 17.5t45.5 75.5t69.5 154q-41 162 -41 295 q0 43 12 62.5t53 19.5q-4 -56 -4 -84q0 -263 124 -477q24 -41 42 -63q6 6 16 18.5t37 67t51 126.5l78 251q3 9 11.5 37.5t12.5 40.5t14 33.5t19 31t23.5 18t32.5 8.5l11 1v0q-15 -25 -66 -189l-81 -258q-19 -62 -42.5 -112.5t-43.5 -77.5t-37 -45.5t-27 -24.5l-9 -6 q-4 3 -10 9.5t-25.5 29.5t-37.5 50t-42 72t-43 94q-17 -48 -39.5 -92t-42.5 -72.5t-38 -50t-29 -30.5z" />
<glyph unicode="X" horiz-adv-x="525" d="M525 698q-10 -15 -45.5 -89t-80 -148t-90.5 -117q46 -46 90 -120.5t79.5 -146.5t44.5 -87q-60 -3 -90 53l-42 79.5t-43.5 80t-36.5 54t-48 53.5q-19 -17 -35.5 -37t-35.5 -50.5l-30 -49.5t-35.5 -65l-34.5 -65q-11 -19 -22.5 -31t-24.5 -16.5t-21.5 -5t-21.5 -0.5 q9 15 44 87t79.5 146.5t90.5 120.5q-46 43 -90.5 117t-79.5 148t-45 89q0 1 13 1q48 0 77 -54l26 -49.5l27 -51l25 -43.5t29 -46t29.5 -38t35.5 -37q21 20 38.5 41t38.5 55l29.5 48t34.5 63l31 58q29 54 77 54z" />
<glyph unicode="Y" horiz-adv-x="528" d="M293 303h1v-313q-7 0 -16.5 1t-26 12.5t-16.5 31.5v268q-50 42 -99 127.5t-87 170.5t-47 98q0 1 13 1q45 0 76 -54q7 -11 36 -74.5t64 -123.5t73 -96q38 36 73 96t64 123.5t36 74.5q31 54 76 54l13 -1q-9 -13 -47 -98t-87 -170.5t-99 -127.5z" />
<glyph unicode="Z" horiz-adv-x="548" d="M466 0h-433q0 72 37 140.5t92 125l112 112t105 124t62 138.5h-383q0 6 1 15t10.5 24t26.5 15h407q-1 -70 -28.5 -136.5t-68.5 -116t-90.5 -102l-93.5 -95t-78.5 -93t-43.5 -97.5h345q26 0 44.5 3t23.5 6l5 3q0 -23 -12 -44.5t-40 -21.5z" />
<glyph unicode="[" horiz-adv-x="260" d="M85 -24v718h150q0 -5 -1 -13.5t-10.5 -22t-26.5 -13.5h-54v-663h54q16 0 25.5 -12.5t11 -21.5t1.5 -15h-81q-3 0 -7.5 0.5t-16.5 2.5t-21 6t-16.5 13t-7.5 21z" />
<glyph unicode="\" horiz-adv-x="298" d="M269 -206l-276 947q15 3 23 3q31 0 39 -25l274 -947q-15 -3 -22 -3q-31 0 -38 25z" />
<glyph unicode="]" horiz-adv-x="259" d="M174 694v-718q0 -19 -17 -30t-35 -12l-17 -1h-80q0 49 37 49h54v663h-54q-33 4 -37 49h149z" />
<glyph unicode="^" horiz-adv-x="546" d="M482 436l-203 203l-150 -151l-11.5 -11.5l-13 -13t-10.5 -9.5t-12 -8.5t-9 -2.5q-20 0 -38 28l199 200q25 25 46 25q20 -2 44 -24l148 -148l8 -8l8 -8l7.5 -7.5t6.5 -8.5t4 -9t2 -10q0 -8 -7 -19t-19 -18z" />
<glyph unicode="_" horiz-adv-x="520" d="M29 -8h488q1 -9 1 -21t-6 -22.5t-18 -10.5h-491q-5 18 1 36t25 18z" />
<glyph unicode="`" horiz-adv-x="489" d="M195 750q-10 -40 34 -84l69 -65q14 -16 2.5 -26.5t-34.5 -13.5l-48 38q-50 40 -65 67.5t-4 45t46 38.5z" />
<glyph unicode="a" horiz-adv-x="497" d="M54 130q0 52 29.5 84.5t73 46t88.5 22.5t81.5 25.5t45.5 43.5q0 48 -27.5 74t-98.5 26q-72 0 -113 -28.5t-41 -76.5q-21 28 -21 60q0 44 48 71.5t127 27.5q91 0 136 -41t45 -116v-354q-26 10 -61 10q-14 0 -57.5 -8.5t-65.5 -8.5q-91 0 -140 39t-49 103zM111 129 q0 -41 34.5 -65.5t105.5 -24.5q33 0 63 6.5t44 12.5l14 7v222q-6 -23 -49 -36t-89.5 -20t-84.5 -32.5t-38 -69.5z" />
<glyph unicode="b" horiz-adv-x="516" d="M451 354v-214q0 -72 -56.5 -112t-136.5 -40q-36 0 -99.5 16.5t-83.5 19.5v716q55 0 55 -53v-139l-11 -105q2 3 5.5 7t17 15t31 19t49 15t67.5 7q68 0 115 -41.5t47 -110.5zM252 40q80 0 112 30t32 85v184q0 59 -32.5 87t-87.5 28q-57 0 -101.5 -30t-44.5 -75v-280 q58 -29 122 -29z" />
<glyph unicode="c" horiz-adv-x="493" d="M424 152q25 -36 25 -63q0 -49 -55 -75t-130 -26q-91 0 -145 41t-54 114v208q0 73 50 114t139 41q78 0 125.5 -27t47.5 -72q0 -31 -22 -60q0 48 -40.5 76.5t-112.5 28.5q-132 0 -132 -112v-187q0 -51 36.5 -81t107.5 -30t115.5 28t44.5 82z" />
<glyph unicode="d" horiz-adv-x="516" d="M386 548v192q55 0 55 -53v-692q-26 10 -53 10q-19 0 -67 -8.5t-74 -8.5q-85 0 -133.5 41t-48.5 111v214q0 69 47 110t116 41q39 0 71 -6.5t49.5 -15.5t29 -18t15.5 -15l4 -7q-11 19 -11 105zM386 64v285q0 45 -44 74.5t-101 29.5q-55 0 -88 -28.5t-33 -85.5v-184 q0 -60 32.5 -87.5t112.5 -27.5q33 0 63 6t44 12z" />
<glyph unicode="e" horiz-adv-x="497" d="M419 152q23 -32 23 -64q0 -48 -56.5 -74t-131.5 -26q-87 0 -138 41t-51 114v208q0 73 47.5 114t136.5 41q88 0 138 -39.5t50 -105.5q0 -64 -47 -102t-146 -38q-65 0 -124 26v-89q0 -59 30 -87.5t104 -28.5q72 0 118.5 28.5t46.5 81.5zM120 336v-38l22 -8q56 -15 97 -15 q143 0 143 86q0 93 -131 93q-75 0 -103 -29t-28 -89z" />
<glyph unicode="f" horiz-adv-x="319" d="M75 37v582q0 69 61 112t141 43q58 0 105 -25.5t47 -67.5q0 -22 -25 -52q0 38 -36.5 64.5t-93.5 26.5q-61 0 -102.5 -29.5t-41.5 -82.5v-126h194q0 -6 -1 -15t-10.5 -24t-25.5 -15h-157v-435q-6 0 -15 1t-24.5 12t-15.5 31z" />
<glyph unicode="g" horiz-adv-x="482" d="M427 500v-196q0 -74 -47 -114.5t-136 -40.5q-101 2 -134 35q-10 -35 -10 -58q0 -45 26 -58t101 -13h33q33 0 54.5 -1.5t49.5 -8.5t44.5 -19.5t28 -37t11.5 -59.5q0 -79 -50 -125t-151 -46q-82 0 -140 26t-58 73q0 34 23 66q0 -111 175 -111q83 0 113.5 32.5t30.5 89.5 q0 23 -9.5 37t-30.5 20t-41 8t-53 2h-49q-38 0 -63 3t-50.5 13.5t-38 33t-12.5 58.5q0 30 10 50.5t34 49.5q-28 37 -28 95v60q0 72 48.5 106.5t122.5 34.5q26 0 75.5 -9t64.5 -9q30 0 56 13zM244 201q73 0 100.5 29t27.5 89v108q-52 26 -132 26q-71 0 -98 -24.5t-27 -79.5 v-30q0 -60 28 -89t101 -29z" />
<glyph unicode="h" horiz-adv-x="526" d="M130 349v-356q-6 0 -15 1t-24.5 12t-15.5 31v704q8 0 17 -1.5t23.5 -14.5t14.5 -38v-139l-11 -105q2 3 5 7t17 15t31.5 19t48.5 15t68 7q68 0 115 -42t47 -110v-361q-2 0 -6 0.5t-13.5 3t-16.5 6.5t-13 13t-6 21v302q0 59 -32.5 87t-87.5 28q-57 0 -101.5 -30t-44.5 -75z " />
<glyph unicode="i" horiz-adv-x="205" d="M75 37v464q8 0 18 -1.5t23.5 -12.5t13.5 -30v-464q-6 0 -15 1t-24.5 12t-15.5 31zM71 619v56h52q11 0 11 -14v-55h-52q-11 0 -11 13z" />
<glyph unicode="j" horiz-adv-x="205" d="M130 457v-560q0 -57 -22.5 -96.5t-58.5 -39.5q-18 0 -36 16q31 0 46.5 47.5t15.5 104.5v572q6 0 15 -1t24.5 -12t15.5 -31zM71 619v56h52q11 0 11 -14v-55h-52q-11 0 -11 13z" />
<glyph unicode="k" horiz-adv-x="460" d="M222 290q51 -9 91 -38t63 -67t38 -74.5t27 -70t19 -43.5q-17 -4 -26 -4q-23 0 -38.5 19t-24 47.5t-25 62.5t-38.5 63.5t-68 51t-110 24.5v-268q-6 0 -15 1t-24.5 12t-15.5 31v706q6 0 15 -1t24.5 -12t15.5 -31v-388h14q69 0 108.5 34t85.5 118q7 13 11 18t21 12.5t44 7.5 l10 -1q-5 -8 -23.5 -41t-34 -57t-38.5 -52t-50 -44t-56 -16z" />
<glyph unicode="l" horiz-adv-x="205" d="M70 135v608q5 0 11 -1t17.5 -4.5t19 -13.5t7.5 -25v-538q0 -64 15.5 -106.5t49.5 -42.5q-13 -19 -39 -19q-40 0 -60.5 39t-20.5 103z" />
<glyph unicode="m" horiz-adv-x="847" d="M396 36v311q0 56 -32 80.5t-101 24.5q-37 0 -70.5 -6t-48.5 -12l-14 -6v-435q-2 0 -6 0.5t-13.5 2.5t-16.5 6t-13 13t-6 21v462q25 -14 45 -14q25 0 76 11t81 11q102 0 144 -53l5 -7q64 59 174 59q69 0 120.5 -36t51.5 -108v-368q-2 0 -6 0.5t-13.5 3t-16.5 6.5t-13 12.5 t-6 20.5v314q0 53 -32.5 77t-101.5 24q-51 0 -91.5 -24t-40.5 -63v-371q-2 0 -6 0.5t-13.5 2.5t-16.5 6t-13 13t-6 21z" />
<glyph unicode="n" horiz-adv-x="526" d="M396 37v310q0 52 -31 78.5t-102 26.5q-37 0 -70.5 -6t-48.5 -12l-14 -6v-435q-6 0 -15 1t-24.5 12t-15.5 31v461q28 -14 45 -14q24 0 74 11t83 11q74 0 124 -33t50 -111v-369q-6 0 -15 1t-24.5 12t-15.5 31z" />
<glyph unicode="o" horiz-adv-x="537" d="M472 351v-208q0 -155 -203 -155q-204 0 -204 155v208q0 74 51 114.5t153 40.5t152.5 -40.5t50.5 -114.5zM417 158v178q0 61 -30.5 89.5t-117.5 28.5t-118 -28.5t-31 -89.5v-178q0 -61 30.5 -90t118.5 -29q87 0 117.5 29t30.5 90z" />
<glyph unicode="p" horiz-adv-x="516" d="M130 -56v-125v-66q-55 0 -55 53v692q25 -12 50 -12q12 0 53.5 10t76.5 10q97 0 146.5 -40t49.5 -113v-214q0 -73 -51 -112t-122 -39q-34 0 -63.5 6.5t-47 15.5t-29 18.5t-16.5 15.5t-3 6q11 -19 11 -106zM130 429v-285q0 -45 44.5 -75t101.5 -30q54 0 87 29t33 86v184 q0 61 -31.5 88.5t-112.5 27.5q-31 0 -61.5 -6t-45.5 -12z" />
<glyph unicode="q" horiz-adv-x="516" d="M386 -194v138q0 39 3 65.5t5 33.5l3 7q2 0 -3 -6.5t-17 -15.5t-30.5 -18t-48 -15.5t-63.5 -6.5q-71 0 -120.5 39.5t-49.5 111.5v214q0 73 49.5 113t146.5 40q35 0 76.5 -10t53.5 -10q25 0 50 12v-745q-55 0 -55 53zM386 144v285q-52 25 -122 25q-81 0 -112.5 -27.5 t-31.5 -88.5v-184q0 -57 33 -86t87 -29q57 0 101.5 30t44.5 75z" />
<glyph unicode="r" horiz-adv-x="361" d="M342 385q-3 62 -99 62q-74 0 -113 -21v-433q-6 0 -15 1t-24.5 12t-15.5 31v461q28 -14 48 -14q19 0 67 11t75 11q62 0 83 -32.5t-6 -88.5z" />
<glyph unicode="s" horiz-adv-x="467" d="M367 140q0 44 -32.5 63t-79.5 23t-94 9.5t-81 34t-35 84.5q0 152 184 152q75 0 125 -23t50 -73q0 -30 -24 -74q1 5 1 16q0 102 -152 102q-70 0 -99.5 -24t-29.5 -71q0 -29 18 -45.5t46 -22t62.5 -8t69 -8.5t62.5 -19t46 -43.5t18 -77.5q0 -67 -50 -107t-143 -40 q-49 0 -87 8t-66.5 31.5t-28.5 61.5q0 26 15 62q0 -50 41.5 -80.5t125.5 -30.5q138 0 138 100z" />
<glyph unicode="t" horiz-adv-x="400" d="M75 138v487q2 0 6 -0.5t13.5 -3t16.5 -6.5t13 -13t6 -21v-99h209q0 -6 -1 -15t-10.5 -24t-25.5 -15h-172v-265q0 -57 31 -89t90 -32q50 0 85.5 28.5t35.5 73.5q18 -33 18 -60q0 -46 -41 -71t-99 -25q-75 0 -125 39.5t-50 110.5z" />
<glyph unicode="u" horiz-adv-x="526" d="M130 457v-305q0 -22 4 -38.5t16.5 -35t41.5 -29t72 -10.5q37 0 70 6.5t48 12.5l14 6v437q6 0 15 -1t24.5 -12t15.5 -31v-462q-23 10 -54 10q-17 0 -64.5 -8.5t-72.5 -8.5q-46 0 -85 11.5t-69.5 45.5t-30.5 87v369q2 0 6 -0.5t13.5 -3t16.5 -6.5t13 -13t6 -21z" />
<glyph unicode="v" horiz-adv-x="474" d="M439 501l-19 -194q-6 -64 -27 -120.5t-47 -92t-51 -62t-41 -37.5l-17 -11q-6 4 -17 12t-39.5 36.5t-52 62.5t-45.5 91t-28 121l-20 194q6 0 15 -1t25 -12.5t18 -31.5l20 -173q4 -38 18.5 -77t32 -66.5t34.5 -50t28 -33.5l11 -11l11.5 11.5t27.5 32t35.5 50.5t31 65.5 t19.5 78.5l20 173q2 20 16.5 31t27.5 13z" />
<glyph unicode="w" horiz-adv-x="766" d="M527 45q4 4 12 11t27.5 30.5t35.5 49t31.5 66t20.5 81.5l20 173q2 20 16.5 31t27.5 13l13 1l-19 -194q-6 -64 -27 -120.5t-47 -92t-51 -62t-41 -37.5l-17 -11q-10 6 -27 17.5t-57 52.5t-64 87q-20 -40 -56 -79t-62 -58l-26 -20q-6 4 -17 12t-39.5 36.5t-52 62.5t-45.5 91 t-28 121l-20 194q6 0 15 -1t25 -12.5t18 -31.5l20 -173q14 -117 112 -222l15 -16q3 3 9 8t22.5 21t31 33t30.5 42.5t26 50.5q-20 69 -20 168q0 127 71 129q-15 -73 -15 -148q0 -96 32 -177.5t100 -126.5z" />
<glyph unicode="x" horiz-adv-x="423" d="M318 38l-106 174l-106 -174q-27 -45 -77 -45l-13 1q2 4 14.5 24t18.5 31l70 118q11 18 25 38.5t23 31.5l9 11q-30 33 -57 79l-67 113l-22 35.5t-14 23.5q3 2 13 2q46 0 75 -46l108 -173l108 173q29 46 75 46l13 -2q-1 -3 -14 -23.5l-22 -35.5l-67 -113q-12 -20 -26.5 -40 t-22.5 -29l-8 -10q33 -40 57 -81l70 -118q6 -11 18.5 -31t14.5 -24q-3 -1 -13 -1q-50 0 -77 45z" />
<glyph unicode="y" horiz-adv-x="484" d="M248 79q5 3 12.5 9.5t27.5 27.5t36 43t30.5 56t18.5 67l18 169q2 19 13.5 30t20 13.5t24.5 4.5l-19 -193q-15 -162 -143 -260l-39 -30l-41.5 -32.5t-31.5 -28t-28 -32.5t-14 -33.5t-7 -43.5q0 -35 23 -89q-8 -2 -15 -2q-26 0 -45.5 21t-19.5 74q0 104 142 199 q-47 29 -92 96t-54 161l-20 194q6 0 15 -1t25 -12t18 -31l20 -174q4 -35 18.5 -68.5t32 -57t34.5 -41.5t28 -27z" />
<glyph unicode="z" horiz-adv-x="430" d="M323 442h-273q0 6 1 14.5t10.5 23t26.5 14.5h304q-3 -10 -6.5 -32.5t-6.5 -32.5q-18 -57 -64.5 -117.5t-91 -102t-81.5 -85.5t-41 -73h299v-5.5t-2 -12.5t-5.5 -15.5t-11.5 -12t-18 -5.5h-325v22q0 44 23.5 86.5t60.5 79.5l75.5 74t74 84.5t51.5 95.5z" />
<glyph unicode="{" horiz-adv-x="238" d="M94 272q5 -4 13 -11t21 -32t13 -52v-239q0 -105 72 -105q-29 -20 -58 -20.5t-50.5 26t-21.5 70.5v256q0 24 -6 43.5t-13.5 30.5t-17 19t-14 10.5t-7.5 3.5q4 1 8.5 3.5t14 11t16.5 19.5t13 30.5t6 42.5v256q0 44 21.5 70.5t50.5 26t58 -20.5q-72 0 -72 -105v-239 q0 -57 -45 -93z" />
<glyph unicode="|" horiz-adv-x="225" d="M85 -198v942q6 0 15 -1t24.5 -12t15.5 -31v-942q-6 0 -15 1t-24.5 12t-15.5 31z" />
<glyph unicode="}" horiz-adv-x="238" d="M144 272q-5 4 -13 11t-21 32t-13 52v239q0 105 -72 105q29 20 58 20.5t50.5 -26t21.5 -70.5v-256q0 -23 6 -42.5t13 -30.5t16.5 -19.5t14 -11t8.5 -3.5q-3 -1 -7.5 -3.5t-14 -10.5t-17 -19t-13.5 -30.5t-6 -43.5v-256q0 -44 -21.5 -70.5t-50.5 -26t-58 20.5q72 0 72 105 v239q0 57 45 93z" />
<glyph unicode="~" horiz-adv-x="624" d="M48 318q-3 14 -3 22q0 56 81 56q36 0 186 -26t190 -26q20 0 38.5 6t27.5 12l8 5q3 -14 3 -24q0 -22 -18.5 -38t-63.5 -16q-37 0 -186.5 26t-188.5 26q-24 0 -42.5 -5.5t-25.5 -11.5z" />
<glyph unicode="&#xa1;" horiz-adv-x="249" d="M116 33v496q4 0 10.5 -1t18 -4.5t19 -13.5t7.5 -24v-496q-2 0 -6 0.5t-13.5 2.5t-16.5 6t-13 13t-6 21zM174 627h-49q-11 0 -11 14v52h49q11 0 11 -14v-52z" />
<glyph unicode="&#xa2;" horiz-adv-x="503" d="M228 -17v7q-77 7 -120 47t-43 106v208q0 69 42 109.5t121 44.5v51q6 0 15 -1t24.5 -12t15.5 -31v-8q65 -5 104.5 -31.5t39.5 -65.5q0 -31 -22 -60q0 41 -32.5 68.5t-89.5 34.5v-407q63 5 102 32.5t39 76.5q25 -36 25 -63q0 -45 -48.5 -70.5t-117.5 -29.5v-50q-6 0 -15 1 t-24.5 12t-15.5 31zM120 153q0 -98 108 -110v408q-63 -4 -85.5 -32.5t-22.5 -78.5v-187z" />
<glyph unicode="&#xa3;" horiz-adv-x="600" d="M443 608q-3 82 -153 82q-65 0 -100.5 -30t-35.5 -86v-133h186q0 -6 -1 -15t-10.5 -24t-25.5 -15h-149v-258l-6 -72q99 -33 217 -33q29 0 50.5 3.5t46.5 14.5t42 36.5t24 64.5q19 -38 19 -70q0 -53 -49.5 -80.5t-127.5 -27.5q-55 0 -111 10t-108.5 25t-65.5 18 q11 46 11 83v488q0 71 54.5 113t139.5 42q76 0 123 -20t47 -58q0 -30 -17 -58z" />
<glyph unicode="&#xa5;" horiz-adv-x="600" d="M158 327h85q-44 48 -88 128.5t-77.5 155t-42.5 88.5q0 1 13 1q45 0 76 -54q7 -11 36 -74.5t64 -123.5t73 -96q38 36 73 96t64 123.5t36 74.5q31 54 76 54l13 -1q-10 -15 -43 -88.5t-77 -154.5t-88 -129h111q4 -16 -1.5 -35t-26.5 -19h-107v-96h135q4 -16 -1.5 -35 t-26.5 -19h-107v-133q-7 0 -16.5 1t-26 12.5t-16.5 31.5v88h-137q-1 9 -1.5 21t7 22.5t21.5 10.5h110v96h-137q-1 9 -1.5 21t7 22.5t21.5 10.5z" />
<glyph unicode="&#xa6;" horiz-adv-x="225" d="M85 377v367q2 0 6 -0.5t13.5 -2.5t16.5 -6t13 -13t6 -21v-368q-6 0 -15 1t-24.5 12t-15.5 31zM85 -198v367q6 0 15 -1t24.5 -12t15.5 -31v-367q-6 0 -15 1t-24.5 12t-15.5 31z" />
<glyph unicode="&#xa7;" horiz-adv-x="595" d="M515 624q0 -28 -9 -51q-33 115 -203 115q-58 0 -94.5 -10t-53 -31.5t-21.5 -43t-5 -54.5q0 -47 28.5 -75t71 -36.5t92 -20.5t92 -26t71 -54t28.5 -103q0 -41 -33 -96q2 16 2 32q0 62 -22.5 101t-59 55.5t-80 26l-87 19t-80 26.5t-59 56t-22.5 101q0 189 232 189 q212 0 212 -120zM84 -110q0 28 9 51q33 -115 203 -115q58 0 94.5 10t53 31.5t21.5 43t5 54.5q0 47 -28.5 75t-71 36.5t-92 20.5t-92 26t-71 54t-28.5 103q0 41 33 96q-2 -16 -2 -32q0 -62 22.5 -101t59 -55.5t80 -26l87 -19t80 -26.5t59 -56t22.5 -101q0 -189 -232 -189 q-212 0 -212 120z" />
<glyph unicode="&#xa8;" horiz-adv-x="489" d="M174 619v56h52q11 0 11 -14v-55h-52q-11 0 -11 13zM307 619v56h52q11 0 11 -14v-55h-52q-11 0 -11 13z" />
<glyph unicode="&#xa9;" horiz-adv-x="799" d="M672 256v182q0 51 -11.5 88t-41 66.5t-84.5 44.5t-137 15q-155 0 -212.5 -54t-57.5 -160v-182q0 -107 57.5 -161.5t212.5 -54.5q82 0 137 15t84.5 45t41 67t11.5 89zM75 213v268q0 104 87.5 163.5t237.5 59.5q149 0 236.5 -59.5t87.5 -163.5v-268q0 -104 -87.5 -163.5 t-236.5 -59.5q-150 0 -237.5 59.5t-87.5 163.5zM556 287q24 -35 24 -59q0 -46 -53.5 -70.5t-124.5 -24.5q-85 0 -133.5 38t-48.5 107v140q0 69 44.5 107t127.5 38q74 0 120.5 -25.5t46.5 -67.5q0 -29 -21 -56q0 44 -40 71t-108 27q-69 0 -93.5 -26.5t-24.5 -77.5v-120 q0 -104 130 -104q67 0 110.5 26.5t43.5 76.5z" />
<glyph unicode="&#xaa;" horiz-adv-x="447" d="M318 376v152q-13 -13 -45.5 -23.5t-62 -17t-53 -23t-23.5 -42.5q0 -63 93 -63q23 0 45.5 4.5t33.5 8.5zM77 421q0 37 20.5 60.5t51.5 35t63.5 19.5t62 21t41.5 32q-2 68 -90 68q-110 0 -119 -73q-17 26 -17 46q0 35 39.5 54.5t96.5 19.5q71 0 109 -31t38 -87v-267 q-24 5 -52 5q-19 0 -52.5 -5t-51.5 -5q-58 0 -99 26t-41 81z" />
<glyph unicode="&#xab;" horiz-adv-x="599" d="M311 248l203 -203q-17 -26 -36 -26q-16 0 -52 36l-148 148q-24 24 -24 44q0 21 25 46l199 199q29 -18 29 -38q0 -4 -2.5 -9t-8.5 -12t-9.5 -10.5l-13 -13l-11.5 -11.5zM122 248l203 -203q-17 -26 -36 -26q-16 0 -52 36l-148 148q-24 24 -24 44q0 21 25 46l199 199 q29 -18 29 -38q0 -4 -2.5 -9t-8.5 -12t-9.5 -10.5l-13 -13l-11.5 -11.5z" />
<glyph unicode="&#xac;" horiz-adv-x="638" d="M498 43v283l-435 1q-26 0 -26 36l2 17h455q34 0 46.5 -14t12.5 -47v-246q0 -32 -36 -32z" />
<glyph unicode="&#xad;" horiz-adv-x="485" d="M104 284h304q4 -16 -1.5 -35t-26.5 -19h-303q-1 9 -1.5 21t7 22.5t21.5 10.5z" />
<glyph unicode="&#xae;" horiz-adv-x="500" d="M160 389v230h72q105 0 105 -81q0 -28 -14 -49t-39 -27q46 -26 61 -94q-21 -5 -31 -5q-18 0 -28 18q-18 59 -76 67v-86q-50 3 -50 27zM232 580h-22v-93h22q54 0 54 48q0 27 -13 36t-41 9zM402 430v118q0 56 -34.5 86.5t-120.5 30.5q-83 0 -116.5 -30.5t-33.5 -86.5v-118 q0 -56 33.5 -85.5t116.5 -29.5q86 0 120.5 29.5t34.5 85.5zM51 414v153q0 64 54 100.5t145 36.5t145 -36.5t54 -100.5v-153q0 -64 -54 -101t-145 -37t-145 37t-54 101z" />
<glyph unicode="&#xaf;" horiz-adv-x="370" d="M77 655h241q8 -51 -25 -51h-240q-6 14 0 32.5t24 18.5z" />
<glyph unicode="&#xb0;" horiz-adv-x="369" d="M314 665v-106q0 -41 -35 -62.5t-95 -21.5t-94.5 22t-34.5 62v106q0 39 35 62t94 23t94.5 -23t35.5 -62zM265 582v61q0 28 -20 45.5t-61 17.5q-80 0 -80 -63v-61q0 -63 80 -63q81 0 81 63z" />
<glyph unicode="&#xb1;" horiz-adv-x="485" d="M214 177v102h-136q-7 13 -1 34t25 21h112v135q22 3 37 -5t15 -25v-105h138q9 -55 -25 -55h-113v-132q-18 -3 -35 5t-17 25zM105 88h303q4 -16 -1.5 -35t-26.5 -19h-302q-1 9 -1.5 21t7 22.5t21.5 10.5z" />
<glyph unicode="&#xb2;" horiz-adv-x="385" d="M65 348v47q0 24 8 42.5t27 32.5t31.5 21t38.5 20q24 11 33.5 16.5t25.5 16.5t22 23.5t6 28.5v8q0 60 -69 60q-91 0 -102 -59q-16 20 -16 38q0 32 35 47.5t83 15.5q55 0 89.5 -25.5t34.5 -67.5v-20q0 -25 -8 -44t-27 -33t-32 -21t-39 -19q-31 -14 -44.5 -21t-28.5 -24.5 t-15 -39.5h153q35 0 47 5q0 -5 -1 -13t-9 -21.5t-21 -13.5h-222z" />
<glyph unicode="&#xb3;" horiz-adv-x="383" d="M317 452v-15q0 -42 -35.5 -68.5t-93.5 -26.5q-50 0 -86.5 16.5t-36.5 48.5q0 19 14 37q15 -58 109 -58q74 0 74 59q0 57 -54 63q-7 1 -11.5 2.5t-10 10t-5.5 23.5v4h11q36 1 50.5 14.5t14.5 42.5q0 58 -69 58q-88 0 -104 -59q-14 18 -14 38q0 30 35.5 47t82.5 17 q55 0 89.5 -25.5t34.5 -67.5v-13q0 -50 -43 -72q48 -20 48 -76z" />
<glyph unicode="&#xb4;" horiz-adv-x="489" d="M266 750q35 -21 46 -38.5t-4 -45t-65 -67.5l-48 -38q-23 3 -34.5 13.5t2.5 26.5l69 65q44 44 34 84z" />
<glyph unicode="&#xb5;" horiz-adv-x="526" d="M130 457v-305q0 -22 4 -38.5t16.5 -35t41.5 -29t72 -10.5q37 0 70 6.5t48 12.5l14 6v437q6 0 15 -1t24.5 -12t15.5 -31v-462q-23 10 -54 10q-17 0 -64.5 -8.5t-72.5 -8.5q-83 0 -134 36q6 -32 6 -64v-208q-2 0 -6 0.5t-14 2.5t-17.5 6t-13.5 13t-6 21v706q2 0 6 -0.5 t13.5 -3t16.5 -6.5t13 -13t6 -21z" />
<glyph unicode="&#x3bc;" horiz-adv-x="526" d="M130 457v-305q0 -22 4 -38.5t16.5 -35t41.5 -29t72 -10.5q37 0 70 6.5t48 12.5l14 6v437q6 0 15 -1t24.5 -12t15.5 -31v-462q-23 10 -54 10q-17 0 -64.5 -8.5t-72.5 -8.5q-83 0 -134 36q6 -32 6 -64v-208q-2 0 -6 0.5t-14 2.5t-17.5 6t-13.5 13t-6 21v706q2 0 6 -0.5 t13.5 -3t16.5 -6.5t13 -13t6 -21z" />
<glyph unicode="&#xb6;" horiz-adv-x="576" d="M440 640h-76q4 -19 4 -57v-690q0 -55 -18.5 -95t-52.5 -40q-31 0 -51 16q32 0 49.5 47.5t17.5 103.5v226l4 50q-38 -16 -87 -16q-65 0 -110.5 42.5t-45.5 109.5v200q0 74 47 115t136 41h147q58 0 104.5 17t46.5 53q16 -21 16 -46q0 -36 -40.5 -56.5t-90.5 -20.5zM474 526 v-607q0 -34 -2 -54t-10 -41.5t-26 -31t-47 -10.5q3 1 8 7t13.5 44t8.5 99v666q2 -1 6 -2t13.5 -7t16.5 -13.5t13 -20.5t6 -29z" />
<glyph unicode="&#xb7;" horiz-adv-x="193" d="M64 309h54q13 0 13 -15v-58h-54q-13 0 -13 16v57z" />
<glyph unicode="&#xb8;" horiz-adv-x="833" d="M242 -111q0 3 3 15l32 113q9 0 23.5 -9.5t11.5 -23.5l-11 -43q46 0 75 -23t29 -68q0 -40 -29 -63t-71 -23q-65 0 -65 50q24 -10 47 -10q66 0 66 48q0 23 -18.5 34.5t-44.5 11.5z" />
<glyph unicode="&#xb9;" horiz-adv-x="302" d="M107 701q55 0 73 6v-318h72q-1 -1 0.5 -10t-4.5 -19.5t-19 -10.5h-171q0 2 -0.5 4.5t-0.5 9.5t1.5 12t7 9.5t14.5 4.5h47v268h-17q-43 0 -51 -33q-16 19 -16 36q0 41 64 41z" />
<glyph unicode="&#xba;" horiz-adv-x="474" d="M401 586v-153q0 -57 -40.5 -88t-121.5 -31q-162 0 -162 119v153q0 118 162 118t162 -118zM344 444v130q0 45 -21.5 66t-83.5 21t-84 -21t-22 -66v-130q0 -45 22 -65.5t84 -20.5t83.5 20.5t21.5 65.5z" />
<glyph unicode="&#xbb;" horiz-adv-x="599" d="M65 45l203 203l-151 150l-11.5 11.5l-13 13t-9.5 10.5t-8.5 12t-2.5 9q0 20 29 38l199 -199q25 -25 25 -46q0 -20 -24 -44l-148 -148q-36 -36 -52 -36q-19 0 -36 26zM254 45l203 203l-151 150l-11.5 11.5l-13 13t-9.5 10.5t-8.5 12t-2.5 9q0 20 29 38l199 -199 q25 -25 25 -46q0 -20 -24 -44l-148 -148q-36 -36 -52 -36q-19 0 -36 26z" />
<glyph unicode="&#xbc;" horiz-adv-x="673" d="M537 107h-168q4 56 68.5 140t102.5 116q50 -3 50 -27v-190h40q-5 -39 -31 -39h-9v-106q-8 0 -19 1.5t-22.5 8.5t-11.5 18v78zM537 294q-74 -78 -105 -148h105v148zM177 200l352 353q19 -26 19 -42q0 -14 -12 -26l-353 -352q-18 24 -18 41q0 14 12 26zM107 700q55 0 73 6 v-318h72q-1 -1 0.5 -10t-4.5 -19.5t-19 -10.5h-171q0 2 -0.5 4.5t-0.5 9.5t1.5 12t7 9.5t14.5 4.5h47v268h-17q-43 0 -51 -33q-16 19 -16 36q0 41 64 41z" />
<glyph unicode="&#xbd;" horiz-adv-x="742" d="M176 200l352 353q32 -43 7 -68l-353 -352q-31 42 -6 67zM107 701q55 0 73 6v-318h72q-1 -1 0.5 -10t-4.5 -19.5t-19 -10.5h-171q0 2 -0.5 4.5t-0.5 9.5t1.5 12t7 9.5t14.5 4.5h47v268h-17q-43 0 -51 -33q-16 19 -16 36q0 41 64 41zM448 1v47q0 24 8 42.5t27 32.5t31.5 21 t38.5 20q24 11 33.5 16.5t25.5 16.5t22 23.5t6 28.5v8q0 60 -69 60q-91 0 -102 -59q-16 20 -16 38q0 32 35 47.5t83 15.5q55 0 89.5 -25.5t34.5 -67.5v-20q0 -25 -8 -44t-27 -33t-32 -21t-39 -19q-31 -14 -44.5 -21t-28.5 -24.5t-15 -39.5h153q34 0 47 5q0 -5 -1 -13 t-9 -21.5t-21 -13.5h-222z" />
<glyph unicode="&#xbe;" horiz-adv-x="714" d="M578 107h-168q4 56 68.5 140t102.5 116q50 -3 50 -27v-190h40q-5 -39 -31 -39h-9v-106q-8 0 -19 1.5t-22.5 8.5t-11.5 18v78zM578 294q-74 -78 -105 -148h105v148zM218 200l352 353q19 -26 19 -42q0 -14 -12 -26l-353 -352q-18 24 -18 41q0 14 12 26zM317 451v-15 q0 -42 -35.5 -68.5t-93.5 -26.5q-50 0 -86.5 16.5t-36.5 48.5q0 19 14 37q15 -58 109 -58q74 0 74 59q0 57 -54 63q-7 1 -11.5 2.5t-10 10t-5.5 23.5v4h11q36 1 50.5 14.5t14.5 42.5q0 58 -69 58q-88 0 -104 -59q-14 18 -14 38q0 30 35.5 47t82.5 17q55 0 89.5 -25.5 t34.5 -67.5v-13q0 -51 -43 -72q48 -20 48 -76z" />
<glyph unicode="&#xbf;" horiz-adv-x="515" d="M297 43q76 0 117.5 27t41.5 77q14 -31 14 -62q0 -48 -52.5 -72.5t-120.5 -24.5q-100 0 -161.5 43t-61.5 121v25q0 47 23.5 82.5t57.5 58.5l68 44.5t57.5 53t23.5 71.5v48q2 0 5.5 -0.5t12 -3t15 -6.5t12 -13.5t5.5 -22.5v-22q0 -42 -23 -75t-55.5 -55.5l-65 -44 t-55.5 -52.5t-23 -70q0 -60 41.5 -93.5t123.5 -33.5zM358 627h-49q-11 0 -11 14v52h49q11 0 11 -14v-52z" />
<glyph unicode="&#xc0;" horiz-adv-x="602" d="M479 162l-20 70h-316l-20 -70l-7 -25.5t-7.5 -27t-8 -25t-10 -25t-10.5 -21t-13 -19.5t-15.5 -14t-19 -10t-22.5 -3q-7 0 -10 1q5 9 13 28t18.5 50.5l20 60.5l23.5 75l23 75.5l25 81.5l23 75q59 191 155 266q96 -75 155 -266l23 -75l25 -81.5l23 -75.5l23.5 -75l20 -60.5 t18.5 -50.5t13 -28q-3 -1 -10 -1q-12 0 -22.5 3t-19 10t-15.5 14t-13 19.5t-10.5 21t-10 25t-8 25t-7.5 27zM159 287h284l-38 126q-20 65 -46 118.5t-42 74.5l-16 21q-7 -8 -18 -23t-38.5 -70.5t-47.5 -120.5zM228 934q-10 -40 34 -84l69 -65q14 -16 2.5 -26.5t-34.5 -13.5 l-48 38q-50 40 -65 67.5t-4 45t46 38.5z" />
<glyph unicode="&#xc1;" horiz-adv-x="602" d="M479 162l-20 70h-316l-20 -70l-7 -25.5t-7.5 -27t-8 -25t-10 -25t-10.5 -21t-13 -19.5t-15.5 -14t-19 -10t-22.5 -3q-7 0 -10 1q5 9 13 28t18.5 50.5l20 60.5l23.5 75l23 75.5l25 81.5l23 75q59 191 155 266q96 -75 155 -266l23 -75l25 -81.5l23 -75.5l23.5 -75l20 -60.5 t18.5 -50.5t13 -28q-3 -1 -10 -1q-12 0 -22.5 3t-19 10t-15.5 14t-13 19.5t-10.5 21t-10 25t-8 25t-7.5 27zM159 287h284l-38 126q-20 65 -46 118.5t-42 74.5l-16 21q-7 -8 -18 -23t-38.5 -70.5t-47.5 -120.5zM374 934q35 -21 46 -38.5t-4 -45t-65 -67.5l-48 -38 q-23 3 -34.5 13.5t2.5 26.5l69 65q44 44 34 84z" />
<glyph unicode="&#xc2;" horiz-adv-x="602" d="M479 162l-20 70h-316l-20 -70l-7 -25.5t-7.5 -27t-8 -25t-10 -25t-10.5 -21t-13 -19.5t-15.5 -14t-19 -10t-22.5 -3q-7 0 -10 1q5 9 13 28t18.5 50.5l20 60.5l23.5 75l23 75.5l25 81.5l23 75q59 191 155 266q96 -75 155 -266l23 -75l25 -81.5l23 -75.5l23.5 -75l20 -60.5 t18.5 -50.5t13 -28q-3 -1 -10 -1q-12 0 -22.5 3t-19 10t-15.5 14t-13 19.5t-10.5 21t-10 25t-8 25t-7.5 27zM159 287h284l-38 126q-20 65 -46 118.5t-42 74.5l-16 21q-7 -8 -18 -23t-38.5 -70.5t-47.5 -120.5zM220 870l81 67l81 -67q39 -32 37 -67t-45 -57q6 12 6 24 q0 18 -20 44t-40 43l-19 17q-9 -7 -22 -18.5t-35 -39.5t-22 -46q0 -12 6 -24q-43 22 -45 57t37 67z" />
<glyph unicode="&#xc3;" horiz-adv-x="602" d="M479 162l-20 70h-316l-20 -70l-7 -25.5t-7.5 -27t-8 -25t-10 -25t-10.5 -21t-13 -19.5t-15.5 -14t-19 -10t-22.5 -3q-7 0 -10 1q5 9 13 28t18.5 50.5l20 60.5l23.5 75l23 75.5l25 81.5l23 75q59 191 155 266q96 -75 155 -266l23 -75l25 -81.5l23 -75.5l23.5 -75l20 -60.5 t18.5 -50.5t13 -28q-3 -1 -10 -1q-12 0 -22.5 3t-19 10t-15.5 14t-13 19.5t-10.5 21t-10 25t-8 25t-7.5 27zM159 287h284l-38 126q-20 65 -46 118.5t-42 74.5l-16 21q-7 -8 -18 -23t-38.5 -70.5t-47.5 -120.5zM172 780q-2 20 -1.5 38t14 30.5t41.5 12.5q26 0 76 -23.5 t80 -23.5t48 27q5 -43 -8 -62.5t-47 -19.5q-27 0 -75.5 23t-77.5 23q-34 0 -50 -25z" />
<glyph unicode="&#xc4;" horiz-adv-x="602" d="M479 162l-20 70h-316l-20 -70l-7 -25.5t-7.5 -27t-8 -25t-10 -25t-10.5 -21t-13 -19.5t-15.5 -14t-19 -10t-22.5 -3q-7 0 -10 1q5 9 13 28t18.5 50.5l20 60.5l23.5 75l23 75.5l25 81.5l23 75q59 191 155 266q96 -75 155 -266l23 -75l25 -81.5l23 -75.5l23.5 -75l20 -60.5 t18.5 -50.5t13 -28q-3 -1 -10 -1q-12 0 -22.5 3t-19 10t-15.5 14t-13 19.5t-10.5 21t-10 25t-8 25t-7.5 27zM159 287h284l-38 126q-20 65 -46 118.5t-42 74.5l-16 21q-7 -8 -18 -23t-38.5 -70.5t-47.5 -120.5zM203 803v56h52q11 0 11 -14v-55h-52q-11 0 -11 13zM336 803v56 h52q11 0 11 -14v-55h-52q-11 0 -11 13z" />
<glyph unicode="&#xc5;" horiz-adv-x="602" d="M479 162l-20 70h-316l-20 -70l-7 -25.5t-7.5 -27t-8 -25t-10 -25t-10.5 -21t-13 -19.5t-15.5 -14t-19 -10t-22.5 -3q-7 0 -10 1q5 9 13 28t18.5 50.5l20 60.5l23.5 75l23 75.5l25 81.5l23 75q59 191 155 266q96 -75 155 -266l23 -75l25 -81.5l23 -75.5l23.5 -75l20 -60.5 t18.5 -50.5t13 -28q-3 -1 -10 -1q-12 0 -22.5 3t-19 10t-15.5 14t-13 19.5t-10.5 21t-10 25t-8 25t-7.5 27zM159 287h284l-38 126q-20 65 -46 118.5t-42 74.5l-16 21q-7 -8 -18 -23t-38.5 -70.5t-47.5 -120.5zM383 868v-68q0 -26 -22.5 -40t-60.5 -14t-60.5 14t-22.5 40v68 q0 25 22.5 40t60.5 15t60.5 -15t22.5 -40zM347 815v39q0 37 -47 37q-27 0 -37 -9.5t-10 -27.5v-39q0 -19 10 -28t37 -9q47 0 47 37z" />
<glyph unicode="&#xc6;" horiz-adv-x="754" d="M321 694h383v-5.5t-2 -13t-5.5 -16.5t-11.5 -13t-18 -6h-271v-231h195q59 0 73 14q0 -13 -4.5 -27t-20.5 -27.5t-42 -13.5h-201v-301h308q0 -7 -1 -16t-10 -23.5t-26 -14.5h-257q-8 0 -20 1t-32 12t-20 31v189h-193l-25 -82q-2 -8 -9.5 -33.5t-10.5 -34.5t-11 -29 t-15 -28t-18 -18.5t-25 -13.5t-31 -1q18 25 66 182l81 260q65 210 174 259zM198 412l-37 -125h177v351q-42 -24 -75 -70.5t-65 -155.5z" />
<glyph unicode="&#xc7;" horiz-adv-x="660" d="M292 -111q0 3 3 15l24 85q-109 4 -176.5 58t-67.5 166v268q0 116 76 170.5t193 54.5q26 0 50.5 -1.5t55.5 -5.5t56 -11.5t47 -20.5t33 -30.5t10 -44t-18 -58.5q0 34 -24.5 58.5t-63.5 36t-75 16.5t-71 5q-211 0 -211 -183v-239q0 -184 206 -184q33 0 65 3.5t76.5 14.5 t71.5 38.5t26 67.5q14 -30 15.5 -55.5t-7 -43.5t-27 -32t-40.5 -22.5t-50 -14t-53.5 -8t-53.5 -3.5v-5l-11 -43q46 0 75 -23t29 -68q0 -40 -29 -63t-71 -23q-65 0 -65 50q24 -10 47 -10q66 0 66 48q0 23 -18.5 34.5t-44.5 11.5z" />
<glyph unicode="&#xc8;" horiz-adv-x="551" d="M394 355h-251v-301h358q0 -7 -1 -16t-10 -23.5t-26 -14.5h-307q-8 0 -20 1t-32 12t-20 31v650h416v-5.5t-2 -13t-5.5 -16.5t-11.5 -13t-18 -6h-321v-231h245q59 0 73 14q0 -13 -4.5 -27t-20.5 -27.5t-42 -13.5zM225 934q-10 -40 34 -84l69 -65q14 -16 2.5 -26.5 t-34.5 -13.5l-48 38q-50 40 -65 67.5t-4 45t46 38.5z" />
<glyph unicode="&#xc9;" horiz-adv-x="551" d="M394 355h-251v-301h358q0 -7 -1 -16t-10 -23.5t-26 -14.5h-307q-8 0 -20 1t-32 12t-20 31v650h416v-5.5t-2 -13t-5.5 -16.5t-11.5 -13t-18 -6h-321v-231h245q59 0 73 14q0 -13 -4.5 -27t-20.5 -27.5t-42 -13.5zM371 934q35 -21 46 -38.5t-4 -45t-65 -67.5l-48 -38 q-23 3 -34.5 13.5t2.5 26.5l69 65q44 44 34 84z" />
<glyph unicode="&#xca;" horiz-adv-x="551" d="M394 355h-251v-301h358q0 -7 -1 -16t-10 -23.5t-26 -14.5h-307q-8 0 -20 1t-32 12t-20 31v650h416v-5.5t-2 -13t-5.5 -16.5t-11.5 -13t-18 -6h-321v-231h245q59 0 73 14q0 -13 -4.5 -27t-20.5 -27.5t-42 -13.5zM217 870l81 67l81 -67q39 -32 37 -67t-45 -57q6 12 6 24 q0 18 -19.5 44t-39.5 43l-20 17q-9 -7 -22 -18.5t-35 -39.5t-22 -46q0 -12 6 -24q-43 22 -45 57t37 67z" />
<glyph unicode="&#xcb;" horiz-adv-x="551" d="M394 355h-251v-301h358q0 -7 -1 -16t-10 -23.5t-26 -14.5h-307q-8 0 -20 1t-32 12t-20 31v650h416v-5.5t-2 -13t-5.5 -16.5t-11.5 -13t-18 -6h-321v-231h245q59 0 73 14q0 -13 -4.5 -27t-20.5 -27.5t-42 -13.5zM200 803v56h52q11 0 11 -14v-55h-52q-11 0 -11 13zM333 803 v56h52q11 0 11 -14v-55h-52q-11 0 -11 13z" />
<glyph unicode="&#xcc;" horiz-adv-x="228" d="M85 34v670q6 0 16 -1t26 -12t16 -31v-670q-6 0 -16 1t-26 12t-16 31zM41 934q-10 -40 34 -84l69 -65q14 -16 2.5 -26.5t-34.5 -13.5l-48 38q-50 40 -65 67.5t-4 45t46 38.5z" />
<glyph unicode="&#xcd;" horiz-adv-x="228" d="M85 34v670q6 0 16 -1t26 -12t16 -31v-670q-6 0 -16 1t-26 12t-16 31zM187 934q35 -21 46 -38.5t-4 -45t-65 -67.5l-48 -38q-23 3 -34.5 13.5t2.5 26.5l69 65q44 44 34 84z" />
<glyph unicode="&#xce;" horiz-adv-x="228" d="M85 34v670q6 0 16 -1t26 -12t16 -31v-670q-6 0 -16 1t-26 12t-16 31zM33 870l81 67l81 -67q39 -32 37 -67t-45 -57q6 12 6 24q0 18 -20 44t-40 43l-19 17q-9 -7 -22 -18.5t-35 -39.5t-22 -46q0 -12 6 -24q-43 22 -45 57t37 67z" />
<glyph unicode="&#xcf;" horiz-adv-x="228" d="M85 34v670q6 0 16 -1t26 -12t16 -31v-670q-6 0 -16 1t-26 12t-16 31zM16 803v56h52q11 0 11 -14v-55h-52q-11 0 -11 13zM149 803v56h52q11 0 11 -14v-55h-52q-11 0 -11 13z" />
<glyph unicode="&#xd0;" horiz-adv-x="686" d="M55 376h30v318h253q56 0 102.5 -11t86 -35t62 -70t22.5 -109v-244q0 -63 -22.5 -109t-62 -70t-86 -35t-102.5 -11h-183q-10 0 -22.5 1.5t-30 12.5t-17.5 30v278h-57q-1 9 -1.5 21t7 22.5t21.5 10.5zM338 640h-195v-264h230q4 -16 -1.5 -35t-26.5 -19h-202v-268h195 q215 0 215 181v225q0 180 -215 180z" />
<glyph unicode="&#xd1;" horiz-adv-x="691" d="M195 646l322 -521l39 -69q-8 49 -8 71v567q6 0 16 -1t26 -12t16 -31v-660q-37 0 -64.5 15.5t-37.5 30.5l-9 16l-360 579q8 -43 8 -83v-558q-6 0 -16 1t-26 12t-16 31v660q29 0 43.5 -1.5t33.5 -12.5t33 -34zM217 780q-2 20 -1.5 38t14 30.5t41.5 12.5q26 0 76 -23.5 t80 -23.5t48 27q5 -43 -8 -62.5t-47 -19.5q-27 0 -75.5 23t-77.5 23q-34 0 -50 -25z" />
<glyph unicode="&#xd2;" d="M602 490v-286q0 -104 -65.5 -160t-197.5 -56q-133 0 -198.5 56t-65.5 160v286q0 104 65.5 160t198.5 56q132 0 197.5 -56t65.5 -160zM544 217v260q0 87 -43 131t-163 44q-62 0 -103.5 -12.5t-63 -37t-30 -54t-8.5 -71.5v-260q0 -87 42.5 -131t162.5 -44t163 44t43 131z M266 934q-10 -40 34 -84l69 -65q14 -16 2.5 -26.5t-34.5 -13.5l-48 38q-50 40 -65 67.5t-4 45t46 38.5z" />
<glyph unicode="&#xd3;" d="M602 490v-286q0 -104 -65.5 -160t-197.5 -56q-133 0 -198.5 56t-65.5 160v286q0 104 65.5 160t198.5 56q132 0 197.5 -56t65.5 -160zM544 217v260q0 87 -43 131t-163 44q-62 0 -103.5 -12.5t-63 -37t-30 -54t-8.5 -71.5v-260q0 -87 42.5 -131t162.5 -44t163 44t43 131z M412 934q35 -21 46 -38.5t-4 -45t-65 -67.5l-48 -38q-23 3 -34.5 13.5t2.5 26.5l69 65q44 44 34 84z" />
<glyph unicode="&#xd4;" d="M602 490v-286q0 -104 -65.5 -160t-197.5 -56q-133 0 -198.5 56t-65.5 160v286q0 104 65.5 160t198.5 56q132 0 197.5 -56t65.5 -160zM544 217v260q0 87 -43 131t-163 44q-62 0 -103.5 -12.5t-63 -37t-30 -54t-8.5 -71.5v-260q0 -87 42.5 -131t162.5 -44t163 44t43 131z M258 870l81 67l81 -67q39 -32 37 -67t-45 -57q6 12 6 24q0 18 -20 44t-40 43l-19 17q-9 -7 -22 -18.5t-35 -39.5t-22 -46q0 -12 6 -24q-43 22 -45 57t37 67z" />
<glyph unicode="&#xd5;" d="M602 490v-286q0 -104 -65.5 -160t-197.5 -56q-133 0 -198.5 56t-65.5 160v286q0 104 65.5 160t198.5 56q132 0 197.5 -56t65.5 -160zM544 217v260q0 87 -43 131t-163 44q-62 0 -103.5 -12.5t-63 -37t-30 -54t-8.5 -71.5v-260q0 -87 42.5 -131t162.5 -44t163 44t43 131z M210 780q-2 20 -1.5 38t14 30.5t41.5 12.5q26 0 76 -23.5t80 -23.5t48 27q5 -43 -8 -62.5t-47 -19.5q-27 0 -75.5 23t-77.5 23q-34 0 -50 -25z" />
<glyph unicode="&#xd6;" d="M602 490v-286q0 -104 -65.5 -160t-197.5 -56q-133 0 -198.5 56t-65.5 160v286q0 104 65.5 160t198.5 56q132 0 197.5 -56t65.5 -160zM544 217v260q0 87 -43 131t-163 44q-62 0 -103.5 -12.5t-63 -37t-30 -54t-8.5 -71.5v-260q0 -87 42.5 -131t162.5 -44t163 44t43 131z M241 803v56h52q11 0 11 -14v-55h-52q-11 0 -11 13zM374 803v56h52q11 0 11 -14v-55h-52q-11 0 -11 13z" />
<glyph unicode="&#xd7;" horiz-adv-x="430" d="M302 126l-88 87l-103 -104q-25 19 -25 39q0 11 10 21l81 83l-102 98q17 30 37 30q5 0 16 -9l86 -81l-1 -1l27 27l52 52l26 27l-1 -1q25 -18 25 -39q0 -11 -10 -21l-81 -83l104 -104q-18 -28 -37 -28q-8 0 -16 7z" />
<glyph unicode="&#xd8;" d="M602 490v-286q0 -104 -65.5 -160t-197.5 -56q-135 0 -203 59l-54 -66q-16 15 -19 39t10 41l27 33q-25 46 -25 110v286q0 104 65.5 160t198.5 56q141 0 208 -67l55 67q15 -13 20.5 -34.5t-6.5 -39.5l-35 -42q21 -44 21 -100zM133 217q0 -44 8 -73l371 452q-46 56 -174 56 q-62 0 -103.5 -12.5t-63 -37t-30 -54t-8.5 -71.5v-260zM544 217v260q0 33 -6 60l-367 -447q46 -48 167 -48q120 0 163 44t43 131z" />
<glyph unicode="&#xd9;" d="M602 661v-464q0 -98 -76 -153.5t-187 -55.5q-112 0 -188 55.5t-76 153.5v508q6 0 16 -1t26 -12t16 -31v-452q0 -77 56.5 -121t149.5 -44q92 0 148.5 44t56.5 121v496q6 0 16 -1t26 -12t16 -31zM266 934q-10 -40 34 -84l69 -65q14 -16 2.5 -26.5t-34.5 -13.5l-48 38 q-50 40 -65 67.5t-4 45t46 38.5z" />
<glyph unicode="&#xda;" d="M602 661v-464q0 -98 -76 -153.5t-187 -55.5q-112 0 -188 55.5t-76 153.5v508q6 0 16 -1t26 -12t16 -31v-452q0 -77 56.5 -121t149.5 -44q92 0 148.5 44t56.5 121v496q6 0 16 -1t26 -12t16 -31zM412 934q35 -21 46 -38.5t-4 -45t-65 -67.5l-48 -38q-23 3 -34.5 13.5 t2.5 26.5l69 65q44 44 34 84z" />
<glyph unicode="&#xdb;" d="M602 661v-464q0 -98 -76 -153.5t-187 -55.5q-112 0 -188 55.5t-76 153.5v508q6 0 16 -1t26 -12t16 -31v-452q0 -77 56.5 -121t149.5 -44q92 0 148.5 44t56.5 121v496q6 0 16 -1t26 -12t16 -31zM258 870l81 67l81 -67q39 -32 37 -67t-45 -57q6 12 6 24q0 18 -20 44t-40 43 l-19 17q-9 -7 -22 -18.5t-35 -39.5t-22 -46q0 -12 6 -24q-43 22 -45 57t37 67z" />
<glyph unicode="&#xdc;" d="M602 661v-464q0 -98 -76 -153.5t-187 -55.5q-112 0 -188 55.5t-76 153.5v508q6 0 16 -1t26 -12t16 -31v-452q0 -77 56.5 -121t149.5 -44q92 0 148.5 44t56.5 121v496q6 0 16 -1t26 -12t16 -31zM241 803v56h52q11 0 11 -14v-55h-52q-11 0 -11 13zM374 803v56h52 q11 0 11 -14v-55h-52q-11 0 -11 13z" />
<glyph unicode="&#xdd;" horiz-adv-x="528" d="M293 303h1v-313q-7 0 -16.5 1t-26 12.5t-16.5 31.5v268q-50 42 -99 127.5t-87 170.5t-47 98q0 1 13 1q45 0 76 -54q7 -11 36 -74.5t64 -123.5t73 -96q38 36 73 96t64 123.5t36 74.5q31 54 76 54l13 -1q-9 -13 -47 -98t-87 -170.5t-99 -127.5zM338 934q35 -21 46 -38.5 t-4 -45t-65 -67.5l-48 -38q-23 3 -34.5 13.5t2.5 26.5l69 65q44 44 34 84z" />
<glyph unicode="&#xde;" horiz-adv-x="566" d="M143 620h106q45 0 81.5 -5.5t71 -20.5t58.5 -38.5t38 -62t14 -89.5v-18q0 -217 -263 -217h-106v-179q-6 0 -16 1t-26 12t-16 30v710q10 0 20.5 -1.5t24 -12.5t13.5 -29v-80zM249 566h-106v-343h106q101 0 153 36t52 136q0 93 -53.5 132t-151.5 39z" />
<glyph unicode="&#xdf;" horiz-adv-x="622" d="M130 -10q-6 0 -15 1t-24.5 12t-15.5 31v525q0 82 68 133.5t155 51.5q90 0 148.5 -39t58.5 -110q0 -31 -19.5 -57.5t-46.5 -46.5l-54.5 -39t-47 -43.5t-19.5 -51.5q0 -30 20 -46t50 -19t64.5 -10.5t64.5 -18t50 -43t20 -85.5q0 -68 -49.5 -107.5t-143.5 -39.5 q-72 0 -120.5 26t-48.5 77q0 29 15 59q0 -52 41.5 -80t112.5 -28q79 0 108.5 25.5t29.5 72.5q0 40 -27.5 60t-67 26t-79.5 14t-67.5 35.5t-27.5 78.5q0 37 19.5 69t46.5 54.5t54.5 41.5t47 38t19.5 37q0 96 -149 96q-80 0 -125.5 -41t-45.5 -110v-549z" />
<glyph unicode="&#xe0;" horiz-adv-x="497" d="M54 130q0 52 29.5 84.5t73 46t88.5 22.5t81.5 25.5t45.5 43.5q0 48 -27.5 74t-98.5 26q-72 0 -113 -28.5t-41 -76.5q-21 28 -21 60q0 44 48 71.5t127 27.5q91 0 136 -41t45 -116v-354q-26 10 -61 10q-14 0 -57.5 -8.5t-65.5 -8.5q-91 0 -140 39t-49 103zM111 129 q0 -41 34.5 -65.5t105.5 -24.5q33 0 63 6.5t44 12.5l14 7v222q-6 -23 -49 -36t-89.5 -20t-84.5 -32.5t-38 -69.5zM179 750q-10 -40 34 -84l69 -65q14 -16 2.5 -26.5t-34.5 -13.5l-48 38q-50 40 -65 67.5t-4 45t46 38.5z" />
<glyph unicode="&#xe1;" horiz-adv-x="497" d="M54 130q0 52 29.5 84.5t73 46t88.5 22.5t81.5 25.5t45.5 43.5q0 48 -27.5 74t-98.5 26q-72 0 -113 -28.5t-41 -76.5q-21 28 -21 60q0 44 48 71.5t127 27.5q91 0 136 -41t45 -116v-354q-26 10 -61 10q-14 0 -57.5 -8.5t-65.5 -8.5q-91 0 -140 39t-49 103zM111 129 q0 -41 34.5 -65.5t105.5 -24.5q33 0 63 6.5t44 12.5l14 7v222q-6 -23 -49 -36t-89.5 -20t-84.5 -32.5t-38 -69.5zM325 750q35 -21 46 -38.5t-4 -45t-65 -67.5l-48 -38q-23 3 -34.5 13.5t2.5 26.5l69 65q44 44 34 84z" />
<glyph unicode="&#xe2;" horiz-adv-x="497" d="M54 130q0 52 29.5 84.5t73 46t88.5 22.5t81.5 25.5t45.5 43.5q0 48 -27.5 74t-98.5 26q-72 0 -113 -28.5t-41 -76.5q-21 28 -21 60q0 44 48 71.5t127 27.5q91 0 136 -41t45 -116v-354q-26 10 -61 10q-14 0 -57.5 -8.5t-65.5 -8.5q-91 0 -140 39t-49 103zM111 129 q0 -41 34.5 -65.5t105.5 -24.5q33 0 63 6.5t44 12.5l14 7v222q-6 -23 -49 -36t-89.5 -20t-84.5 -32.5t-38 -69.5zM171 686l81 67l81 -67q39 -32 37 -67t-45 -57q6 12 6 24q0 18 -20 44t-40 43l-19 17q-9 -7 -22 -18.5t-35 -39.5t-22 -46q0 -12 6 -24q-43 22 -45 57t37 67z " />
<glyph unicode="&#xe3;" horiz-adv-x="497" d="M54 130q0 52 29.5 84.5t73 46t88.5 22.5t81.5 25.5t45.5 43.5q0 48 -27.5 74t-98.5 26q-72 0 -113 -28.5t-41 -76.5q-21 28 -21 60q0 44 48 71.5t127 27.5q91 0 136 -41t45 -116v-354q-26 10 -61 10q-14 0 -57.5 -8.5t-65.5 -8.5q-91 0 -140 39t-49 103zM111 129 q0 -41 34.5 -65.5t105.5 -24.5q33 0 63 6.5t44 12.5l14 7v222q-6 -23 -49 -36t-89.5 -20t-84.5 -32.5t-38 -69.5zM123 596q-2 20 -1.5 38t14 30.5t41.5 12.5q26 0 76 -23.5t80 -23.5t48 27q5 -43 -8 -62.5t-47 -19.5q-27 0 -75.5 23t-77.5 23q-34 0 -50 -25z" />
<glyph unicode="&#xe4;" horiz-adv-x="497" d="M54 130q0 52 29.5 84.5t73 46t88.5 22.5t81.5 25.5t45.5 43.5q0 48 -27.5 74t-98.5 26q-72 0 -113 -28.5t-41 -76.5q-21 28 -21 60q0 44 48 71.5t127 27.5q91 0 136 -41t45 -116v-354q-26 10 -61 10q-14 0 -57.5 -8.5t-65.5 -8.5q-91 0 -140 39t-49 103zM111 129 q0 -41 34.5 -65.5t105.5 -24.5q33 0 63 6.5t44 12.5l14 7v222q-6 -23 -49 -36t-89.5 -20t-84.5 -32.5t-38 -69.5zM151 619v56h52q11 0 11 -14v-55h-52q-11 0 -11 13zM284 619v56h52q11 0 11 -14v-55h-52q-11 0 -11 13z" />
<glyph unicode="&#xe5;" horiz-adv-x="497" d="M54 130q0 52 29.5 84.5t73 46t88.5 22.5t81.5 25.5t45.5 43.5q0 48 -27.5 74t-98.5 26q-72 0 -113 -28.5t-41 -76.5q-21 28 -21 60q0 44 48 71.5t127 27.5q91 0 136 -41t45 -116v-354q-26 10 -61 10q-14 0 -57.5 -8.5t-65.5 -8.5q-91 0 -140 39t-49 103zM111 129 q0 -41 34.5 -65.5t105.5 -24.5q33 0 63 6.5t44 12.5l14 7v222q-6 -23 -49 -36t-89.5 -20t-84.5 -32.5t-38 -69.5zM334 684v-68q0 -26 -22.5 -40t-60.5 -14t-60.5 14t-22.5 40v68q0 25 22.5 40t60.5 15t60.5 -15t22.5 -40zM298 631v39q0 37 -47 37q-27 0 -37 -9.5t-10 -27.5 v-39q0 -19 10 -28t37 -9q47 0 47 37z" />
<glyph unicode="&#xe6;" horiz-adv-x="804" d="M726 152q23 -32 23 -64q0 -48 -56.5 -74t-131.5 -26q-37 0 -69 8t-51 19t-32.5 22t-18.5 19l-6 8q-22 -37 -65 -56.5t-92 -19.5q-72 0 -122 38.5t-50 103.5q0 54 29.5 87.5t73 46.5t88 21.5t81 24t45.5 42.5q0 48 -27.5 74t-98.5 26q-72 0 -113 -28.5t-41 -76.5 q-21 28 -21 60q0 44 48 71.5t127 27.5q111 0 154 -62q46 62 156 62q88 0 138 -39.5t50 -105.5q0 -64 -47 -102t-146 -38q-65 0 -124 26v-89q0 -59 30 -87.5t104 -28.5q72 0 118.5 28.5t46.5 81.5zM111 129q0 -40 36.5 -65t84.5 -25q55 0 97.5 33.5t42.5 90.5v115 q-10 -21 -53.5 -32.5t-89 -17t-82 -30t-36.5 -69.5zM427 336v-39q0 -2 19 -7t48.5 -10t51.5 -5q143 0 143 86q0 93 -131 93q-75 0 -103 -29t-28 -89z" />
<glyph unicode="&#xe7;" horiz-adv-x="493" d="M214 -111q0 3 3 15l24 85q-81 5 -128.5 45.5t-47.5 108.5v208q0 73 50 114t139 41q78 0 125.5 -27t47.5 -72q0 -31 -22 -60q0 48 -40.5 76.5t-112.5 28.5q-132 0 -132 -112v-187q0 -51 36.5 -81t107.5 -30t115.5 28t44.5 82q25 -36 25 -63q0 -46 -48 -71.5t-117 -28.5v-5 l-11 -43q46 0 75 -23t29 -68q0 -40 -29 -63t-71 -23q-65 0 -65 50q24 -10 47 -10q66 0 66 48q0 23 -18.5 34.5t-44.5 11.5z" />
<glyph unicode="&#xe8;" horiz-adv-x="497" d="M419 152q23 -32 23 -64q0 -48 -56.5 -74t-131.5 -26q-87 0 -138 41t-51 114v208q0 73 47.5 114t136.5 41q88 0 138 -39.5t50 -105.5q0 -64 -47 -102t-146 -38q-65 0 -124 26v-89q0 -59 30 -87.5t104 -28.5q72 0 118.5 28.5t46.5 81.5zM120 336v-38l22 -8q56 -15 97 -15 q143 0 143 86q0 93 -131 93q-75 0 -103 -29t-28 -89zM177 750q-10 -40 34 -84l69 -65q14 -16 2.5 -26.5t-34.5 -13.5l-48 38q-50 40 -65 67.5t-4 45t46 38.5z" />
<glyph unicode="&#xe9;" horiz-adv-x="497" d="M419 152q23 -32 23 -64q0 -48 -56.5 -74t-131.5 -26q-87 0 -138 41t-51 114v208q0 73 47.5 114t136.5 41q88 0 138 -39.5t50 -105.5q0 -64 -47 -102t-146 -38q-65 0 -124 26v-89q0 -59 30 -87.5t104 -28.5q72 0 118.5 28.5t46.5 81.5zM120 336v-38l22 -8q56 -15 97 -15 q143 0 143 86q0 93 -131 93q-75 0 -103 -29t-28 -89zM323 750q35 -21 46 -38.5t-4 -45t-65 -67.5l-48 -38q-23 3 -34.5 13.5t2.5 26.5l69 65q44 44 34 84z" />
<glyph unicode="&#xea;" horiz-adv-x="497" d="M419 152q23 -32 23 -64q0 -48 -56.5 -74t-131.5 -26q-87 0 -138 41t-51 114v208q0 73 47.5 114t136.5 41q88 0 138 -39.5t50 -105.5q0 -64 -47 -102t-146 -38q-65 0 -124 26v-89q0 -59 30 -87.5t104 -28.5q72 0 118.5 28.5t46.5 81.5zM120 336v-38l22 -8q56 -15 97 -15 q143 0 143 86q0 93 -131 93q-75 0 -103 -29t-28 -89zM169 686l81 67l81 -67q39 -32 37 -67t-45 -57q6 12 6 24q0 18 -20 44t-40 43l-19 17q-9 -7 -22 -18.5t-35 -39.5t-22 -46q0 -12 6 -24q-43 22 -45 57t37 67z" />
<glyph unicode="&#xeb;" horiz-adv-x="497" d="M419 152q23 -32 23 -64q0 -48 -56.5 -74t-131.5 -26q-87 0 -138 41t-51 114v208q0 73 47.5 114t136.5 41q88 0 138 -39.5t50 -105.5q0 -64 -47 -102t-146 -38q-65 0 -124 26v-89q0 -59 30 -87.5t104 -28.5q72 0 118.5 28.5t46.5 81.5zM120 336v-38l22 -8q56 -15 97 -15 q143 0 143 86q0 93 -131 93q-75 0 -103 -29t-28 -89zM152 619v56h52q11 0 11 -14v-55h-52q-11 0 -11 13zM285 619v56h52q11 0 11 -14v-55h-52q-11 0 -11 13z" />
<glyph unicode="&#xec;" horiz-adv-x="205" d="M75 32v458q4 0 10.5 -1t18 -4.5t19 -13.5t7.5 -24v-458q-2 0 -6 0.5t-13.5 2.5t-16.5 6t-13 13t-6 21zM29 750q-10 -40 34 -84l69 -65q14 -16 2.5 -26.5t-34.5 -13.5l-48 38q-50 40 -65 67.5t-4 45t46 38.5z" />
<glyph unicode="&#xed;" horiz-adv-x="205" d="M75 32v458q4 0 10.5 -1t18 -4.5t19 -13.5t7.5 -24v-458q-2 0 -6 0.5t-13.5 2.5t-16.5 6t-13 13t-6 21zM175 750q35 -21 46 -38.5t-4 -45t-65 -67.5l-48 -38q-23 3 -34.5 13.5t2.5 26.5l69 65q44 44 34 84z" />
<glyph unicode="&#xee;" horiz-adv-x="205" d="M75 32v458q4 0 10.5 -1t18 -4.5t19 -13.5t7.5 -24v-458q-2 0 -6 0.5t-13.5 2.5t-16.5 6t-13 13t-6 21zM21 686l81 67l81 -67q39 -32 37 -67t-45 -57q6 12 6 24q0 18 -20 44t-40 43l-19 17q-9 -7 -22 -18.5t-35 -39.5t-22 -46q0 -12 6 -24q-43 22 -45 57t37 67z" />
<glyph unicode="&#xef;" horiz-adv-x="205" d="M75 32v458q4 0 10.5 -1t18 -4.5t19 -13.5t7.5 -24v-458q-2 0 -6 0.5t-13.5 2.5t-16.5 6t-13 13t-6 21zM4 619v56h52q11 0 11 -14v-55h-52q-11 0 -11 13zM137 619v56h52q11 0 11 -14v-55h-52q-11 0 -11 13z" />
<glyph unicode="&#xf0;" horiz-adv-x="539" d="M65 141v210q0 72 48.5 112.5t146.5 40.5q110 0 154 -49q-15 91 -79 157l-123 -51q-11 20 -11 32q0 19 24 30l64 27q-79 52 -152 52q-8 0 -20 -2q11 44 64 44q28 0 75.5 -17t91.5 -52l110 46q12 -22 12 -33q0 -20 -24 -29l-57 -24q85 -102 85 -245v-249q0 -73 -51.5 -113 t-153.5 -40t-153 40t-51 113zM120 156q0 -61 30.5 -89t118.5 -28t119 28t31 89v196q0 46 -48.5 73.5t-113.5 27.5q-80 0 -108.5 -29t-28.5 -88v-180z" />
<glyph unicode="&#xf1;" horiz-adv-x="526" d="M396 37v310q0 52 -31 78.5t-102 26.5q-37 0 -70.5 -6t-48.5 -12l-14 -6v-435q-6 0 -15 1t-24.5 12t-15.5 31v461q28 -14 45 -14q24 0 74 11t83 11q74 0 124 -33t50 -111v-369q-6 0 -15 1t-24.5 12t-15.5 31zM129 596q-2 20 -1.5 38t14 30.5t41.5 12.5q26 0 76 -23.5 t80 -23.5t48 27q5 -43 -8 -62.5t-47 -19.5q-27 0 -75.5 23t-77.5 23q-34 0 -50 -25z" />
<glyph unicode="&#xf2;" horiz-adv-x="537" d="M472 351v-208q0 -155 -203 -155q-204 0 -204 155v208q0 74 51 114.5t153 40.5t152.5 -40.5t50.5 -114.5zM417 158v178q0 61 -30.5 89.5t-117.5 28.5t-118 -28.5t-31 -89.5v-178q0 -61 30.5 -90t118.5 -29q87 0 117.5 29t30.5 90zM196 750q-10 -40 34 -84l69 -65 q14 -16 2.5 -26.5t-34.5 -13.5l-48 38q-50 40 -65 67.5t-4 45t46 38.5z" />
<glyph unicode="&#xf3;" horiz-adv-x="537" d="M472 351v-208q0 -155 -203 -155q-204 0 -204 155v208q0 74 51 114.5t153 40.5t152.5 -40.5t50.5 -114.5zM417 158v178q0 61 -30.5 89.5t-117.5 28.5t-118 -28.5t-31 -89.5v-178q0 -61 30.5 -90t118.5 -29q87 0 117.5 29t30.5 90zM342 750q35 -21 46 -38.5t-4 -45 t-65 -67.5l-48 -38q-23 3 -34.5 13.5t2.5 26.5l69 65q44 44 34 84z" />
<glyph unicode="&#xf4;" horiz-adv-x="537" d="M472 351v-208q0 -155 -203 -155q-204 0 -204 155v208q0 74 51 114.5t153 40.5t152.5 -40.5t50.5 -114.5zM417 158v178q0 61 -30.5 89.5t-117.5 28.5t-118 -28.5t-31 -89.5v-178q0 -61 30.5 -90t118.5 -29q87 0 117.5 29t30.5 90zM188 686l81 67l81 -67q39 -32 37 -67 t-45 -57q6 12 6 24q0 18 -20 44t-40 43l-19 17q-9 -7 -22 -18.5t-35 -39.5t-22 -46q0 -12 6 -24q-43 22 -45 57t37 67z" />
<glyph unicode="&#xf5;" horiz-adv-x="537" d="M472 351v-208q0 -155 -203 -155q-204 0 -204 155v208q0 74 51 114.5t153 40.5t152.5 -40.5t50.5 -114.5zM417 158v178q0 61 -30.5 89.5t-117.5 28.5t-118 -28.5t-31 -89.5v-178q0 -61 30.5 -90t118.5 -29q87 0 117.5 29t30.5 90zM140 596q-2 20 -1.5 38t14 30.5 t41.5 12.5q26 0 76 -23.5t80 -23.5t48 27q5 -43 -8 -62.5t-47 -19.5q-27 0 -75.5 23t-77.5 23q-34 0 -50 -25z" />
<glyph unicode="&#xf6;" horiz-adv-x="537" d="M472 351v-208q0 -155 -203 -155q-204 0 -204 155v208q0 74 51 114.5t153 40.5t152.5 -40.5t50.5 -114.5zM417 158v178q0 61 -30.5 89.5t-117.5 28.5t-118 -28.5t-31 -89.5v-178q0 -61 30.5 -90t118.5 -29q87 0 117.5 29t30.5 90zM171 619v56h52q11 0 11 -14v-55h-52 q-11 0 -11 13zM304 619v56h52q11 0 11 -14v-55h-52q-11 0 -11 13z" />
<glyph unicode="&#xf7;" horiz-adv-x="485" d="M212 142h54q13 0 13 -15v-58h-54q-13 0 -13 16v57zM212 449h54q13 0 13 -15v-58h-54q-13 0 -13 16v57zM104 284h304q4 -16 -1.5 -35t-26.5 -19h-303q-1 9 -1.5 21t7 22.5t21.5 10.5z" />
<glyph unicode="&#xf8;" horiz-adv-x="537" d="M472 351v-208q0 -155 -203 -155q-122 0 -171 57l-51 -52q-14 16 -14.5 40t14.5 39l24 24q-6 22 -6 47v208q0 74 51 114.5t153 40.5q105 0 158 -45l50 51q14 -15 16.5 -36.5t-11.5 -37.5l-22 -23q12 -29 12 -64zM417 158v178q0 13 -2 33l-279 -285q29 -45 133 -45 q87 0 117.5 29t30.5 90zM120 158v-12l269 276q-32 32 -120 32q-87 0 -118 -28.5t-31 -89.5v-178z" />
<glyph unicode="&#xf9;" horiz-adv-x="526" d="M130 457v-305q0 -22 4 -38.5t16.5 -35t41.5 -29t72 -10.5q37 0 70 6.5t48 12.5l14 6v437q6 0 15 -1t24.5 -12t15.5 -31v-462q-23 10 -54 10q-17 0 -64.5 -8.5t-72.5 -8.5q-46 0 -85 11.5t-69.5 45.5t-30.5 87v369q2 0 6 -0.5t13.5 -3t16.5 -6.5t13 -13t6 -21zM190 750 q-10 -40 34 -84l69 -65q14 -16 2.5 -26.5t-34.5 -13.5l-48 38q-50 40 -65 67.5t-4 45t46 38.5z" />
<glyph unicode="&#xfa;" horiz-adv-x="526" d="M130 457v-305q0 -22 4 -38.5t16.5 -35t41.5 -29t72 -10.5q37 0 70 6.5t48 12.5l14 6v437q6 0 15 -1t24.5 -12t15.5 -31v-462q-23 10 -54 10q-17 0 -64.5 -8.5t-72.5 -8.5q-46 0 -85 11.5t-69.5 45.5t-30.5 87v369q2 0 6 -0.5t13.5 -3t16.5 -6.5t13 -13t6 -21zM336 750 q35 -21 46 -38.5t-4 -45t-65 -67.5l-48 -38q-23 3 -34.5 13.5t2.5 26.5l69 65q44 44 34 84z" />
<glyph unicode="&#xfb;" horiz-adv-x="526" d="M130 457v-305q0 -22 4 -38.5t16.5 -35t41.5 -29t72 -10.5q37 0 70 6.5t48 12.5l14 6v437q6 0 15 -1t24.5 -12t15.5 -31v-462q-23 10 -54 10q-17 0 -64.5 -8.5t-72.5 -8.5q-46 0 -85 11.5t-69.5 45.5t-30.5 87v369q2 0 6 -0.5t13.5 -3t16.5 -6.5t13 -13t6 -21zM182 686 l81 67l81 -67q39 -32 37 -67t-45 -57q6 12 6 24q0 18 -20 44t-40 43l-19 17q-9 -7 -22 -18.5t-35 -39.5t-22 -46q0 -12 6 -24q-43 22 -45 57t37 67z" />
<glyph unicode="&#xfc;" horiz-adv-x="526" d="M130 457v-305q0 -22 4 -38.5t16.5 -35t41.5 -29t72 -10.5q37 0 70 6.5t48 12.5l14 6v437q6 0 15 -1t24.5 -12t15.5 -31v-462q-23 10 -54 10q-17 0 -64.5 -8.5t-72.5 -8.5q-46 0 -85 11.5t-69.5 45.5t-30.5 87v369q2 0 6 -0.5t13.5 -3t16.5 -6.5t13 -13t6 -21zM165 619v56 h52q11 0 11 -14v-55h-52q-11 0 -11 13zM298 619v56h52q11 0 11 -14v-55h-52q-11 0 -11 13z" />
<glyph unicode="&#xfd;" horiz-adv-x="484" d="M248 79q5 3 12.5 9.5t27.5 27.5t36 43t30.5 56t18.5 67l18 169q2 19 13.5 30t20 13.5t24.5 4.5l-19 -193q-15 -162 -143 -260l-39 -30l-41.5 -32.5t-31.5 -28t-28 -32.5t-14 -33.5t-7 -43.5q0 -35 23 -89q-8 -2 -15 -2q-26 0 -45.5 21t-19.5 74q0 104 142 199 q-47 29 -92 96t-54 161l-20 194q6 0 15 -1t25 -12t18 -31l20 -174q4 -35 18.5 -68.5t32 -57t34.5 -41.5t28 -27zM319 750q35 -21 46 -38.5t-4 -45t-65 -67.5l-48 -38q-23 3 -34.5 13.5t2.5 26.5l69 65q44 44 34 84z" />
<glyph unicode="&#xfe;" horiz-adv-x="516" d="M75 -194v932q55 0 55 -53v-137l-12 -105q2 3 6 7t18.5 15t32 19t47 15t62.5 7q68 0 117.5 -41.5t49.5 -110.5v-214q0 -69 -49 -110.5t-118 -41.5q-104 0 -160 56l-6 6q12 -14 12 -105v-192q-55 0 -55 53zM130 349v-204q0 -45 44.5 -75.5t101.5 -30.5q54 0 87 29t33 87 v184q0 57 -33 86t-87 29q-57 0 -101.5 -30t-44.5 -75z" />
<glyph unicode="&#xff;" horiz-adv-x="484" d="M248 79q5 3 12.5 9.5t27.5 27.5t36 43t30.5 56t18.5 67l18 169q2 19 13.5 30t20 13.5t24.5 4.5l-19 -193q-15 -162 -143 -260l-39 -30l-41.5 -32.5t-31.5 -28t-28 -32.5t-14 -33.5t-7 -43.5q0 -35 23 -89q-8 -2 -15 -2q-26 0 -45.5 21t-19.5 74q0 104 142 199 q-47 29 -92 96t-54 161l-20 194q6 0 15 -1t25 -12t18 -31l20 -174q4 -35 18.5 -68.5t32 -57t34.5 -41.5t28 -27zM148 619v56h52q11 0 11 -14v-55h-52q-11 0 -11 13zM281 619v56h52q11 0 11 -14v-55h-52q-11 0 -11 13z" />
<glyph unicode="&#x100;" horiz-adv-x="602" d="M479 162l-20 70h-316l-20 -70l-7 -25.5t-7.5 -27t-8 -25t-10 -25t-10.5 -21t-13 -19.5t-15.5 -14t-19 -10t-22.5 -3q-7 0 -10 1q5 9 13 28t18.5 50.5l20 60.5l23.5 75l23 75.5l25 81.5l23 75q59 191 155 266q96 -75 155 -266l23 -75l25 -81.5l23 -75.5l23.5 -75l20 -60.5 t18.5 -50.5t13 -28q-3 -1 -10 -1q-12 0 -22.5 3t-19 10t-15.5 14t-13 19.5t-10.5 21t-10 25t-8 25t-7.5 27zM159 287h284l-38 126q-20 65 -46 118.5t-42 74.5l-16 21q-7 -8 -18 -23t-38.5 -70.5t-47.5 -120.5zM193 839h241q8 -51 -25 -51h-240q-6 14 0 32.5t24 18.5z" />
<glyph unicode="&#x101;" horiz-adv-x="497" d="M54 130q0 52 29.5 84.5t73 46t88.5 22.5t81.5 25.5t45.5 43.5q0 48 -27.5 74t-98.5 26q-72 0 -113 -28.5t-41 -76.5q-21 28 -21 60q0 44 48 71.5t127 27.5q91 0 136 -41t45 -116v-354q-26 10 -61 10q-14 0 -57.5 -8.5t-65.5 -8.5q-91 0 -140 39t-49 103zM111 129 q0 -41 34.5 -65.5t105.5 -24.5q33 0 63 6.5t44 12.5l14 7v222q-6 -23 -49 -36t-89.5 -20t-84.5 -32.5t-38 -69.5zM144 655h241q8 -51 -25 -51h-240q-6 14 0 32.5t24 18.5z" />
<glyph unicode="&#x102;" horiz-adv-x="602" d="M479 162l-20 70h-316l-20 -70l-7 -25.5t-7.5 -27t-8 -25t-10 -25t-10.5 -21t-13 -19.5t-15.5 -14t-19 -10t-22.5 -3q-7 0 -10 1q5 9 13 28t18.5 50.5l20 60.5l23.5 75l23 75.5l25 81.5l23 75q59 191 155 266q96 -75 155 -266l23 -75l25 -81.5l23 -75.5l23.5 -75l20 -60.5 t18.5 -50.5t13 -28q-3 -1 -10 -1q-12 0 -22.5 3t-19 10t-15.5 14t-13 19.5t-10.5 21t-10 25t-8 25t-7.5 27zM159 287h284l-38 126q-20 65 -46 118.5t-42 74.5l-16 21q-7 -8 -18 -23t-38.5 -70.5t-47.5 -120.5zM301 745q-63 0 -98 31.5t-35 74.5q0 62 53 73q-7 -17 -7 -36 q0 -89 87 -89t87 89q0 15 -7 36q27 -6 40 -26.5t13 -46.5q0 -43 -35 -74.5t-98 -31.5z" />
<glyph unicode="&#x103;" horiz-adv-x="497" d="M54 130q0 52 29.5 84.5t73 46t88.5 22.5t81.5 25.5t45.5 43.5q0 48 -27.5 74t-98.5 26q-72 0 -113 -28.5t-41 -76.5q-21 28 -21 60q0 44 48 71.5t127 27.5q91 0 136 -41t45 -116v-354q-26 10 -61 10q-14 0 -57.5 -8.5t-65.5 -8.5q-91 0 -140 39t-49 103zM111 129 q0 -41 34.5 -65.5t105.5 -24.5q33 0 63 6.5t44 12.5l14 7v222q-6 -23 -49 -36t-89.5 -20t-84.5 -32.5t-38 -69.5zM252 561q-63 0 -98 31.5t-35 74.5q0 62 53 73q-7 -17 -7 -36q0 -89 87 -89t87 89q0 15 -7 36q27 -6 40 -26.5t13 -46.5q0 -43 -35 -74.5t-98 -31.5z" />
<glyph unicode="&#x104;" horiz-adv-x="602" d="M479 162l-20 70h-316l-20 -70l-7 -25.5t-7.5 -27t-8 -25t-10 -25t-10.5 -21t-13 -19.5t-15.5 -14t-19 -10t-22.5 -3q-7 0 -10 1q5 9 13 28t18.5 50.5l20 60.5l23.5 75l23 75.5l25 81.5l23 75q59 191 155 266q96 -75 155 -266l23 -75l25 -81.5l23 -75.5l23.5 -75l20 -60.5 t18.5 -50.5t13 -28q-3 -1 -10 -1h-1q-4 -1 -15 -4.5t-30 -13t-35 -23t-28 -36t-12 -49.5q0 -29 19 -42.5t43.5 -12t48.5 10.5q0 -27 -21 -42.5t-51 -15.5q-48 0 -73.5 26t-25.5 70q0 33 14 60.5t37 45.5t41.5 28.5t37.5 17.5q-7 7 -13 15t-11.5 20l-9 19.5t-8.5 24.5 t-6.5 22.5l-7 25.5t-6.5 23zM159 287h284l-38 126q-20 65 -46 118.5t-42 74.5l-16 21q-7 -8 -18 -23t-38.5 -70.5t-47.5 -120.5z" />
<glyph unicode="&#x105;" horiz-adv-x="497" d="M55 130q0 54 29.5 87.5t73 46.5t88 21.5t81 24t45.5 42.5q0 48 -27.5 74t-98.5 26q-72 0 -113 -28.5t-41 -76.5q-21 28 -21 60q0 44 48 71.5t127 27.5q91 0 136 -41t45 -116v-309v-7q-22 -16 -33 -25t-34.5 -32.5t-35.5 -51t-12 -58.5q0 -29 19 -42.5t43.5 -12t48.5 10.5 q0 -27 -21 -42.5t-51 -15.5q-48 0 -73.5 26t-25.5 70q0 74 70 138q-60 -10 -79 -10q-91 0 -139.5 39t-48.5 103zM111 129q0 -41 34.5 -65.5t105.5 -24.5q33 0 63 5.5t44 11.5l14 6v225q-3 -21 -31.5 -33t-66 -17.5t-75 -14.5t-63 -32t-25.5 -61z" />
<glyph unicode="&#x106;" horiz-adv-x="660" d="M344 650q-211 0 -211 -183v-239q0 -184 206 -184q33 0 65 3.5t76.5 14.5t71.5 38.5t26 67.5q15 -32 16 -59t-9.5 -45t-31.5 -32t-46 -22t-55.5 -13.5t-57 -7t-55.5 -1.5q-117 0 -190.5 54t-73.5 171v268q0 116 76 170.5t193 54.5q26 0 50.5 -1.5t55.5 -5.5t56 -11.5 t47 -20.5t33 -30.5t10 -44t-18 -58.5q0 34 -24.5 58.5t-63.5 36t-75 16.5t-71 5zM421 934q35 -21 46 -38.5t-4 -45t-65 -67.5l-48 -38q-23 3 -34.5 13.5t2.5 26.5l69 65q44 44 34 84z" />
<glyph unicode="&#x107;" horiz-adv-x="493" d="M424 152q25 -36 25 -63q0 -49 -55 -75t-130 -26q-91 0 -145 41t-54 114v208q0 73 50 114t139 41q78 0 125.5 -27t47.5 -72q0 -31 -22 -60q0 48 -40.5 76.5t-112.5 28.5q-132 0 -132 -112v-187q0 -51 36.5 -81t107.5 -30t115.5 28t44.5 82zM324 750q35 -21 46 -38.5 t-4 -45t-65 -67.5l-48 -38q-23 3 -34.5 13.5t2.5 26.5l69 65q44 44 34 84z" />
<glyph unicode="&#x108;" horiz-adv-x="660" d="M344 650q-211 0 -211 -183v-239q0 -184 206 -184q33 0 65 3.5t76.5 14.5t71.5 38.5t26 67.5q15 -32 16 -59t-9.5 -45t-31.5 -32t-46 -22t-55.5 -13.5t-57 -7t-55.5 -1.5q-117 0 -190.5 54t-73.5 171v268q0 116 76 170.5t193 54.5q26 0 50.5 -1.5t55.5 -5.5t56 -11.5 t47 -20.5t33 -30.5t10 -44t-18 -58.5q0 34 -24.5 58.5t-63.5 36t-75 16.5t-71 5zM267 870l81 67l81 -67q39 -32 37 -67t-45 -57q6 12 6 24q0 18 -20 44t-40 43l-19 17q-9 -7 -22 -18.5t-35 -39.5t-22 -46q0 -12 6 -24q-43 22 -45 57t37 67z" />
<glyph unicode="&#x109;" horiz-adv-x="493" d="M424 152q25 -36 25 -63q0 -49 -55 -75t-130 -26q-91 0 -145 41t-54 114v208q0 73 50 114t139 41q78 0 125.5 -27t47.5 -72q0 -31 -22 -60q0 48 -40.5 76.5t-112.5 28.5q-132 0 -132 -112v-187q0 -51 36.5 -81t107.5 -30t115.5 28t44.5 82zM170 686l81 67l81 -67 q39 -32 37 -67t-45 -57q6 12 6 24q0 18 -20 44t-40 43l-19 17q-9 -7 -22 -18.5t-35 -39.5t-22 -46q0 -12 6 -24q-43 22 -45 57t37 67z" />
<glyph unicode="&#x10c;" horiz-adv-x="660" d="M344 650q-211 0 -211 -183v-239q0 -184 206 -184q33 0 65 3.5t76.5 14.5t71.5 38.5t26 67.5q15 -32 16 -59t-9.5 -45t-31.5 -32t-46 -22t-55.5 -13.5t-57 -7t-55.5 -1.5q-117 0 -190.5 54t-73.5 171v268q0 116 76 170.5t193 54.5q26 0 50.5 -1.5t55.5 -5.5t56 -11.5 t47 -20.5t33 -30.5t10 -44t-18 -58.5q0 34 -24.5 58.5t-63.5 36t-75 16.5t-71 5zM260 953q-3 -8 -4 -15.5t-1 -14t3.5 -14.5t5.5 -13t9 -13.5t10 -12.5t12 -12.5t12 -11l13.5 -11.5t12.5 -11q3 3 15.5 14t18 16.5l16 16.5t15 19t9.5 19t4.5 22t-5.5 22q43 -15 44.5 -54.5 t-35.5 -69.5l-73 -61h-18l-73 60q-39 30 -38 68t47 57z" />
<glyph unicode="&#x10d;" horiz-adv-x="493" d="M424 152q25 -36 25 -63q0 -49 -55 -75t-130 -26q-91 0 -145 41t-54 114v208q0 73 50 114t139 41q78 0 125.5 -27t47.5 -72q0 -31 -22 -60q0 48 -40.5 76.5t-112.5 28.5q-132 0 -132 -112v-187q0 -51 36.5 -81t107.5 -30t115.5 28t44.5 82zM177 753q-3 -8 -4 -15.5t-1 -14 t3.5 -14.5t5.5 -13t9 -13.5t10 -12.5t12 -12.5t12 -11l13.5 -11.5t12.5 -11q3 3 15.5 14t18 16.5l16 16.5t15 19t9.5 19t4.5 22t-5.5 22q43 -15 44.5 -54.5t-35.5 -69.5l-73 -61h-18l-73 60q-39 30 -38 68t47 57z" />
<glyph unicode="&#x10e;" horiz-adv-x="686" d="M338 640h-195v-586h195q215 0 215 181v225q0 180 -215 180zM338 0h-183q-10 0 -22.5 1.5t-30 12.5t-17.5 30v650h253q56 0 102.5 -11t86 -35t62 -70t22.5 -109v-244q0 -63 -22.5 -109t-62 -70t-86 -35t-102.5 -11zM273 953q-3 -8 -4 -15.5t-1 -14t3.5 -14.5t5.5 -13 t9 -13.5t10 -12.5t12 -12.5t12 -11l13.5 -11.5t12.5 -11q3 3 15.5 14t18 16.5l16 16.5t15 19t9.5 19t4.5 22t-5.5 22q43 -15 44.5 -54.5t-35.5 -69.5l-73 -61h-18l-73 60q-39 30 -38 68t47 57z" />
<glyph unicode="&#x10f;" horiz-adv-x="607" d="M523 694h29q24 0 28.5 -6t4.5 -30v-34q0 -109 -53 -109q-20 0 -35 9q43 9 34 93zM386 548v192q55 0 55 -53v-692q-26 10 -53 10q-19 0 -67 -8.5t-74 -8.5q-85 0 -133.5 41t-48.5 111v214q0 69 47 110t116 41q39 0 71 -6.5t49.5 -15.5t29 -18t15.5 -15l4 -7 q-11 19 -11 105zM386 64v285q0 45 -44 74.5t-101 29.5q-55 0 -88 -28.5t-33 -85.5v-184q0 -60 32.5 -87.5t112.5 -27.5q33 0 63 6t44 12z" />
<glyph unicode="&#x110;" horiz-adv-x="686" d="M55 376h30v318h253q56 0 102.5 -11t86 -35t62 -70t22.5 -109v-244q0 -63 -22.5 -109t-62 -70t-86 -35t-102.5 -11h-183q-10 0 -22.5 1.5t-30 12.5t-17.5 30v278h-57q-1 9 -1.5 21t7 22.5t21.5 10.5zM338 640h-195v-264h230q4 -16 -1.5 -35t-26.5 -19h-202v-268h195 q215 0 215 181v225q0 180 -215 180z" />
<glyph unicode="&#x111;" horiz-adv-x="516" d="M326 631h60v109q55 0 55 -53v-56h82q8 -51 -25 -51h-57v-585q-26 10 -53 10q-19 0 -67 -8.5t-74 -8.5q-85 0 -133.5 41t-48.5 111v214q0 69 47 110t116 41q43 0 77 -7.5t52 -19t26 -19t13 -14.5q-10 20 -10 103v32h-84q-6 14 0 32.5t24 18.5zM386 64v285q0 45 -44 74.5 t-101 29.5q-55 0 -88 -28.5t-33 -85.5v-184q0 -60 32.5 -87.5t112.5 -27.5q33 0 63 6t44 12z" />
<glyph unicode="&#x112;" horiz-adv-x="551" d="M394 355h-251v-301h358q0 -7 -1 -16t-10 -23.5t-26 -14.5h-307q-8 0 -20 1t-32 12t-20 31v650h416v-5.5t-2 -13t-5.5 -16.5t-11.5 -13t-18 -6h-321v-231h245q59 0 73 14q0 -13 -4.5 -27t-20.5 -27.5t-42 -13.5zM190 839h241q8 -51 -25 -51h-240q-6 14 0 32.5t24 18.5z " />
<glyph unicode="&#x113;" horiz-adv-x="497" d="M419 152q23 -32 23 -64q0 -48 -56.5 -74t-131.5 -26q-87 0 -138 41t-51 114v208q0 73 47.5 114t136.5 41q88 0 138 -39.5t50 -105.5q0 -64 -47 -102t-146 -38q-65 0 -124 26v-89q0 -59 30 -87.5t104 -28.5q72 0 118.5 28.5t46.5 81.5zM120 336v-38l22 -8q56 -15 97 -15 q143 0 143 86q0 93 -131 93q-75 0 -103 -29t-28 -89zM143 655h241q8 -51 -25 -51h-240q-6 14 0 32.5t24 18.5z" />
<glyph unicode="&#x116;" horiz-adv-x="551" d="M394 355h-251v-301h358q0 -7 -1 -16t-10 -23.5t-26 -14.5h-307q-8 0 -20 1t-32 12t-20 31v650h416v-5.5t-2 -13t-5.5 -16.5t-11.5 -13t-18 -6h-321v-231h245q59 0 73 14q0 -13 -4.5 -27t-20.5 -27.5t-42 -13.5zM267 803v56h52q11 0 11 -14v-55h-52q-11 0 -11 13z" />
<glyph unicode="&#x117;" horiz-adv-x="497" d="M419 152q23 -32 23 -64q0 -48 -56.5 -74t-131.5 -26q-87 0 -138 41t-51 114v208q0 73 47.5 114t136.5 41q88 0 138 -39.5t50 -105.5q0 -64 -47 -102t-146 -38q-65 0 -124 26v-89q0 -59 30 -87.5t104 -28.5q72 0 118.5 28.5t46.5 81.5zM120 336v-38l22 -8q56 -15 97 -15 q143 0 143 86q0 93 -131 93q-75 0 -103 -29t-28 -89zM220 619v56h52q11 0 11 -14v-55h-52q-11 0 -11 13z" />
<glyph unicode="&#x118;" horiz-adv-x="551" d="M394 355h-251v-301h358q-8 -26 -35.5 -56t-49.5 -61.5t-22 -70.5q0 -29 20 -42.5t45 -12t49 10.5q0 -27 -21 -42.5t-51 -15.5q-48 0 -75 26t-27 70q0 74 74 140h-251q-8 0 -20 1t-32 12t-20 31v650h416v-5.5t-2 -13t-5.5 -16.5t-11.5 -13t-18 -6h-321v-231h245 q59 0 73 14q0 -13 -4.5 -27t-20.5 -27.5t-42 -13.5z" />
<glyph unicode="&#x119;" horiz-adv-x="497" d="M419 152q23 -32 23 -64q0 -40 -47 -67q-36 -26 -66.5 -66.5t-30.5 -88.5q0 -29 20 -42.5t45 -12t49 10.5q0 -27 -21 -42.5t-51 -15.5q-48 0 -75 26t-27 70q0 68 65 131q-24 -3 -49 -3q-87 0 -138 41t-51 114v208q0 73 47.5 114t136.5 41q88 0 138 -39.5t50 -105.5 q0 -64 -47 -102t-146 -38q-65 0 -124 26v-89q0 -59 30 -87.5t104 -28.5q72 0 118.5 28.5t46.5 81.5zM120 336v-38l22 -8q56 -15 97 -15q143 0 143 86q0 93 -131 93q-75 0 -103 -29t-28 -89z" />
<glyph unicode="&#x11a;" horiz-adv-x="551" d="M394 355h-251v-301h358q0 -7 -1 -16t-10 -23.5t-26 -14.5h-307q-8 0 -20 1t-32 12t-20 31v650h416v-5.5t-2 -13t-5.5 -16.5t-11.5 -13t-18 -6h-321v-231h245q59 0 73 14q0 -13 -4.5 -27t-20.5 -27.5t-42 -13.5zM206 953q-3 -8 -4 -15.5t-1 -14t3.5 -14.5t5.5 -13t9 -13.5 t10 -12.5t12 -12.5t12 -11l13.5 -11.5t12.5 -11q3 3 15.5 14t18 16.5l16 16.5t15 19t9.5 19t4.5 22t-5.5 22q43 -15 44.5 -54.5t-35.5 -69.5l-73 -61h-18l-73 60q-39 30 -38 68t47 57z" />
<glyph unicode="&#x11b;" horiz-adv-x="497" d="M419 152q23 -32 23 -64q0 -48 -56.5 -74t-131.5 -26q-87 0 -138 41t-51 114v208q0 73 47.5 114t136.5 41q88 0 138 -39.5t50 -105.5q0 -64 -47 -102t-146 -38q-65 0 -124 26v-89q0 -59 30 -87.5t104 -28.5q72 0 118.5 28.5t46.5 81.5zM120 336v-38l22 -8q56 -15 97 -15 q143 0 143 86q0 93 -131 93q-75 0 -103 -29t-28 -89zM179 753q-3 -8 -4 -15.5t-1 -14t3.5 -14.5t5.5 -13t9 -13.5t10 -12.5t12 -12.5t12 -11l13.5 -11.5t12.5 -11q3 3 15.5 14t18 16.5l16 16.5t15 19t9.5 19t4.5 22t-5.5 22q43 -15 44.5 -54.5t-35.5 -69.5l-73 -61h-18 l-73 60q-39 30 -38 68t47 57z" />
<glyph unicode="&#x11c;" d="M75 213v268q0 116 76 170.5t193 54.5q25 0 49 -1.5t55 -6t55.5 -12t47 -20.5t34 -30.5t11 -44t-17.5 -58.5q0 34 -24.5 58.5t-63.5 36.5t-75 17t-71 5q-211 0 -211 -183v-239q0 -184 206 -184t206 179v71h-152q-40 0 -48 56l-1 8q24 -10 64 -10h194v-140q0 -60 -21 -104 t-58.5 -68.5t-83 -36t-100.5 -11.5q-117 0 -190.5 54t-73.5 171zM263 870l81 67l81 -67q39 -32 37 -67t-45 -57q6 12 6 24q0 18 -20 44t-40 43l-19 17q-9 -7 -22 -18.5t-35 -39.5t-22 -46q0 -12 6 -24q-43 22 -45 57t37 67z" />
<glyph unicode="&#x11d;" horiz-adv-x="482" d="M427 500v-196q0 -74 -47 -114.5t-136 -40.5q-101 2 -134 35q-10 -35 -10 -58q0 -45 26 -58t101 -13h33q33 0 54.5 -1.5t49.5 -8.5t44.5 -19.5t28 -37t11.5 -59.5q0 -79 -50 -125t-151 -46q-82 0 -140 26t-58 73q0 34 23 66q0 -111 175 -111q83 0 113.5 32.5t30.5 89.5 q0 23 -9.5 37t-30.5 20t-41 8t-53 2h-49q-38 0 -63 3t-50.5 13.5t-38 33t-12.5 58.5q0 30 10 50.5t34 49.5q-28 37 -28 95v60q0 72 48.5 106.5t122.5 34.5q26 0 75.5 -9t64.5 -9q30 0 56 13zM244 201q73 0 100.5 29t27.5 89v108q-52 26 -132 26q-71 0 -98 -24.5t-27 -79.5 v-30q0 -60 28 -89t101 -29zM160 686l81 67l81 -67q39 -32 37 -67t-45 -57q6 12 6 24q0 18 -20 44t-40 43l-19 17q-9 -7 -22 -18.5t-35 -39.5t-22 -46q0 -12 6 -24q-43 22 -45 57t37 67z" />
<glyph unicode="&#x11e;" d="M75 213v268q0 116 76 170.5t193 54.5q25 0 49 -1.5t55 -6t55.5 -12t47 -20.5t34 -30.5t11 -44t-17.5 -58.5q0 34 -24.5 58.5t-63.5 36.5t-75 17t-71 5q-211 0 -211 -183v-239q0 -184 206 -184t206 179v71h-152q-40 0 -48 56l-1 8q24 -10 64 -10h194v-140q0 -60 -21 -104 t-58.5 -68.5t-83 -36t-100.5 -11.5q-117 0 -190.5 54t-73.5 171zM344 745q-63 0 -98 31.5t-35 74.5q0 62 53 73q-7 -17 -7 -36q0 -89 87 -89t87 89q0 15 -7 36q27 -6 40 -26.5t13 -46.5q0 -43 -35 -74.5t-98 -31.5z" />
<glyph unicode="&#x11f;" horiz-adv-x="482" d="M427 500v-196q0 -74 -47 -114.5t-136 -40.5q-101 2 -134 35q-10 -35 -10 -58q0 -45 26 -58t101 -13h33q33 0 54.5 -1.5t49.5 -8.5t44.5 -19.5t28 -37t11.5 -59.5q0 -79 -50 -125t-151 -46q-82 0 -140 26t-58 73q0 34 23 66q0 -111 175 -111q83 0 113.5 32.5t30.5 89.5 q0 23 -9.5 37t-30.5 20t-41 8t-53 2h-49q-38 0 -63 3t-50.5 13.5t-38 33t-12.5 58.5q0 30 10 50.5t34 49.5q-28 37 -28 95v60q0 72 48.5 106.5t122.5 34.5q26 0 75.5 -9t64.5 -9q30 0 56 13zM244 201q73 0 100.5 29t27.5 89v108q-52 26 -132 26q-71 0 -98 -24.5t-27 -79.5 v-30q0 -60 28 -89t101 -29zM241 561q-63 0 -98 31.5t-35 74.5q0 62 53 73q-7 -17 -7 -36q0 -89 87 -89t87 89q0 15 -7 36q27 -6 40 -26.5t13 -46.5q0 -43 -35 -74.5t-98 -31.5z" />
<glyph unicode="&#x122;" d="M75 213v268q0 116 76 170.5t193 54.5q25 0 49 -1.5t55 -6t55.5 -12t47 -20.5t34 -30.5t11 -44t-17.5 -58.5q0 34 -24.5 58.5t-63.5 36.5t-75 17t-71 5q-211 0 -211 -183v-239q0 -184 206 -184t206 179v71h-152q-40 0 -48 56l-1 8q24 -10 64 -10h194v-140q0 -60 -21 -104 t-58.5 -68.5t-83 -36t-100.5 -11.5q-117 0 -190.5 54t-73.5 171zM318 -36h29q24 0 28.5 -6t4.5 -30v-34q0 -109 -53 -109q-20 0 -35 9q43 9 34 93z" />
<glyph unicode="&#x123;" horiz-adv-x="482" d="M427 500v-196q0 -74 -47 -114.5t-136 -40.5q-101 2 -134 35q-10 -35 -10 -58q0 -45 26 -58t101 -13h33q33 0 54.5 -1.5t49.5 -8.5t44.5 -19.5t28 -37t11.5 -59.5q0 -79 -50 -125t-151 -46q-82 0 -140 26t-58 73q0 34 23 66q0 -111 175 -111q83 0 113.5 32.5t30.5 89.5 q0 23 -9.5 37t-30.5 20t-41 8t-53 2h-49q-38 0 -63 3t-50.5 13.5t-38 33t-12.5 58.5q0 30 10 50.5t34 49.5q-28 37 -28 95v60q0 72 48.5 106.5t122.5 34.5q26 0 75.5 -9t64.5 -9q30 0 56 13zM244 201q73 0 100.5 29t27.5 89v108q-52 26 -132 26q-71 0 -98 -24.5t-27 -79.5 v-30q0 -60 28 -89t101 -29zM274 567h-29q-24 0 -28.5 5.5t-4.5 30.5v34q0 109 53 109q20 0 35 -9q-43 -9 -34 -93z" />
<glyph unicode="&#x124;" horiz-adv-x="690" d="M547 34v301h-404v-345q-6 0 -16 1t-26 12t-16 31v670q6 0 16 -1t26 -12t16 -31v-270h404v314q6 0 16 -1t26 -12t16 -31v-670q-6 0 -16 1t-26 12t-16 31zM265 870l81 67l81 -67q39 -32 37 -67t-45 -57q6 12 6 24q0 18 -20 44t-40 43l-19 17q-9 -7 -22 -18.5t-35 -39.5 t-22 -46q0 -12 6 -24q-43 22 -45 57t37 67z" />
<glyph unicode="&#x125;" horiz-adv-x="526" d="M130 349v-356q-6 0 -15 1t-24.5 12t-15.5 31v704q8 0 17 -1.5t23.5 -14.5t14.5 -38v-139l-11 -105q2 3 5 7t17 15t31.5 19t48.5 15t68 7q68 0 115 -42t47 -110v-361q-2 0 -6 0.5t-13.5 3t-16.5 6.5t-13 13t-6 21v302q0 59 -32.5 87t-87.5 28q-57 0 -101.5 -30t-44.5 -75z M188 870l81 67l81 -67q39 -32 37 -67t-45 -57q6 12 6 24q0 18 -20 44t-40 43l-19 17q-9 -7 -22 -18.5t-35 -39.5t-22 -46q0 -12 6 -24q-43 22 -45 57t37 67z" />
<glyph unicode="&#x12a;" horiz-adv-x="228" d="M85 34v670q6 0 16 -1t26 -12t16 -31v-670q-6 0 -16 1t-26 12t-16 31zM6 839h241q8 -51 -25 -51h-240q-6 14 0 32.5t24 18.5z" />
<glyph unicode="&#x12b;" horiz-adv-x="205" d="M75 32v458q4 0 10.5 -1t18 -4.5t19 -13.5t7.5 -24v-458q-2 0 -6 0.5t-13.5 2.5t-16.5 6t-13 13t-6 21zM-6 655h241q8 -51 -25 -51h-240q-6 14 0 32.5t24 18.5z" />
<glyph unicode="&#x12e;" horiz-adv-x="228" d="M143 -8v-2q-60 -56 -60 -124q0 -29 20 -42.5t44 -12t47 10.5q0 -27 -21 -42.5t-51 -15.5q-48 0 -73.5 26t-25.5 70q0 79 74 145q-12 10 -12 29v670q6 0 16 -1t26 -12t16 -31v-668z" />
<glyph unicode="&#x12f;" horiz-adv-x="205" d="M130 457v-467q-57 -54 -57 -124q0 -29 20 -42.5t44 -12t47 10.5q0 -27 -21 -42.5t-51 -15.5q-48 0 -73.5 26t-25.5 70q0 79 74 145q-12 10 -12 29v467q8 0 18 -1.5t23.5 -12.5t13.5 -30zM71 617v56h52q11 0 11 -14v-55h-52q-11 0 -11 13z" />
<glyph unicode="&#x130;" horiz-adv-x="228" d="M85 34v670q6 0 16 -1t26 -12t16 -31v-670q-6 0 -16 1t-26 12t-16 31zM83 803v56h52q11 0 11 -14v-55h-52q-11 0 -11 13z" />
<glyph unicode="&#x131;" horiz-adv-x="205" d="M75 32v458q4 0 10.5 -1t18 -4.5t19 -13.5t7.5 -24v-458q-2 0 -6 0.5t-13.5 2.5t-16.5 6t-13 13t-6 21z" />
<glyph unicode="&#x134;" horiz-adv-x="218" d="M133 658v-704q0 -71 -22.5 -112t-62.5 -41q-22 0 -40 18q34 0 50.5 48.5t16.5 111.5v725q8 0 19 -2t25 -13.5t14 -30.5zM24 870l81 67l81 -67q39 -32 37 -67t-45 -57q6 12 6 24q0 18 -20 44t-40 43l-19 17q-9 -7 -22 -18.5t-35 -39.5t-22 -46q0 -12 6 -24q-43 22 -45 57 t37 67z" />
<glyph unicode="&#x135;" horiz-adv-x="205" d="M130 457v-560q0 -57 -22.5 -96.5t-58.5 -39.5q-18 0 -36 16q31 0 46.5 47.5t15.5 104.5v572q6 0 15 -1t24.5 -12t15.5 -31zM22 686l81 67l81 -67q39 -32 37 -67t-45 -57q6 12 6 24q0 18 -20 44t-40 43l-19 17q-9 -7 -22 -18.5t-35 -39.5t-22 -46q0 -12 6 -24 q-43 22 -45 57t37 67z" />
<glyph unicode="&#x136;" horiz-adv-x="574" d="M143 360v-370q-6 0 -16 1t-26 12t-16 31v670q6 0 16 -1t26 -12t16 -31v-260q58 2 101.5 18t80.5 50t65.5 75.5t64.5 108.5q29 54 82 54l13 -1q-10 -15 -32 -57.5t-44.5 -80t-53 -79t-71.5 -70.5t-86 -37q45 -5 88 -37.5t78 -84t61.5 -98.5t53 -100t36.5 -70 q-12 -3 -24 -3q-23 0 -40 13t-33 44l-12 23l-31.5 58.5l-29.5 53t-32.5 50.5l-34.5 41.5t-40.5 37t-44.5 26t-53.5 19t-61.5 6.5zM287 -36h29q24 0 28.5 -6t4.5 -30v-34q0 -109 -53 -109q-20 0 -35 9q43 9 34 93z" />
<glyph unicode="&#x137;" horiz-adv-x="460" d="M222 290q51 -9 91 -38t63 -67t38 -74.5t27 -70t19 -43.5q-17 -4 -26 -4q-23 0 -38.5 19t-24 47.5t-25 62.5t-38.5 63.5t-68 51t-110 24.5v-268q-6 0 -15 1t-24.5 12t-15.5 31v706q6 0 15 -1t24.5 -12t15.5 -31v-388h14q69 0 108.5 34t85.5 118q7 13 11 18t21 12.5t44 7.5 l10 -1q-5 -8 -23.5 -41t-34 -57t-38.5 -52t-50 -44t-56 -16zM228 -36h29q24 0 28.5 -6t4.5 -30v-34q0 -109 -53 -109q-20 0 -35 9q43 9 34 93z" />
<glyph unicode="&#x139;" horiz-adv-x="484" d="M431 0h-274q-8 0 -20 1t-32 12t-20 31v660q6 0 16 -1t26 -12t16 -31v-606h262q26 0 44.5 2.5t23.5 5.5l5 2q0 -19 -13 -41.5t-34 -22.5zM186 934q35 -21 46 -38.5t-4 -45t-65 -67.5l-48 -38q-23 3 -34.5 13.5t2.5 26.5l69 65q44 44 34 84z" />
<glyph unicode="&#x13a;" horiz-adv-x="205" d="M70 135v608q5 0 11 -1t17.5 -4.5t19 -13.5t7.5 -25v-538q0 -64 15.5 -106.5t49.5 -42.5q-13 -19 -39 -19q-40 0 -60.5 39t-20.5 103zM169 964q35 -21 46 -38.5t-4 -45t-65 -67.5l-48 -38q-23 3 -34.5 13.5t2.5 26.5l69 65q44 44 34 84z" />
<glyph unicode="&#x13b;" horiz-adv-x="484" d="M431 0h-274q-8 0 -20 1t-32 12t-20 31v660q6 0 16 -1t26 -12t16 -31v-606h262q26 0 44.5 2.5t23.5 5.5l5 2q0 -19 -13 -41.5t-34 -22.5zM253 -36h29q24 0 28.5 -6t4.5 -30v-34q0 -109 -53 -109q-20 0 -35 9q43 9 34 93z" />
<glyph unicode="&#x13c;" horiz-adv-x="205" d="M70 135v608q5 0 11 -1t17.5 -4.5t19 -13.5t7.5 -25v-538q0 -64 15.5 -106.5t49.5 -42.5q-13 -19 -39 -19q-40 0 -60.5 39t-20.5 103zM98 -36h29q24 0 28.5 -6t4.5 -30v-34q0 -109 -53 -109q-20 0 -35 9q43 9 34 93z" />
<glyph unicode="&#x13d;" horiz-adv-x="484" d="M273 694h29q24 0 28.5 -6t4.5 -30v-34q0 -109 -53 -109q-20 0 -35 9q43 9 34 93zM431 0h-274q-8 0 -20 1t-32 12t-20 31v660q6 0 16 -1t26 -12t16 -31v-606h262q26 0 44.5 2.5t23.5 5.5l5 2q0 -19 -13 -41.5t-34 -22.5z" />
<glyph unicode="&#x13e;" horiz-adv-x="291" d="M207 694h29q24 0 28.5 -6t4.5 -30v-34q0 -109 -53 -109q-20 0 -35 9q43 9 34 93zM70 135v608q5 0 11 -1t17.5 -4.5t19 -13.5t7.5 -25v-538q0 -64 15.5 -106.5t49.5 -42.5q-13 -19 -39 -19q-40 0 -60.5 39t-20.5 103z" />
<glyph unicode="&#x141;" horiz-adv-x="484" d="M431 0h-274q-8 0 -20 1t-32 12t-20 31v330l-61 -25q-6 8 -9.5 18.5t-1.5 23.5t15 18l57 23v272q6 0 16 -1t26 -12t16 -31v-204l54 22q5 -8 8.5 -18.5t1.5 -24t-16 -18.5l-48 -20v-343h262q26 0 44.5 2.5t23.5 5.5l5 2q0 -19 -13 -41.5t-34 -22.5z" />
<glyph unicode="&#x142;" horiz-adv-x="205" d="M70 135v241l-61 -25q-6 8 -9.5 18.5t-1.5 23.5t15 18l57 23v309q5 0 11 -1t17.5 -4.5t19 -13.5t7.5 -25v-242l57 23q5 -8 8.5 -18.5t1.5 -24t-16 -18.5l-51 -21v-237q0 -64 15.5 -106.5t49.5 -42.5q-13 -19 -39 -19q-40 0 -60.5 39t-20.5 103z" />
<glyph unicode="&#x143;" horiz-adv-x="691" d="M195 646l322 -521l39 -69q-8 49 -8 71v567q6 0 16 -1t26 -12t16 -31v-660q-37 0 -64.5 15.5t-37.5 30.5l-9 16l-360 579q8 -43 8 -83v-558q-6 0 -16 1t-26 12t-16 31v660q29 0 43.5 -1.5t33.5 -12.5t33 -34zM419 934q35 -21 46 -38.5t-4 -45t-65 -67.5l-48 -38 q-23 3 -34.5 13.5t2.5 26.5l69 65q44 44 34 84z" />
<glyph unicode="&#x144;" horiz-adv-x="526" d="M396 37v310q0 52 -31 78.5t-102 26.5q-37 0 -70.5 -6t-48.5 -12l-14 -6v-435q-6 0 -15 1t-24.5 12t-15.5 31v461q28 -14 45 -14q24 0 74 11t83 11q74 0 124 -33t50 -111v-369q-6 0 -15 1t-24.5 12t-15.5 31zM331 750q35 -21 46 -38.5t-4 -45t-65 -67.5l-48 -38 q-23 3 -34.5 13.5t2.5 26.5l69 65q44 44 34 84z" />
<glyph unicode="&#x145;" horiz-adv-x="691" d="M195 646l322 -521l39 -69q-8 49 -8 71v567q6 0 16 -1t26 -12t16 -31v-660q-37 0 -64.5 15.5t-37.5 30.5l-9 16l-360 579q8 -43 8 -83v-558q-6 0 -16 1t-26 12t-16 31v660q29 0 43.5 -1.5t33.5 -12.5t33 -34zM317 -36h29q24 0 28.5 -6t4.5 -30v-34q0 -109 -53 -109 q-20 0 -35 9q43 9 34 93z" />
<glyph unicode="&#x146;" horiz-adv-x="526" d="M396 37v310q0 52 -31 78.5t-102 26.5q-37 0 -70.5 -6t-48.5 -12l-14 -6v-435q-6 0 -15 1t-24.5 12t-15.5 31v461q28 -14 45 -14q24 0 74 11t83 11q74 0 124 -33t50 -111v-369q-6 0 -15 1t-24.5 12t-15.5 31zM239 -36h29q24 0 28.5 -6t4.5 -30v-34q0 -109 -53 -109 q-20 0 -35 9q43 9 34 93z" />
<glyph unicode="&#x147;" horiz-adv-x="691" d="M195 646l322 -521l39 -69q-8 49 -8 71v567q6 0 16 -1t26 -12t16 -31v-660q-37 0 -64.5 15.5t-37.5 30.5l-9 16l-360 579q8 -43 8 -83v-558q-6 0 -16 1t-26 12t-16 31v660q29 0 43.5 -1.5t33.5 -12.5t33 -34zM275 953q-3 -8 -4 -15.5t-1 -14t3.5 -14.5t5.5 -13t9 -13.5 t10 -12.5t12 -12.5t12 -11l13.5 -11.5t12.5 -11q3 3 15.5 14t18 16.5l16 16.5t15 19t9.5 19t4.5 22t-5.5 22q43 -15 44.5 -54.5t-35.5 -69.5l-73 -61h-18l-73 60q-39 30 -38 68t47 57z" />
<glyph unicode="&#x148;" horiz-adv-x="526" d="M396 37v310q0 52 -31 78.5t-102 26.5q-37 0 -70.5 -6t-48.5 -12l-14 -6v-435q-6 0 -15 1t-24.5 12t-15.5 31v461q28 -14 45 -14q24 0 74 11t83 11q74 0 124 -33t50 -111v-369q-6 0 -15 1t-24.5 12t-15.5 31zM193 753q-3 -8 -4 -15.5t-1 -14t3.5 -14.5t5.5 -13t9 -13.5 t10 -12.5t12 -12.5t12 -11l13.5 -11.5t12.5 -11q3 3 15.5 14t18 16.5l16 16.5t15 19t9.5 19t4.5 22t-5.5 22q43 -15 44.5 -54.5t-35.5 -69.5l-73 -61h-18l-73 60q-39 30 -38 68t47 57z" />
<glyph unicode="&#x14c;" d="M602 490v-286q0 -104 -65.5 -160t-197.5 -56q-133 0 -198.5 56t-65.5 160v286q0 104 65.5 160t198.5 56q132 0 197.5 -56t65.5 -160zM544 217v260q0 87 -43 131t-163 44q-62 0 -103.5 -12.5t-63 -37t-30 -54t-8.5 -71.5v-260q0 -87 42.5 -131t162.5 -44t163 44t43 131z M231 839h241q8 -51 -25 -51h-240q-6 14 0 32.5t24 18.5z" />
<glyph unicode="&#x14d;" horiz-adv-x="537" d="M472 351v-208q0 -155 -203 -155q-204 0 -204 155v208q0 74 51 114.5t153 40.5t152.5 -40.5t50.5 -114.5zM417 158v178q0 61 -30.5 89.5t-117.5 28.5t-118 -28.5t-31 -89.5v-178q0 -61 30.5 -90t118.5 -29q87 0 117.5 29t30.5 90zM161 655h241q8 -51 -25 -51h-240 q-6 14 0 32.5t24 18.5z" />
<glyph unicode="&#x150;" d="M602 490v-286q0 -104 -65.5 -160t-197.5 -56q-133 0 -198.5 56t-65.5 160v286q0 104 65.5 160t198.5 56q132 0 197.5 -56t65.5 -160zM544 217v260q0 87 -43 131t-163 44q-62 0 -103.5 -12.5t-63 -37t-30 -54t-8.5 -71.5v-260q0 -87 42.5 -131t162.5 -44t163 44t43 131z M436 934q26 -15 37.5 -28t11 -30.5t-19 -39.5t-56.5 -52l-48 -38q-22 3 -32 13t4 26l69 65q44 44 34 84zM291 934q30 -18 41.5 -34t3 -38t-42.5 -50l-48 -40q-23 3 -32 12t5 25l39 41q44 44 34 84z" />
<glyph unicode="&#x151;" horiz-adv-x="537" d="M472 351v-208q0 -155 -203 -155q-204 0 -204 155v208q0 74 51 114.5t153 40.5t152.5 -40.5t50.5 -114.5zM417 158v178q0 61 -30.5 89.5t-117.5 28.5t-118 -28.5t-31 -89.5v-178q0 -61 30.5 -90t118.5 -29q87 0 117.5 29t30.5 90zM366 750q26 -15 37.5 -28t11 -30.5 t-19 -39.5t-56.5 -52l-48 -38q-22 3 -32 13t4 26l69 65q44 44 34 84zM221 750q30 -18 41.5 -34t3 -38t-42.5 -50l-48 -40q-23 3 -32 12t5 25l39 41q44 44 34 84z" />
<glyph unicode="&#x152;" horiz-adv-x="792" d="M339 694h403v-5.5t-2 -13t-5.5 -16.5t-11.5 -13t-18 -6h-271v-231h195q59 0 73 14q0 -13 -4.5 -27t-20.5 -27.5t-42 -13.5h-201v-301h308q0 -7 -1 -16t-10 -23.5t-26 -14.5h-402q-117 7 -172.5 67t-55.5 177v205q0 124 64.5 184.5t199.5 60.5zM133 257 q0 -110 41.5 -157.5t163.5 -47.5h38v590h-38q-122 0 -163.5 -48t-41.5 -158v-179z" />
<glyph unicode="&#x153;" horiz-adv-x="849" d="M771 152q23 -32 23 -64q0 -48 -56.5 -74t-131.5 -26q-121 0 -161 71q-39 -71 -176 -71q-204 0 -204 155v208q0 74 51 114.5t153 40.5q137 0 175 -70q36 70 157 70q88 0 138 -39.5t50 -105.5q0 -64 -47 -102t-146 -38q-65 0 -124 26v-89q0 -59 30 -87.5t104 -28.5 q72 0 118.5 28.5t46.5 81.5zM417 147v189q0 61 -30.5 89.5t-117.5 28.5t-118 -28.5t-31 -89.5v-178q0 -61 30.5 -90t118.5 -29q83 0 114.5 26t33.5 82zM472 336v-38q0 -2 19 -7.5t48.5 -10.5t51.5 -5q143 0 143 86q0 93 -131 93q-75 0 -103 -29t-28 -89z" />
<glyph unicode="&#x154;" horiz-adv-x="547" d="M502 530v-30q0 -87 -58.5 -130t-155.5 -39q50 -16 95 -64.5t69.5 -96t51 -105t36.5 -73.5q-36 -5 -54.5 4.5t-38.5 48.5q-68 132 -94 169q-61 86 -155 108q-25 6 -55 8v-340q-2 0 -6 0.5t-14 3t-17.5 6.5t-14 13t-6.5 21v660h194q223 0 223 -164zM279 640h-136v-261h144 q84 0 120.5 34t36.5 102q0 65 -40.5 95t-124.5 30zM352 934q35 -21 46 -38.5t-4 -45t-65 -67.5l-48 -38q-23 3 -34.5 13.5t2.5 26.5l69 65q44 44 34 84z" />
<glyph unicode="&#x155;" horiz-adv-x="361" d="M342 385q-3 62 -99 62q-74 0 -113 -21v-433q-6 0 -15 1t-24.5 12t-15.5 31v461q28 -14 48 -14q19 0 67 11t75 11q62 0 83 -32.5t-6 -88.5zM257 750q35 -21 46 -38.5t-4 -45t-65 -67.5l-48 -38q-23 3 -34.5 13.5t2.5 26.5l69 65q44 44 34 84z" />
<glyph unicode="&#x156;" horiz-adv-x="547" d="M502 530v-30q0 -87 -58.5 -130t-155.5 -39q50 -16 95 -64.5t69.5 -96t51 -105t36.5 -73.5q-36 -5 -54.5 4.5t-38.5 48.5q-68 132 -94 169q-61 86 -155 108q-25 6 -55 8v-340q-2 0 -6 0.5t-14 3t-17.5 6.5t-14 13t-6.5 21v660h194q223 0 223 -164zM279 640h-136v-261h144 q84 0 120.5 34t36.5 102q0 65 -40.5 95t-124.5 30zM273 -36h29q24 0 28.5 -6t4.5 -30v-34q0 -109 -53 -109q-20 0 -35 9q43 9 34 93z" />
<glyph unicode="&#x157;" horiz-adv-x="361" d="M342 385q-3 62 -99 62q-74 0 -113 -21v-433q-6 0 -15 1t-24.5 12t-15.5 31v461q28 -14 48 -14q19 0 67 11t75 11q62 0 83 -32.5t-6 -88.5zM80 -36h29q24 0 28.5 -6t4.5 -30v-34q0 -109 -53 -109q-20 0 -35 9q43 9 34 93z" />
<glyph unicode="&#x158;" horiz-adv-x="547" d="M502 530v-30q0 -87 -58.5 -130t-155.5 -39q50 -16 95 -64.5t69.5 -96t51 -105t36.5 -73.5q-36 -5 -54.5 4.5t-38.5 48.5q-68 132 -94 169q-61 86 -155 108q-25 6 -55 8v-340q-2 0 -6 0.5t-14 3t-17.5 6.5t-14 13t-6.5 21v660h194q223 0 223 -164zM279 640h-136v-261h144 q84 0 120.5 34t36.5 102q0 65 -40.5 95t-124.5 30zM204 953q-3 -8 -4 -15.5t-1 -14t3.5 -14.5t5.5 -13t9 -13.5t10 -12.5t12 -12.5t12 -11l13.5 -11.5t12.5 -11q3 3 15.5 14t18 16.5l16 16.5t15 19t9.5 19t4.5 22t-5.5 22q43 -15 44.5 -54.5t-35.5 -69.5l-73 -61h-18l-73 60 q-39 30 -38 68t47 57z" />
<glyph unicode="&#x159;" horiz-adv-x="361" d="M342 385q-3 62 -99 62q-74 0 -113 -21v-433q-6 0 -15 1t-24.5 12t-15.5 31v461q28 -14 48 -14q19 0 67 11t75 11q62 0 83 -32.5t-6 -88.5zM143 753q-3 -8 -4 -15.5t-1 -14t3.5 -14.5t5.5 -13t9 -13.5t10 -12.5t12 -12.5t12 -11l13.5 -11.5t12.5 -11q3 3 15.5 14t18 16.5 l16 16.5t15 19t9.5 19t4.5 22t-5.5 22q43 -15 44.5 -54.5t-35.5 -69.5l-73 -61h-18l-73 60q-39 30 -38 68t47 57z" />
<glyph unicode="&#x15a;" horiz-adv-x="619" d="M55 512q0 104 72 149.5t187 45.5q43 0 80.5 -5.5t72.5 -17.5t55 -35.5t20 -56.5q0 -30 -18 -72q0 131 -217 131q-192 0 -192 -134q0 -41 25 -66.5t64.5 -36.5t87 -18.5t95.5 -18t87.5 -28.5t64.5 -57.5t25 -97.5q0 -102 -69 -154t-185 -52q-58 0 -109.5 10.5t-91 38.5 t-39.5 68q0 32 16 73q0 -70 66 -102t164 -32q93 0 140.5 39t47.5 108q0 52 -33.5 84t-83 42l-108 22t-108 25t-83 50.5t-33.5 97.5zM377 934q35 -21 46 -38.5t-4 -45t-65 -67.5l-48 -38q-23 3 -34.5 13.5t2.5 26.5l69 65q44 44 34 84z" />
<glyph unicode="&#x15b;" horiz-adv-x="467" d="M367 140q0 44 -32.5 63t-79.5 23t-94 9.5t-81 34t-35 84.5q0 152 184 152q75 0 125 -23t50 -73q0 -30 -24 -74q1 5 1 16q0 102 -152 102q-70 0 -99.5 -24t-29.5 -71q0 -29 18 -45.5t46 -22t62.5 -8t69 -8.5t62.5 -19t46 -43.5t18 -77.5q0 -67 -50 -107t-143 -40 q-49 0 -87 8t-66.5 31.5t-28.5 61.5q0 26 15 62q0 -50 41.5 -80.5t125.5 -30.5q138 0 138 100zM302 750q35 -21 46 -38.5t-4 -45t-65 -67.5l-48 -38q-23 3 -34.5 13.5t2.5 26.5l69 65q44 44 34 84z" />
<glyph unicode="&#x15c;" horiz-adv-x="619" d="M55 512q0 104 72 149.5t187 45.5q43 0 80.5 -5.5t72.5 -17.5t55 -35.5t20 -56.5q0 -30 -18 -72q0 131 -217 131q-192 0 -192 -134q0 -41 25 -66.5t64.5 -36.5t87 -18.5t95.5 -18t87.5 -28.5t64.5 -57.5t25 -97.5q0 -102 -69 -154t-185 -52q-58 0 -109.5 10.5t-91 38.5 t-39.5 68q0 32 16 73q0 -70 66 -102t164 -32q93 0 140.5 39t47.5 108q0 52 -33.5 84t-83 42l-108 22t-108 25t-83 50.5t-33.5 97.5zM223 870l81 67l81 -67q39 -32 37 -67t-45 -57q6 12 6 24q0 18 -20 44t-40 43l-19 17q-9 -7 -22 -18.5t-35 -39.5t-22 -46q0 -12 6 -24 q-43 22 -45 57t37 67z" />
<glyph unicode="&#x15d;" horiz-adv-x="467" d="M367 140q0 44 -32.5 63t-79.5 23t-94 9.5t-81 34t-35 84.5q0 152 184 152q75 0 125 -23t50 -73q0 -30 -24 -74q1 5 1 16q0 102 -152 102q-70 0 -99.5 -24t-29.5 -71q0 -29 18 -45.5t46 -22t62.5 -8t69 -8.5t62.5 -19t46 -43.5t18 -77.5q0 -67 -50 -107t-143 -40 q-49 0 -87 8t-66.5 31.5t-28.5 61.5q0 26 15 62q0 -50 41.5 -80.5t125.5 -30.5q138 0 138 100zM148 686l81 67l81 -67q39 -32 37 -67t-45 -57q6 12 6 24q0 18 -20 44t-40 43l-19 17q-9 -7 -22 -18.5t-35 -39.5t-22 -46q0 -12 6 -24q-43 22 -45 57t37 67z" />
<glyph unicode="&#x15e;" horiz-adv-x="619" d="M258 -111q0 3 3 15l24 85q-55 2 -101 13.5t-80 38t-34 64.5q0 32 16 73q0 -70 66 -102t164 -32q93 0 140.5 39t47.5 108q0 52 -33.5 84t-83 42l-108 22t-108 25t-83 50.5t-33.5 97.5q0 104 72 149.5t187 45.5q43 0 80.5 -5.5t72.5 -17.5t55 -35.5t20 -56.5q0 -30 -18 -72 q0 131 -217 131q-192 0 -192 -134q0 -41 25 -66.5t64.5 -36.5t87 -18.5t95.5 -18t87.5 -28.5t64.5 -57.5t25 -97.5q0 -97 -64 -149t-172 -56v-5l-11 -43q46 0 75 -23t29 -68q0 -40 -29 -63t-71 -23q-65 0 -65 50q24 -10 47 -10q66 0 66 48q0 23 -18.5 34.5t-44.5 11.5z" />
<glyph unicode="&#x15f;" horiz-adv-x="467" d="M177 -111q0 3 3 15l24 85q-157 8 -157 100q0 26 15 62q0 -50 41.5 -80.5t125.5 -30.5q138 0 138 100q0 44 -32.5 63t-79.5 23t-94 9.5t-81 34t-35 84.5q0 152 184 152q75 0 125 -23t50 -73q0 -30 -24 -74q1 5 1 16q0 102 -152 102q-70 0 -99.5 -24t-29.5 -71 q0 -29 18 -45.5t46 -22t62.5 -8t69 -8.5t62.5 -19t46 -43.5t18 -77.5q0 -63 -45 -102.5t-130 -43.5v-5l-11 -43q46 0 75 -23t29 -68q0 -40 -29 -63t-71 -23q-65 0 -65 50q24 -10 47 -10q66 0 66 48q0 23 -18.5 34.5t-44.5 11.5z" />
<glyph unicode="&#x160;" horiz-adv-x="619" d="M55 512q0 104 72 149.5t187 45.5q43 0 80.5 -5.5t72.5 -17.5t55 -35.5t20 -56.5q0 -30 -18 -72q0 131 -217 131q-192 0 -192 -134q0 -41 25 -66.5t64.5 -36.5t87 -18.5t95.5 -18t87.5 -28.5t64.5 -57.5t25 -97.5q0 -102 -69 -154t-185 -52q-58 0 -109.5 10.5t-91 38.5 t-39.5 68q0 32 16 73q0 -70 66 -102t164 -32q93 0 140.5 39t47.5 108q0 52 -33.5 84t-83 42l-108 22t-108 25t-83 50.5t-33.5 97.5zM233 953q-3 -8 -4 -15.5t-1 -14t3.5 -14.5t5.5 -13t9 -13.5t10 -12.5t12 -12.5t12 -11l13.5 -11.5t12.5 -11q3 3 15.5 14t18 16.5l16 16.5 t15 19t9.5 19t4.5 22t-5.5 22q43 -15 44.5 -54.5t-35.5 -69.5l-73 -61h-18l-73 60q-39 30 -38 68t47 57z" />
<glyph unicode="&#x161;" horiz-adv-x="467" d="M367 140q0 44 -32.5 63t-79.5 23t-94 9.5t-81 34t-35 84.5q0 152 184 152q75 0 125 -23t50 -73q0 -30 -24 -74q1 5 1 16q0 102 -152 102q-70 0 -99.5 -24t-29.5 -71q0 -29 18 -45.5t46 -22t62.5 -8t69 -8.5t62.5 -19t46 -43.5t18 -77.5q0 -67 -50 -107t-143 -40 q-49 0 -87 8t-66.5 31.5t-28.5 61.5q0 26 15 62q0 -50 41.5 -80.5t125.5 -30.5q138 0 138 100zM164 753q-3 -8 -4 -15.5t-1 -14t3.5 -14.5t5.5 -13t9 -13.5t10 -12.5t12 -12.5t12 -11l13.5 -11.5t12.5 -11q3 3 15.5 14t18 16.5l16 16.5t15 19t9.5 19t4.5 22t-5.5 22 q43 -15 44.5 -54.5t-35.5 -69.5l-73 -61h-18l-73 60q-39 30 -38 68t47 57z" />
<glyph unicode="&#x162;" horiz-adv-x="531" d="M209 -111q0 3 3 15l30 107q-7 11 -7 23v606h-175q-33 0 -45.5 22.5t-12.5 45.5q10 -14 74 -14h380q64 0 73 14q0 -14 -3.5 -27t-17 -27t-36.5 -14h-179v-650l-14 2v-8l-11 -43q46 0 75 -23t29 -68q0 -40 -29 -63t-71 -23q-65 0 -65 50q24 -10 47 -10q66 0 66 48 q0 23 -18.5 34.5t-44.5 11.5z" />
<glyph unicode="&#x163;" horiz-adv-x="400" d="M182 -111q0 3 3 15l24 88q-60 9 -97 47t-37 99v487q2 0 6 -0.5t13.5 -3t16.5 -6.5t13 -13t6 -21v-99h209q0 -6 -1 -15t-10.5 -24t-25.5 -15h-172v-265q0 -57 31 -89t90 -32q50 0 85.5 28.5t35.5 73.5q18 -33 18 -60q0 -46 -40 -70.5t-98 -25.5v-4l-11 -43q46 0 75 -23 t29 -68q0 -40 -29 -63t-71 -23q-65 0 -65 50q24 -10 47 -10q66 0 66 48q0 23 -18.5 34.5t-44.5 11.5z" />
<glyph unicode="&#x164;" horiz-adv-x="531" d="M472 640h-179v-650q-6 0 -16 1t-26 12t-16 31v606h-175q-33 0 -45.5 22.5t-12.5 45.5q10 -14 74 -14h380q64 0 73 14q0 -14 -3.5 -27t-17 -27t-36.5 -14zM196 953q-3 -8 -4 -15.5t-1 -14t3.5 -14.5t5.5 -13t9 -13.5t10 -12.5t12 -12.5t12 -11l13.5 -11.5t12.5 -11 q3 3 15.5 14t18 16.5l16 16.5t15 19t9.5 19t4.5 22t-5.5 22q43 -15 44.5 -54.5t-35.5 -69.5l-73 -61h-18l-73 60q-39 30 -38 68t47 57z" />
<glyph unicode="&#x165;" horiz-adv-x="437" d="M75 138v487q2 0 6 -0.5t13.5 -3t16.5 -6.5t13 -13t6 -21v-99h209q0 -6 -1 -15t-10.5 -24t-25.5 -15h-172v-265q0 -57 31 -89t90 -32q50 0 85.5 28.5t35.5 73.5q18 -33 18 -60q0 -46 -41 -71t-99 -25q-75 0 -125 39.5t-50 110.5zM353 694h29q24 0 28.5 -6t4.5 -30v-34 q0 -109 -53 -109q-20 0 -35 9q43 9 34 93z" />
<glyph unicode="&#x16a;" d="M602 661v-464q0 -98 -76 -153.5t-187 -55.5q-112 0 -188 55.5t-76 153.5v508q6 0 16 -1t26 -12t16 -31v-452q0 -77 56.5 -121t149.5 -44q92 0 148.5 44t56.5 121v496q6 0 16 -1t26 -12t16 -31zM231 839h241q8 -51 -25 -51h-240q-6 14 0 32.5t24 18.5z" />
<glyph unicode="&#x16b;" horiz-adv-x="526" d="M130 457v-305q0 -22 4 -38.5t16.5 -35t41.5 -29t72 -10.5q37 0 70 6.5t48 12.5l14 6v437q6 0 15 -1t24.5 -12t15.5 -31v-462q-23 10 -54 10q-17 0 -64.5 -8.5t-72.5 -8.5q-46 0 -85 11.5t-69.5 45.5t-30.5 87v369q2 0 6 -0.5t13.5 -3t16.5 -6.5t13 -13t6 -21zM155 655 h241q8 -51 -25 -51h-240q-6 14 0 32.5t24 18.5z" />
<glyph unicode="&#x16c;" d="M602 661v-464q0 -98 -76 -153.5t-187 -55.5q-112 0 -188 55.5t-76 153.5v508q6 0 16 -1t26 -12t16 -31v-452q0 -77 56.5 -121t149.5 -44q92 0 148.5 44t56.5 121v496q6 0 16 -1t26 -12t16 -31zM339 745q-63 0 -98 31.5t-35 74.5q0 62 53 73q-7 -17 -7 -36q0 -89 87 -89 t87 89q0 15 -7 36q27 -6 40 -26.5t13 -46.5q0 -43 -35 -74.5t-98 -31.5z" />
<glyph unicode="&#x16d;" horiz-adv-x="526" d="M130 457v-305q0 -22 4 -38.5t16.5 -35t41.5 -29t72 -10.5q37 0 70 6.5t48 12.5l14 6v437q6 0 15 -1t24.5 -12t15.5 -31v-462q-23 10 -54 10q-17 0 -64.5 -8.5t-72.5 -8.5q-46 0 -85 11.5t-69.5 45.5t-30.5 87v369q2 0 6 -0.5t13.5 -3t16.5 -6.5t13 -13t6 -21zM263 561 q-63 0 -98 31.5t-35 74.5q0 62 53 73q-7 -17 -7 -36q0 -89 87 -89t87 89q0 15 -7 36q27 -6 40 -26.5t13 -46.5q0 -43 -35 -74.5t-98 -31.5z" />
<glyph unicode="&#x16e;" d="M602 661v-464q0 -98 -76 -153.5t-187 -55.5q-112 0 -188 55.5t-76 153.5v508q6 0 16 -1t26 -12t16 -31v-452q0 -77 56.5 -121t149.5 -44q92 0 148.5 44t56.5 121v496q6 0 16 -1t26 -12t16 -31zM421 868v-68q0 -26 -22.5 -40t-60.5 -14t-60.5 14t-22.5 40v68q0 25 22.5 40 t60.5 15t60.5 -15t22.5 -40zM385 815v39q0 37 -47 37q-27 0 -37 -9.5t-10 -27.5v-39q0 -19 10 -28t37 -9q47 0 47 37z" />
<glyph unicode="&#x16f;" horiz-adv-x="526" d="M130 457v-305q0 -22 4 -38.5t16.5 -35t41.5 -29t72 -10.5q37 0 70 6.5t48 12.5l14 6v437q6 0 15 -1t24.5 -12t15.5 -31v-462q-23 10 -54 10q-17 0 -64.5 -8.5t-72.5 -8.5q-46 0 -85 11.5t-69.5 45.5t-30.5 87v369q2 0 6 -0.5t13.5 -3t16.5 -6.5t13 -13t6 -21zM345 684 v-68q0 -26 -22.5 -40t-60.5 -14t-60.5 14t-22.5 40v68q0 25 22.5 40t60.5 15t60.5 -15t22.5 -40zM309 631v39q0 37 -47 37q-27 0 -37 -9.5t-10 -27.5v-39q0 -19 10 -28t37 -9q47 0 47 37z" />
<glyph unicode="&#x170;" d="M602 661v-464q0 -98 -76 -153.5t-187 -55.5q-112 0 -188 55.5t-76 153.5v508q6 0 16 -1t26 -12t16 -31v-452q0 -77 56.5 -121t149.5 -44q92 0 148.5 44t56.5 121v496q6 0 16 -1t26 -12t16 -31zM436 934q26 -15 37.5 -28t11 -30.5t-19 -39.5t-56.5 -52l-48 -38 q-22 3 -32 13t4 26l69 65q44 44 34 84zM291 934q30 -18 41.5 -34t3 -38t-42.5 -50l-48 -40q-23 3 -32 12t5 25l39 41q44 44 34 84z" />
<glyph unicode="&#x171;" horiz-adv-x="526" d="M130 457v-305q0 -22 4 -38.5t16.5 -35t41.5 -29t72 -10.5q37 0 70 6.5t48 12.5l14 6v437q6 0 15 -1t24.5 -12t15.5 -31v-462q-23 10 -54 10q-17 0 -64.5 -8.5t-72.5 -8.5q-46 0 -85 11.5t-69.5 45.5t-30.5 87v369q2 0 6 -0.5t13.5 -3t16.5 -6.5t13 -13t6 -21zM360 750 q26 -15 37.5 -28t11 -30.5t-19 -39.5t-56.5 -52l-48 -38q-22 3 -32 13t4 26l69 65q44 44 34 84zM215 750q30 -18 41.5 -34t3 -38t-42.5 -50l-48 -40q-23 3 -32 12t5 25l39 41q44 44 34 84z" />
<glyph unicode="&#x172;" d="M602 661v-464q0 -46 -13 -79.5t-34 -52.5t-46 -34t-50.5 -28t-46.5 -29t-34 -43t-13 -65q0 -29 20 -42.5t45 -12t49 10.5q0 -27 -21 -42.5t-51 -15.5q-48 0 -75 26t-27 70q0 74 61 129q-15 -1 -27 -1q-112 0 -188 55.5t-76 153.5v508q6 0 16 -1t26 -12t16 -31v-452 q0 -77 56.5 -121t149.5 -44q92 0 148.5 44t56.5 121v496q6 0 16 -1t26 -12t16 -31z" />
<glyph unicode="&#x173;" horiz-adv-x="526" d="M130 457v-305q0 -22 4 -38.5t16.5 -35t41.5 -29t72 -10.5q37 0 70 6.5t48 12.5l14 6v437q6 0 15 -1t24.5 -12t15.5 -31v-425q-63 -51 -86 -83q-30 -42 -30 -83q0 -29 20 -42.5t45 -12t49 10.5q0 -27 -21 -42.5t-51 -15.5q-48 0 -75 26t-27 70q0 72 74 140 q-67 -12 -89 -12q-46 0 -85 11.5t-69.5 45.5t-30.5 87v369q2 0 6 -0.5t13.5 -3t16.5 -6.5t13 -13t6 -21z" />
<glyph unicode="&#x178;" horiz-adv-x="528" d="M293 303h1v-313q-7 0 -16.5 1t-26 12.5t-16.5 31.5v268q-50 42 -99 127.5t-87 170.5t-47 98q0 1 13 1q45 0 76 -54q7 -11 36 -74.5t64 -123.5t73 -96q38 36 73 96t64 123.5t36 74.5q31 54 76 54l13 -1q-9 -13 -47 -98t-87 -170.5t-99 -127.5zM167 803v56h52q11 0 11 -14 v-55h-52q-11 0 -11 13zM300 803v56h52q11 0 11 -14v-55h-52q-11 0 -11 13z" />
<glyph unicode="&#x179;" horiz-adv-x="548" d="M466 0h-433q0 72 37 140.5t92 125l112 112t105 124t62 138.5h-383q0 6 1 15t10.5 24t26.5 15h407q-1 -70 -28.5 -136.5t-68.5 -116t-90.5 -102l-93.5 -95t-78.5 -93t-43.5 -97.5h345q26 0 44.5 3t23.5 6l5 3q0 -23 -12 -44.5t-40 -21.5zM358 934q35 -21 46 -38.5t-4 -45 t-65 -67.5l-48 -38q-23 3 -34.5 13.5t2.5 26.5l69 65q44 44 34 84z" />
<glyph unicode="&#x17a;" horiz-adv-x="430" d="M323 442h-273q0 6 1 14.5t10.5 23t26.5 14.5h304q-3 -10 -6.5 -32.5t-6.5 -32.5q-18 -57 -64.5 -117.5t-91 -102t-81.5 -85.5t-41 -73h299v-5.5t-2 -12.5t-5.5 -15.5t-11.5 -12t-18 -5.5h-325v22q0 44 23.5 86.5t60.5 79.5l75.5 74t74 84.5t51.5 95.5zM294 750 q35 -21 46 -38.5t-4 -45t-65 -67.5l-48 -38q-23 3 -34.5 13.5t2.5 26.5l69 65q44 44 34 84z" />
<glyph unicode="&#x17b;" horiz-adv-x="548" d="M466 0h-433q0 72 37 140.5t92 125l112 112t105 124t62 138.5h-383q0 6 1 15t10.5 24t26.5 15h407q-1 -70 -28.5 -136.5t-68.5 -116t-90.5 -102l-93.5 -95t-78.5 -93t-43.5 -97.5h345q26 0 44.5 3t23.5 6l5 3q0 -23 -12 -44.5t-40 -21.5zM254 803v56h52q11 0 11 -14v-55 h-52q-11 0 -11 13z" />
<glyph unicode="&#x17c;" horiz-adv-x="430" d="M323 442h-273q0 6 1 14.5t10.5 23t26.5 14.5h304q-3 -10 -6.5 -32.5t-6.5 -32.5q-18 -57 -64.5 -117.5t-91 -102t-81.5 -85.5t-41 -73h299v-5.5t-2 -12.5t-5.5 -15.5t-11.5 -12t-18 -5.5h-325v22q0 44 23.5 86.5t60.5 79.5l75.5 74t74 84.5t51.5 95.5zM190 619v56h52 q11 0 11 -14v-55h-52q-11 0 -11 13z" />
<glyph unicode="&#x17d;" horiz-adv-x="548" d="M466 0h-433q0 72 37 140.5t92 125l112 112t105 124t62 138.5h-383q0 6 1 15t10.5 24t26.5 15h407q-1 -70 -28.5 -136.5t-68.5 -116t-90.5 -102l-93.5 -95t-78.5 -93t-43.5 -97.5h345q26 0 44.5 3t23.5 6l5 3q0 -23 -12 -44.5t-40 -21.5zM204 953q-3 -8 -4 -15.5t-1 -14 t3.5 -14.5t5.5 -13t9 -13.5t10 -12.5t12 -12.5t12 -11l13.5 -11.5t12.5 -11q3 3 15.5 14t18 16.5l16 16.5t15 19t9.5 19t4.5 22t-5.5 22q43 -15 44.5 -54.5t-35.5 -69.5l-73 -61h-18l-73 60q-39 30 -38 68t47 57z" />
<glyph unicode="&#x17e;" horiz-adv-x="430" d="M323 442h-273q0 6 1 14.5t10.5 23t26.5 14.5h304q-3 -10 -6.5 -32.5t-6.5 -32.5q-18 -57 -64.5 -117.5t-91 -102t-81.5 -85.5t-41 -73h299v-5.5t-2 -12.5t-5.5 -15.5t-11.5 -12t-18 -5.5h-325v22q0 44 23.5 86.5t60.5 79.5l75.5 74t74 84.5t51.5 95.5zM145 753 q-3 -8 -4 -15.5t-1 -14t3.5 -14.5t5.5 -13t9 -13.5t10 -12.5t12 -12.5t12 -11l13.5 -11.5t12.5 -11q3 3 15.5 14t18 16.5l16 16.5t15 19t9.5 19t4.5 22t-5.5 22q43 -15 44.5 -54.5t-35.5 -69.5l-73 -61h-18l-73 60q-39 30 -38 68t47 57z" />
<glyph unicode="&#x192;" horiz-adv-x="459" d="M134 344l-72 -447q-9 -55 -40 -95.5t-66 -40.5q-22 0 -33 12q22 0 41 27t29 59.5t16 67.5l106 661q12 71 74 113t145 42q157 0 157 -71q0 -21 -15 -46q-16 63 -153 63q-67 0 -105 -30.5t-47 -84.5l-29 -175h189q-1 -6 -3.5 -15t-14.5 -24.5t-29 -15.5h-150z" />
<glyph unicode="&#x218;" horiz-adv-x="619" d="M55 512q0 104 72 149.5t187 45.5q43 0 80.5 -5.5t72.5 -17.5t55 -35.5t20 -56.5q0 -30 -18 -72q0 131 -217 131q-192 0 -192 -134q0 -41 25 -66.5t64.5 -36.5t87 -18.5t95.5 -18t87.5 -28.5t64.5 -57.5t25 -97.5q0 -102 -69 -154t-185 -52q-58 0 -109.5 10.5t-91 38.5 t-39.5 68q0 32 16 73q0 -70 66 -102t164 -32q93 0 140.5 39t47.5 108q0 52 -33.5 84t-83 42l-108 22t-108 25t-83 50.5t-33.5 97.5zM279 -36h29q24 0 28.5 -6t4.5 -30v-34q0 -109 -53 -109q-20 0 -35 9q43 9 34 93z" />
<glyph unicode="&#x219;" horiz-adv-x="467" d="M367 140q0 44 -32.5 63t-79.5 23t-94 9.5t-81 34t-35 84.5q0 152 184 152q75 0 125 -23t50 -73q0 -30 -24 -74q1 5 1 16q0 102 -152 102q-70 0 -99.5 -24t-29.5 -71q0 -29 18 -45.5t46 -22t62.5 -8t69 -8.5t62.5 -19t46 -43.5t18 -77.5q0 -67 -50 -107t-143 -40 q-49 0 -87 8t-66.5 31.5t-28.5 61.5q0 26 15 62q0 -50 41.5 -80.5t125.5 -30.5q138 0 138 100zM201 -36h29q24 0 28.5 -6t4.5 -30v-34q0 -109 -53 -109q-20 0 -35 9q43 9 34 93z" />
<glyph unicode="&#x21a;" horiz-adv-x="531" d="M472 640h-179v-650q-6 0 -16 1t-26 12t-16 31v606h-175q-33 0 -45.5 22.5t-12.5 45.5q10 -14 74 -14h380q64 0 73 14q0 -14 -3.5 -27t-17 -27t-36.5 -14zM238 -36h29q24 0 28.5 -6t4.5 -30v-34q0 -109 -53 -109q-20 0 -35 9q43 9 34 93z" />
<glyph unicode="&#x21b;" horiz-adv-x="400" d="M75 138v487q2 0 6 -0.5t13.5 -3t16.5 -6.5t13 -13t6 -21v-99h209q0 -6 -1 -15t-10.5 -24t-25.5 -15h-172v-265q0 -57 31 -89t90 -32q50 0 85.5 28.5t35.5 73.5q18 -33 18 -60q0 -46 -41 -71t-99 -25q-75 0 -125 39.5t-50 110.5zM219 -36h29q24 0 28.5 -6t4.5 -30v-34 q0 -109 -53 -109q-20 0 -35 9q43 9 34 93z" />
<glyph unicode="&#x2c6;" horiz-adv-x="489" d="M176 686l81 67l81 -67q39 -32 37 -67t-45 -57q6 12 6 24q0 18 -20 44t-40 43l-19 17q-9 -7 -22 -18.5t-35 -39.5t-22 -46q0 -12 6 -24q-43 22 -45 57t37 67z" />
<glyph unicode="&#x2c7;" horiz-adv-x="489" d="M215 753q-3 -8 -4 -15.5t-1 -14t3.5 -14.5t5.5 -13t9 -13.5t10 -12.5t12 -12.5t12 -11l13.5 -11.5t12.5 -11q3 3 15.5 14t18 16.5l16 16.5t15 19t9.5 19t4.5 22t-5.5 22q43 -15 44.5 -54.5t-35.5 -69.5l-73 -61h-18l-73 60q-39 30 -38 68t47 57z" />
<glyph unicode="&#x2d8;" horiz-adv-x="571" d="M287 561q-63 0 -98 31.5t-35 74.5q0 62 53 73q-7 -17 -7 -36q0 -89 87 -89t87 89q0 15 -7 36q27 -6 40 -26.5t13 -46.5q0 -43 -35 -74.5t-98 -31.5z" />
<glyph unicode="&#x2d9;" horiz-adv-x="243" d="M89 619v56h52q11 0 11 -14v-55h-52q-11 0 -11 13z" />
<glyph unicode="&#x2da;" horiz-adv-x="341" d="M254 684v-68q0 -26 -22.5 -40t-60.5 -14t-60.5 14t-22.5 40v68q0 25 22.5 40t60.5 15t60.5 -15t22.5 -40zM218 631v39q0 37 -47 37q-27 0 -37 -9.5t-10 -27.5v-39q0 -19 10 -28t37 -9q47 0 47 37z" />
<glyph unicode="&#x2db;" horiz-adv-x="833" d="M353 44l14 -8q-38 -39 -62 -85t-24 -81q0 -29 20.5 -42.5t46.5 -12t50 10.5q0 -27 -22.5 -44t-52.5 -17q-48 0 -76.5 27.5t-28.5 71.5q0 47 34 96t101 84z" />
<glyph unicode="&#x2dc;" horiz-adv-x="389" d="M65 596q-2 20 -1.5 38t14 30.5t41.5 12.5q26 0 76 -23.5t80 -23.5t48 27q5 -43 -8 -62.5t-47 -19.5q-27 0 -75.5 23t-77.5 23q-34 0 -50 -25z" />
<glyph unicode="&#x2dd;" horiz-adv-x="468" d="M333 750q26 -15 37.5 -28t11 -30.5t-19 -39.5t-56.5 -52l-48 -38q-22 3 -32 13t4 26l69 65q44 44 34 84zM188 750q30 -18 41.5 -34t3 -38t-42.5 -50l-48 -40q-23 3 -32 12t5 25l39 41q44 44 34 84z" />
<glyph unicode="&#x3a9;" horiz-adv-x="1113" d="M277 618q-21 -38 -21 -67q0 -30 23.5 -55t57 -44l66.5 -39.5t56.5 -52.5t23.5 -73q0 -49 -30 -78.5t-71 -29.5t-71 28q1 -7 1 -21q-4 -40 -37 -68.5t-74 -28.5q-87 0 -134 72t-47 168q0 72 27.5 137t84.5 109t131 44q3 0 7.5 -0.5t6.5 -0.5zM836 99q21 38 21 67 q0 30 -23.5 55t-56.5 44l-66.5 39.5t-57 52.5t-23.5 73q0 49 30 78.5t71 29.5t71 -28q-1 7 -1 21q4 40 37 68.5t74 28.5q87 0 134 -72t47 -168q0 -72 -27.5 -137t-84.5 -109t-131 -44q-3 0 -7.5 0.5t-6.5 0.5zM584 594q32 32 74 37.5t75 -16.5t40 -64q-30 30 -69 35t-79 -28 q-24 -24 -33 -68.5t-9 -94.5t-0.5 -100.5t-13.5 -98.5t-42 -77q-32 -32 -74 -37.5t-74.5 16.5t-39.5 64q19 -19 43 -28.5t52.5 -5t51.5 27.5q29 29 38 91t5.5 122.5t8.5 125.5t46 99z" />
<glyph unicode="&#x2126;" horiz-adv-x="1113" d="M277 618q-21 -38 -21 -67q0 -30 23.5 -55t57 -44l66.5 -39.5t56.5 -52.5t23.5 -73q0 -49 -30 -78.5t-71 -29.5t-71 28q1 -7 1 -21q-4 -40 -37 -68.5t-74 -28.5q-87 0 -134 72t-47 168q0 72 27.5 137t84.5 109t131 44q3 0 7.5 -0.5t6.5 -0.5zM836 99q21 38 21 67 q0 30 -23.5 55t-56.5 44l-66.5 39.5t-57 52.5t-23.5 73q0 49 30 78.5t71 29.5t71 -28q-1 7 -1 21q4 40 37 68.5t74 28.5q87 0 134 -72t47 -168q0 -72 -27.5 -137t-84.5 -109t-131 -44q-3 0 -7.5 0.5t-6.5 0.5zM584 594q32 32 74 37.5t75 -16.5t40 -64q-30 30 -69 35t-79 -28 q-24 -24 -33 -68.5t-9 -94.5t-0.5 -100.5t-13.5 -98.5t-42 -77q-32 -32 -74 -37.5t-74.5 16.5t-39.5 64q19 -19 43 -28.5t52.5 -5t51.5 27.5q29 29 38 91t5.5 122.5t8.5 125.5t46 99z" />
<glyph unicode="&#x3c0;" horiz-adv-x="1113" d="M415 442q0 70 55 105.5t109 -2.5q-42 0 -75.5 -26t-33.5 -74q0 -33 25 -71t60 -73.5l70.5 -71.5t60.5 -79t25 -84q0 -70 -55 -105.5t-109 2.5q42 0 75.5 26t33.5 74q0 34 -25 72t-60 73.5l-70.5 72t-60.5 79t-25 82.5zM182 241q22 -85 94 -85q27 0 92.5 17t98.5 17 q49 0 89 -34t40 -81q0 -39 -30 -69.5t-70 -30.5q38 -31 38 -80q0 -60 -46 -94.5t-98 -34.5q-106 0 -195 97.5t-89 211.5q0 90 76 166zM944 269q-14 47 -37 66.5t-57 19.5q-27 0 -92.5 -17t-99.5 -17q-49 0 -89 33.5t-40 80.5q0 41 29.5 70t70.5 31q-38 31 -38 80 q0 58 46.5 93t98.5 35q106 0 194.5 -97.5t88.5 -212.5q0 -90 -75 -165z" />
<glyph unicode="&#x2013;" horiz-adv-x="693" d="M64 284h592q4 -16 -1.5 -35t-26.5 -19h-591q-1 9 -1.5 21t7 22.5t21.5 10.5z" />
<glyph unicode="&#x2014;" horiz-adv-x="790" d="M64 284h689q4 -16 -1.5 -35t-26.5 -19h-688q-1 9 -1.5 21t7 22.5t21.5 10.5z" />
<glyph unicode="&#x2018;" horiz-adv-x="217" d="M148 511h-18h-45q-8 0 -8 10v58q0 115 54 115q17 0 34 -10q-7 -1 -12 -4t-8.5 -8t-6 -9.5t-3 -12t-1.5 -12.5t-0.5 -14t1 -13t1.5 -13.5t1 -11.5z" />
<glyph unicode="&#x2019;" horiz-adv-x="217" d="M69 694h18h45q8 0 8 -10v-58q0 -115 -54 -115q-17 0 -34 10q39 7 29 92q-1 4 -1 6z" />
<glyph unicode="&#x201a;" horiz-adv-x="217" d="M69 73h18h45q8 0 8 -10v-58q0 -115 -54 -115q-17 0 -34 10q39 7 29 92q-1 4 -1 6z" />
<glyph unicode="&#x201c;" horiz-adv-x="352" d="M148 511h-18h-45q-8 0 -8 10v58q0 115 54 115q17 0 34 -10q-7 -1 -12 -4t-8.5 -8t-6 -9.5t-3 -12t-1.5 -12.5t-0.5 -14t1 -13t1.5 -13.5t1 -11.5zM283 511h-18h-45q-8 0 -8 10v58q0 115 54 115q17 0 34 -10q-7 -1 -12 -4t-8.5 -8t-6 -9.5t-3 -12t-1.5 -12.5t-0.5 -14 t1 -13t1.5 -13.5t1 -11.5z" />
<glyph unicode="&#x201d;" horiz-adv-x="349" d="M201 694h18h45q8 0 8 -10v-58q0 -115 -54 -115q-17 0 -34 10q39 7 29 92q-1 4 -1 6zM69 694h18h45q8 0 8 -10v-58q0 -115 -54 -115q-17 0 -34 10q39 7 29 92q-1 4 -1 6z" />
<glyph unicode="&#x201e;" horiz-adv-x="349" d="M201 73h18h45q8 0 8 -10v-58q0 -115 -54 -115q-17 0 -34 10q39 7 29 92q-1 4 -1 6zM69 73h18h45q8 0 8 -10v-58q0 -115 -54 -115q-17 0 -34 10q39 7 29 92q-1 4 -1 6z" />
<glyph unicode="&#x2020;" horiz-adv-x="365" d="M44 494h110v250q6 0 15 -1t24.5 -12t15.5 -31v-206h139q4 -16 -1.5 -35t-26.5 -19h-111v-682q-6 0 -15 1t-24.5 12t-15.5 31v638h-137q-1 9 -1.5 21t7 22.5t21.5 10.5z" />
<glyph unicode="&#x2021;" horiz-adv-x="365" d="M44 494h110v250q6 0 15 -1t24.5 -12t15.5 -31v-206h139q4 -16 -1.5 -35t-26.5 -19h-111v-386h139q4 -16 -1.5 -35t-26.5 -19h-111v-242q-6 0 -15 1t-24.5 12t-15.5 31v198h-137q-1 9 -1.5 21t7 22.5t21.5 10.5h110v386h-137q-1 9 -1.5 21t7 22.5t21.5 10.5z" />
<glyph unicode="&#x2022;" horiz-adv-x="450" d="M385 299v-82q0 -122 -160 -122q-79 0 -119.5 31.5t-40.5 90.5v82q0 58 40.5 89t119.5 31q160 0 160 -120z" />
<glyph unicode="&#x2026;" horiz-adv-x="663" d="M77 73h54q13 0 13 -15v-58h-54q-13 0 -13 16v57zM298 73h54q13 0 13 -15v-58h-54q-13 0 -13 16v57zM519 73h54q13 0 13 -15v-58h-54q-13 0 -13 16v57z" />
<glyph unicode="&#x2030;" horiz-adv-x="968" d="M923 413v-125q0 -44 -37.5 -67.5t-102.5 -23.5q-49 0 -86 15q2 -8 2 -16v-115q0 -44 -37.5 -67.5t-102.5 -23.5q-64 0 -101.5 23.5t-37.5 67.5v125q0 42 38 67t101 25q48 0 87 -17q-2 11 -2 17v115q0 42 38 67t101 25q64 0 102 -24.5t38 -67.5zM324 611v-125 q0 -44 -37.5 -67.5t-101.5 -23.5q-65 0 -102.5 23.5t-37.5 67.5v125q0 43 38 67.5t102 24.5q63 0 101 -25t38 -67zM123 145l473 480q21 -17 21 -43q0 -22 -21 -43l-466 -466q-20 20 -20 43q0 16 13 29zM652 109v71q0 36 -19.5 55t-73.5 19q-56 0 -74.5 -18.5t-18.5 -55.5 v-71q0 -39 18 -56.5t75 -17.5q54 0 73.5 18t19.5 56zM876 316v71q0 36 -19.5 55t-73.5 19q-56 0 -74.5 -18.5t-18.5 -55.5v-71q0 -39 18 -56.5t75 -17.5q54 0 73.5 18t19.5 56zM278 514v71q0 36 -19.5 55t-73.5 19q-56 0 -74.5 -18.5t-18.5 -55.5v-71q0 -39 18 -56.5 t75 -17.5q54 0 73.5 18t19.5 56z" />
<glyph unicode="&#x2039;" horiz-adv-x="410" d="M122 248l203 -203q-17 -26 -36 -26q-16 0 -52 36l-148 148q-24 24 -24 44q0 21 25 46l199 199q29 -18 29 -38q0 -4 -2.5 -9t-8.5 -12t-9.5 -10.5l-13 -13l-11.5 -11.5z" />
<glyph unicode="&#x203a;" horiz-adv-x="410" d="M65 45l203 203l-151 150l-11.5 11.5l-13 13t-9.5 10.5t-8.5 12t-2.5 9q0 20 29 38l199 -199q25 -25 25 -46q0 -20 -24 -44l-148 -148q-36 -36 -52 -36q-19 0 -36 26z" />
<glyph unicode="&#x2044;" horiz-adv-x="553" d="M36 148l472 474q21 -28 21 -47q0 -11 -12 -23l-473 -473q-19 27 -19 45q0 11 11 24z" />
<glyph unicode="&#x20ac;" horiz-adv-x="600" d="M412 386h-279v-70h270v-5.5t-2.5 -13t-7 -16.5t-16 -13t-27.5 -6h-217v-34q0 -184 199 -184q75 0 129.5 28t54.5 80q25 -44 18 -75t-41.5 -50.5t-76 -29t-84.5 -9.5q-116 0 -186.5 53.5t-70.5 171.5v268q0 117 69.5 171t184.5 54q79 0 133.5 -29.5t54.5 -74.5 q0 -31 -22 -60q0 47 -46.5 77.5t-119.5 30.5q-95 0 -145.5 -43t-50.5 -140v-27h332v-5.5t-2.5 -13t-7 -16.5t-16 -13t-27.5 -6z" />
<glyph unicode="&#x2122;" horiz-adv-x="1029" d="M369 561v89h-108v-336q-51 9 -51 33v303h-105v-89q-45 13 -45 34v99h353v-99q0 -25 -44 -34zM899 347v216l4 45l-148 -232q-39 9 -55 35l-137 213q3 -35 3 -61v-249q-51 9 -51 33v347q22 0 35 -1.5t29 -9t25 -22.5l136 -222l159 255q50 0 50 -32v-348q-50 9 -50 33z" />
<glyph unicode="&#x2202;" horiz-adv-x="786" d="M487 519h-426q-42 0 -50 53l-1 9h490q92 0 149 -43.5t57 -115.5q0 -35 -16 -60.5t-45 -29.5q14 30 14 60q0 58 -44 92t-128 35zM283 135q7 -1 19 -1q45 0 69 25t31.5 63t13.5 78t25.5 76.5t56.5 51.5q21 8 40 8q37 0 64.5 -26t27.5 -68q0 -18 -6 -33q24 9 46 9 q48 0 77 -36t29 -82q0 -91 -85.5 -148.5t-188.5 -57.5q-79 0 -141 36.5t-78 104.5z" />
<glyph unicode="&#x220f;" horiz-adv-x="786" d="M503 135q-16 -68 -78 -104.5t-141 -36.5q-103 0 -188.5 57.5t-85.5 148.5q0 46 29 82t77 36q22 0 46 -9q-6 15 -6 33q0 42 27.5 68t64.5 26q19 0 40 -8q37 -15 56.5 -51.5t25.5 -76.5t13.5 -78t31.5 -63t69 -25q12 0 19 1zM725 519h-426q-84 -1 -128 -35t-44 -92 q0 -30 14 -60q-29 4 -45 29.5t-16 60.5q0 72 57 115.5t149 43.5h490q0 -3 -0.5 -7t-3.5 -14.5t-7.5 -19t-15 -15t-24.5 -6.5z" />
<glyph unicode="&#x2211;" horiz-adv-x="851" d="M395 7q20 36 20 62q0 28 -21.5 51.5t-52.5 41l-62.5 36.5t-53 48.5t-21.5 67.5q0 46 28 73t66 27t66 -26q-1 7 -1 20q4 38 34.5 64t68.5 26q80 0 124 -66.5t44 -156.5q0 -105 -61.5 -187t-164.5 -82q-2 0 -6.5 0.5t-6.5 0.5zM70 131v177q0 93 43 152.5t114 59.5 q88 0 98 -63q-27 14 -59 14q-60 0 -96 -44.5t-36 -131.5v-151q0 -86 54.5 -142.5t168.5 -56.5h129q113 0 172 57.5t59 141.5v220q0 88 -35 132t-95 44q-27 0 -59 -10q10 57 98 57q71 0 113 -58.5t42 -151.5v-246q0 -107 -79 -175.5t-217 -68.5h-129q-137 0 -211.5 68 t-74.5 176z" />
<glyph unicode="&#x2212;" horiz-adv-x="485" d="M105 276h317q4 -16 -1.5 -35t-26.5 -19h-316q-1 9 -1.5 21t7 22.5t21.5 10.5z" />
<glyph unicode="&#x221a;" horiz-adv-x="479" d="M160 123q-55 17 -55 58q0 43 78 105q-39 14 -80 14q-30 0 -51 -26q-2 20 -2 26q0 26 16 44.5t53 18.5q19 0 89 -28q-21 101 -76 110q25 25 52 25q29 0 50 -33.5t28 -94.5q24 20 43 46t19 46q0 16 -4 27q29 -7 41 -20.5t12 -39.5q0 -47 -79 -104q38 -14 82 -14q30 0 51 26 q2 -20 2 -26q0 -26 -16 -44.5t-54 -18.5q-20 0 -87 29q6 -44 24.5 -75t50.5 -36q-27 -25 -53 -25q-29 0 -50 33t-27 94q-26 -20 -45 -46t-19 -46q0 -14 7 -25z" />
<glyph unicode="&#x221e;" horiz-adv-x="602" d="M228 830q-5 -12 -5.5 -23.5t4 -22t10.5 -20t16 -20t18.5 -18.5t19.5 -17q5 -4 7 -6h5q2 2 12 10.5t13.5 12l13 12.5t13 14t10 13.5t8.5 15.5l4.5 15.5t1.5 17t-5 16.5q43 -15 44.5 -54.5t-35.5 -69.5l-44 -37q71 -83 117 -230l23 -75l25 -81.5l23 -75.5l23.5 -75 l20 -60.5t18.5 -50.5t13 -28q-3 -1 -10 -1q-12 0 -22.5 3t-19 10t-15.5 14t-13 19.5t-10.5 21t-10 25t-8 25t-7.5 27l-7 25.5l-20 70h-316l-20 -70l-7 -25.5t-7.5 -27t-8 -25t-10 -25t-10.5 -21t-13 -19.5t-15.5 -14t-19 -10t-22.5 -3q-7 0 -10 1q5 9 13 28t18.5 50.5 l20 60.5l23.5 75l23 75.5l25 81.5l23 75q47 151 117 230l-44 36q-39 30 -38 68t47 57zM159 287h284l-38 126q-20 65 -46 118.5t-42 74.5l-16 21q-7 -8 -18 -23t-38.5 -70.5t-47.5 -120.5z" />
<glyph unicode="&#x222b;" horiz-adv-x="851" d="M456 7q-2 0 -6.5 -0.5t-6.5 -0.5q-103 0 -164.5 82t-61.5 187q0 90 44 156.5t124 66.5q38 0 68.5 -26t34.5 -64q0 -13 -1 -20q28 26 66 26t66 -27t28 -73q0 -38 -21.5 -67.5t-53 -48.5l-62.5 -36.5t-52.5 -41t-21.5 -51.5q0 -26 20 -62zM781 308v-177q0 -108 -74.5 -176 t-211.5 -68h-129q-138 0 -217 68.5t-79 175.5v246q0 93 42 151.5t113 58.5q88 0 98 -57q-32 10 -59 10q-60 0 -95 -44t-35 -132v-220q0 -84 59 -141.5t172 -57.5h129q114 0 168.5 56.5t54.5 142.5v151q0 87 -36 131.5t-96 44.5q-32 0 -59 -14q10 63 98 63q71 0 114 -59.5 t43 -152.5z" />
<glyph unicode="&#x2248;" horiz-adv-x="624" d="M48 162q-3 14 -3 22q0 56 81 56q36 0 186 -26t190 -26q20 0 38.5 6t27.5 12l8 5q3 -14 3 -24q0 -22 -18.5 -38t-63.5 -16q-37 0 -186.5 26t-188.5 26q-24 0 -42.5 -5.5t-25.5 -11.5zM48 307q-3 14 -3 22q0 56 81 56q36 0 186 -26t190 -26q20 0 38.5 5.5t27.5 11.5l8 6 q3 -14 3 -24q0 -22 -18.5 -38t-63.5 -16q-37 0 -186.5 26t-188.5 26q-24 0 -42.5 -6t-25.5 -12z" />
<glyph unicode="&#x2260;" horiz-adv-x="485" d="M104 354h136l39 147q52 -17 42 -53l-25 -94h112q4 -16 -1.5 -35t-26.5 -19h-99l-22 -82h149q4 -16 -1.5 -35t-26.5 -19h-135l-39 -145q-24 6 -36 20t-6 32l25 93h-112q-1 9 -1.5 21t7 22.5t21.5 10.5h99l22 82h-148q-1 9 -1.5 21t7 22.5t21.5 10.5z" />
<glyph unicode="&#x2264;" horiz-adv-x="403" d="M122 357l203 -203q-17 -26 -36 -26q-16 0 -52 36l-148 148q-24 24 -24 44q0 21 25 46l199 199q29 -18 29 -38q0 -4 -2.5 -9t-8.5 -12t-9.5 -10.5l-13 -13l-11.5 -11.5zM102 54h234q4 -16 -1.5 -35t-26.5 -19h-233q-1 9 -1.5 21t7 22.5t21.5 10.5z" />
<glyph unicode="&#x2265;" horiz-adv-x="400" d="M75 154l203 203l-151 150l-11.5 11.5l-13 13t-9.5 10.5t-8.5 12t-2.5 9q0 20 29 38l199 -199q25 -25 25 -46q0 -20 -24 -44l-148 -148q-36 -36 -52 -36q-19 0 -36 26zM94 54h234q4 -16 -1.5 -35t-26.5 -19h-233q-1 9 -1.5 21t7 22.5t21.5 10.5z" />
<glyph unicode="&#x25ca;" horiz-adv-x="833" d="M189 613l25 -23q20 2 32 2q72 0 207 -30.5t185 -57.5l25 13q45 23 45 47q0 11 -8 26q76 -37 76 -75q0 -25 -38 -48l-38 -23q13 -33 14 -50l25 -225q1 -9 1 -26q0 -148 -212 -148q-47 0 -97 7q-168 21 -253 83t-85 157q0 8 2 28l30 234q4 28 18 51l-41 38q-47 43 -47 69 q0 45 93 45q-12 -9 -12 -21q0 -24 53 -73zM330 144l206 -30q2 0 5 -0.5t5 -0.5q61 0 61 59q0 32 -10 47q-20 -22 -55 -22l-220 35q-34 9 -58 40q-10 -10 -10 -45q0 -67 76 -83zM605 345l-5 73l-89 18q-23 0 -23 -17q0 -13 0.5 -37t0.5 -37l91 -17q13 0 19.5 4t5.5 13z M264 482l-5 -76q0 -20 27 -27l97 -16l2 76q0 6 -8 14.5t-17 10.5z" />
<glyph unicode="&#xe000;" horiz-adv-x="500" d="M0 500h500v-500h-500v500z" />
<glyph unicode="&#xfb06;" horiz-adv-x="867" d="M542 138v346q0 68 -18.5 92t-66.5 24q-41 0 -62.5 -20.5t-22 -50.5t6.5 -64q25 -22 25 -55q0 -30 -24 -74q1 5 1 16q0 100 -152 100q-74 0 -101.5 -24t-27.5 -78q0 -30 24 -45t59.5 -17t77.5 -8t77.5 -16t59.5 -42.5t24 -86.5q0 -67 -50 -107t-143 -40q-49 0 -87 8 t-66.5 31.5t-28.5 61.5q0 26 15 62q0 -50 41 -79.5t126 -29.5q78 0 108 26t30 72q0 43 -33 62t-80.5 22.5t-95 9.5t-80.5 34.5t-33 85.5q0 73 47.5 112.5t136.5 39.5q60 0 102 -14q-16 64 17 110.5t113 46.5q136 0 136 -140v-27h209q0 -6 -1 -15t-10.5 -24t-25.5 -15h-172 v-265q0 -57 31 -89t90 -32q50 0 85.5 28.5t35.5 73.5q18 -33 18 -60q0 -46 -41 -71t-99 -25q-75 0 -125 39.5t-50 110.5z" />
<glyph horiz-adv-x="280" />
<glyph horiz-adv-x="489" d="M199 596l22 56q11 31 11 52q0 29 -20 44q72 0 72 -50q0 -22 -9.5 -48t-38.5 -88q-7 -2 -16 -2q-24 0 -24 21q0 7 3 15z" />
<glyph horiz-adv-x="893" d="M568 138v346q0 68 -18.5 92t-66.5 24q-41 0 -62 -23t-20.5 -55t6.5 -67q20 -22 20 -48q0 -31 -22 -60q0 47 -40.5 76t-107.5 29q-77 0 -107 -29.5t-30 -82.5v-187q0 -51 37.5 -81t111.5 -30q66 0 110.5 28.5t44.5 81.5q25 -36 25 -63q0 -49 -55.5 -75t-130.5 -26 q-91 0 -144.5 41t-53.5 114v208q0 73 49 114t135 41q67 0 109 -19q-17 65 15.5 113.5t113.5 48.5q136 0 136 -140v-27h209q0 -6 -1 -15t-10.5 -24t-25.5 -15h-172v-265q0 -57 31 -89t90 -32q50 0 85.5 28.5t35.5 73.5q18 -33 18 -60q0 -46 -41 -71t-99 -25q-75 0 -125 39.5 t-50 110.5z" />
<glyph horiz-adv-x="1019" d="M984 418v-252l-112 -66v-138l-241 -128l-120 64l-122 -64l-241 128v138l-113 66v252l113 65v137l241 129l122 -65l120 65l241 -129v-137zM938 178v227l-102 59v124l-218 115l-107 -59l-110 59l-217 -115v-124l-103 -59v-227l103 -58v-125l217 -116l110 60l107 -60 l218 116v125zM895 393v-203l-92 -54v-111l-195 -104l-97 53l-100 -53l-194 104v111l-91 54v203l91 54v111l194 104l100 -54l97 54l195 -104v-111zM368 531v-436q0 -46 80 -53l14 -1v209h127q31 0 48.5 19t19.5 37l2 19h-197v133h187q22 0 34.5 18t14.5 36l1 19h-331z" />
<glyph horiz-adv-x="250" d="M95 -36h29q24 0 28.5 -6t4.5 -30v-34q0 -109 -53 -109q-20 0 -35 9q43 9 34 93z" />
<glyph horiz-adv-x="319" d="M75 37v572q0 66 34 107.5t88 41.5q59 0 69 -37q-84 0 -110 -33t-26 -114v-92h194q0 -6 -1 -15t-10.5 -24t-25.5 -15h-157v-435q-6 0 -15 1t-24.5 12t-15.5 31z" />
<glyph horiz-adv-x="638" d="M394 37v391h-264v-435q-6 0 -15 1t-24.5 12t-15.5 31v537q0 70 54 112.5t133 42.5q37 0 81 -14t62 -39q14 38 43.5 60t67.5 22q59 0 69 -37q-84 0 -110 -33t-26 -114v-92h194q0 -6 -1 -15t-10.5 -24t-25.5 -15h-157v-435q-6 0 -15 1t-24.5 12t-15.5 31zM130 563v-81h264 v111q-9 38 -47 59.5t-86 21.5q-54 0 -92.5 -28.5t-38.5 -82.5z" />
<glyph horiz-adv-x="319" d="M75 37v582q0 70 55 112.5t124 42.5q55 0 101 -23t46 -65q0 -23 -16 -51q0 40 -41 62.5t-89 22.5q-50 0 -87.5 -31t-37.5 -85v-122h194q0 -6 -1 -15t-10.5 -24t-25.5 -15h-157v-435q-6 0 -15 1t-24.5 12t-15.5 31z" />
<glyph horiz-adv-x="638" d="M394 37v391h-264v-435q-6 0 -15 1t-24.5 12t-15.5 31v537q0 70 54 112.5t133 42.5q38 0 82 -14t62 -39q20 45 67.5 71.5t99.5 26.5q55 0 101 -23t46 -65q0 -23 -16 -51q0 40 -41 62.5t-89 22.5q-50 0 -87.5 -31t-37.5 -85v-122h194q0 -6 -1 -15t-10.5 -24t-25.5 -15h-157 v-435q-6 0 -15 1t-24.5 12t-15.5 31zM130 563v-81h264v111q-9 38 -47 59.5t-86 21.5q-54 0 -92.5 -28.5t-38.5 -82.5z" />
<glyph horiz-adv-x="617" d="M542 531v-368q0 -86 -63 -130.5t-170 -44.5q-108 0 -171 44.5t-63 130.5v368q0 85 63 130t171 45q107 0 170 -45t63 -130zM484 178v338q0 69 -42.5 102.5t-132.5 33.5q-91 0 -133.5 -33.5t-42.5 -102.5v-338q0 -70 42.5 -103t133.5 -33q90 0 132.5 33t42.5 103z" />
<glyph horiz-adv-x="617" d="M205 693l162 8q-7 -40 -7 -85v-561l176 2q11 -57 -25 -57h-386q-9 55 24 55h153v585q-47 -6 -104 -6q-42 0 -62 -20t-20 -48v-4q-15 30 -15 56q0 35 27.5 55t76.5 20z" />
<glyph horiz-adv-x="617" d="M86 0v71q0 58 29 103t72.5 71t94.5 53l94.5 50t72.5 61t29 87v17q0 59 -43 98t-123 39q-87 0 -145.5 -31.5t-58.5 -90.5q-15 34 -15 61q0 32 21 55.5t55.5 36.5t70.5 19t72 6q99 0 161.5 -48t62.5 -127v-40q0 -51 -21.5 -90.5t-56 -65.5t-76.5 -47.5l-84 -42.5t-76.5 -44 t-56 -58t-21.5 -79v-9h340l58 6q0 -2 -0.5 -6.5t-3 -15t-6.5 -18.5t-14 -14.5t-23 -6.5h-409z" />
<glyph horiz-adv-x="617" d="M313 650q-87 0 -145.5 -32t-58.5 -91q-15 36 -15 62q0 32 21 55.5t55.5 36.5t70.5 19t72 6q98 0 161 -49t63 -128v-25q0 -121 -103 -149q57 -16 85 -59.5t28 -100.5v-30q0 -80 -64.5 -128.5t-169.5 -48.5q-53 0 -102 10.5t-86.5 38.5t-37.5 69q0 29 12 57q0 -58 60 -88.5 t154 -30.5q87 0 131.5 38.5t44.5 97.5q0 63 -32 102t-97 46h-7q-7 1 -10 3t-9 6.5t-9 15.5t-4 27q86 3 122 34.5t36 99.5q0 59 -42.5 97.5t-123.5 38.5z" />
<glyph horiz-adv-x="617" d="M68 210q3 59 49.5 143.5t108.5 160t107 124.5t65 67q3 0 7.5 -0.5t16 -3t20.5 -6.5t16.5 -13t7.5 -20v-398h72q0 -7 -1 -16t-10 -23.5t-26 -14.5h-35v-220q-4 0 -10.5 1t-19 4.5t-20.5 13.5t-8 24v177h-340zM408 264v303q0 17 2 36.5t4 30.5l1 11q-18 -23 -31 -36 q-69 -69 -145 -169.5t-102 -175.5h271z" />
<glyph horiz-adv-x="617" d="M299 -12q-29 0 -60.5 4t-73 14t-68 34.5t-26.5 60.5q0 23 13 62q0 -58 60 -88.5t155 -30.5q91 0 133 31.5t42 102.5v70q0 136 -175 136h-127l-52 -2q4 15 4 64v163q0 25 2 40t15 29.5t37 14.5h259q16 0 30.5 2t20.5 4l7 2q0 -3 -0.5 -7t-3 -15t-6.5 -19t-14 -15t-23 -7 h-266v-137l-7 -65h122q235 0 235 -175v-96q0 -85 -63 -131t-170 -46z" />
<glyph horiz-adv-x="617" d="M542 246v-83q0 -86 -63 -130.5t-170 -44.5q-108 0 -171 44.5t-63 130.5v363q0 86 63.5 133t170.5 47q41 0 76 -4.5t71.5 -15.5t58 -34.5t21.5 -56.5q0 -31 -13 -61q0 57 -61.5 86.5t-152.5 29.5q-175 0 -175 -139v-95l-3 -77q1 3 4 8.5t17 20t33 25t54.5 19.5t79.5 9 q101 0 162 -45t61 -130zM309 42q91 0 132.5 32t41.5 104v53q0 71 -40 103.5t-124 32.5q-185 0 -185 -128v-61q0 -72 41.5 -104t133.5 -32z" />
<glyph horiz-adv-x="617" d="M500 639h-368q-16 0 -31 -2t-21 -4l-7 -2q0 3 0.5 7t3 15t7 19t14.5 15t23 7h443q0 -65 -19.5 -125.5t-50 -107.5t-67.5 -92.5l-74 -88t-67.5 -85.5t-49 -95t-17.5 -106q-6 -4 -18 -4q-39 0 -39 31q0 66 31 131t77.5 120.5l94 110t86.5 121.5t49 135z" />
<glyph horiz-adv-x="617" d="M75 163v37q0 101 100 151q-49 24 -69.5 58.5t-20.5 87.5v34q0 84 61.5 129.5t162.5 45.5q100 0 161.5 -45.5t61.5 -129.5v-34q0 -54 -20 -88t-69 -58q99 -50 99 -151v-34q0 -86 -63 -132t-170 -46q-108 0 -171 44.5t-63 130.5zM484 182q0 143 -175 143q-91 0 -133.5 -36 t-42.5 -110q0 -71 42 -104t134 -33q90 0 132.5 34t42.5 106zM309 652q-85 0 -125.5 -33.5t-40.5 -104.5q0 -70 36 -102.5t122 -32.5h16q85 0 121 32.5t36 102.5q0 71 -40.5 104.5t-124.5 33.5z" />
<glyph horiz-adv-x="617" d="M75 448v83q0 86 63 130.5t170 44.5q108 0 171 -44.5t63 -130.5v-363q0 -86 -63.5 -133t-170.5 -47q-41 0 -76 4.5t-71.5 15.5t-58 34.5t-21.5 56.5q0 31 13 61q0 -57 61.5 -86.5t152.5 -29.5q175 0 175 139v95l3 77q-1 -3 -4 -8.5t-17 -20t-33 -25t-54.5 -19.5t-79.5 -9 q-101 0 -162 45t-61 130zM308 652q-91 0 -132.5 -32t-41.5 -104v-53q0 -71 40 -103.5t124 -32.5q185 0 185 128v61q0 72 -41.5 104t-133.5 32z" />
</font>
</defs>
</svg>
