<?xml version="1.0" standalone="no"?>
<!DOCTYPE svg PUBLIC "-//W3C//DTD SVG 20010904//EN"
 "http://www.w3.org/TR/2001/REC-SVG-20010904/DTD/svg10.dtd">
<svg version="1.0" xmlns="http://www.w3.org/2000/svg"
 width="98.000000pt" height="98.000000pt" viewBox="0 0 98.000000 98.000000"
 preserveAspectRatio="xMidYMid meet">
<metadata>
Created by potrace 1.11, written by Peter Selinger 2001-2013
</metadata>
<g transform="translate(0.000000,98.000000) scale(0.100000,-0.100000)"
fill="#000000" stroke="none">
<path d="M450 868 c0 -6 -6 -8 -14 -5 -23 9 -109 -38 -158 -87 -27 -26 -48
-51 -48 -55 0 -10 51 -8 68 3 7 4 17 4 22 1 6 -3 10 -1 10 5 0 6 6 10 13 9 17
-3 99 21 115 33 6 6 12 7 12 3 0 -4 7 -2 15 5 8 7 15 9 15 4 0 -5 4 -4 8 1 13
18 69 45 77 37 5 -4 5 -1 1 6 -4 6 -2 12 3 12 6 0 11 5 11 10 0 6 -10 10 -23
10 -13 0 -28 5 -35 12 -9 9 -12 9 -12 -1 0 -7 -4 -10 -9 -6 -17 10 -71 12 -71
3z"/>
<path d="M680 747 c0 -4 -4 -5 -10 -2 -5 3 -10 2 -10 -4 0 -5 -9 -8 -20 -6
-11 2 -20 0 -20 -4 0 -8 -27 -16 -85 -27 -11 -3 -27 -7 -35 -11 -17 -7 -30
-10 -77 -14 -18 -2 -33 -6 -33 -9 0 -3 -12 -6 -27 -6 -66 -3 -197 -18 -213
-24 -3 -1 -9 -1 -15 0 -5 1 -7 -2 -3 -6 4 -4 -1 -19 -11 -33 -10 -14 -17 -34
-16 -43 2 -10 0 -18 -4 -18 -5 0 -7 -16 -6 -35 1 -19 -3 -35 -7 -35 -5 0 -7
-4 -4 -8 3 -5 8 -24 11 -43 4 -19 8 -38 9 -44 1 -5 8 -21 16 -35 8 -14 13 -28
12 -32 -1 -3 4 -5 11 -3 41 10 56 19 50 28 -3 6 -1 7 5 3 11 -6 154 61 160 76
2 5 8 8 13 8 16 0 150 103 203 156 40 40 146 167 146 174 0 3 -9 6 -20 6 -11
0 -20 -4 -20 -9z"/>
<path d="M802 676 c4 -5 -2 -17 -14 -27 -11 -11 -18 -19 -14 -19 11 0 -132
-141 -194 -190 -30 -25 -57 -48 -58 -53 -2 -4 -8 -5 -13 -1 -5 3 -9 1 -9 -3 0
-5 -20 -19 -45 -33 -25 -14 -45 -28 -45 -31 0 -4 -13 -10 -30 -14 -46 -10 -43
-20 6 -21 24 0 44 3 44 8 0 5 6 8 13 6 17 -3 120 23 134 34 7 5 16 7 22 4 5
-4 16 1 25 9 8 9 18 15 21 15 3 -1 29 12 58 28 53 30 146 102 131 102 -4 0 2
9 13 20 12 10 24 29 28 40 9 27 -16 78 -52 110 -15 14 -25 21 -21 16z"/>
<path d="M834 355 c-17 -16 -54 -41 -82 -55 -29 -14 -52 -29 -52 -33 0 -5 -4
-5 -10 -2 -5 3 -10 1 -10 -5 0 -6 -4 -8 -10 -5 -5 3 -20 0 -32 -7 -13 -7 -29
-11 -35 -10 -7 2 -13 -2 -13 -7 0 -5 -8 -10 -17 -10 -18 0 -58 -8 -58 -11 0
-1 -11 -4 -25 -6 -48 -7 -59 -10 -66 -17 -12 -12 -26 -8 -18 5 5 7 3 8 -7 2
-18 -11 -33 -14 -85 -16 -41 -2 -42 -2 -26 -25 21 -33 94 -74 136 -76 18 -1
32 -5 30 -9 -5 -8 101 -2 134 7 12 4 22 11 22 16 0 5 3 8 8 7 19 -5 74 38 155
121 49 50 85 91 81 91 -4 0 1 9 11 20 10 11 15 20 10 20 -4 0 -2 6 4 14 24 29
-14 21 -45 -9z"/>
</g>
</svg>
